%TF.GenerationSoftware,KiCad,Pcbnew,10.0.4*%
%TF.CreationDate,2026-08-21T07:54:07+01:00*%
%TF.ProjectId,london26-m3,6c6f6e64-6f6e-4323-962d-6d332e6b6963,rev?*%
%TF.SameCoordinates,Original*%
%TF.FileFunction,Legend,Bot*%
%TF.FilePolarity,Positive*%
%FSLAX46Y46*%
G04 Gerber Fmt 4.6, Leading zero omitted, Abs format (unit mm)*
G04 Created by KiCad (PCBNEW 10.0.4) date 2026-08-21 07:54:07*
%MOMM*%
%LPD*%
G01*
G04 APERTURE LIST*
%ADD10C,0.150000*%
%ADD11C,0.250000*%
%ADD12C,0.000000*%
%ADD13C,0.100000*%
%ADD14C,0.120000*%
%ADD15C,0.200000*%
%ADD16C,0.180000*%
G04 APERTURE END LIST*
D10*
X60357097Y-138804761D02*
X60357097Y-138402380D01*
X60357097Y-138402380D02*
X60109478Y-138619047D01*
X60109478Y-138619047D02*
X60109478Y-138526190D01*
X60109478Y-138526190D02*
X60078526Y-138464285D01*
X60078526Y-138464285D02*
X60047573Y-138433333D01*
X60047573Y-138433333D02*
X59985669Y-138402380D01*
X59985669Y-138402380D02*
X59830907Y-138402380D01*
X59830907Y-138402380D02*
X59769002Y-138433333D01*
X59769002Y-138433333D02*
X59738050Y-138464285D01*
X59738050Y-138464285D02*
X59707097Y-138526190D01*
X59707097Y-138526190D02*
X59707097Y-138711904D01*
X59707097Y-138711904D02*
X59738050Y-138773809D01*
X59738050Y-138773809D02*
X59769002Y-138804761D01*
X60357097Y-138216666D02*
X59707097Y-137999999D01*
X59707097Y-137999999D02*
X60357097Y-137783332D01*
X60357097Y-137628570D02*
X60357097Y-137226189D01*
X60357097Y-137226189D02*
X60109478Y-137442856D01*
X60109478Y-137442856D02*
X60109478Y-137349999D01*
X60109478Y-137349999D02*
X60078526Y-137288094D01*
X60078526Y-137288094D02*
X60047573Y-137257142D01*
X60047573Y-137257142D02*
X59985669Y-137226189D01*
X59985669Y-137226189D02*
X59830907Y-137226189D01*
X59830907Y-137226189D02*
X59769002Y-137257142D01*
X59769002Y-137257142D02*
X59738050Y-137288094D01*
X59738050Y-137288094D02*
X59707097Y-137349999D01*
X59707097Y-137349999D02*
X59707097Y-137535713D01*
X59707097Y-137535713D02*
X59738050Y-137597618D01*
X59738050Y-137597618D02*
X59769002Y-137628570D01*
X62278526Y-139578571D02*
X62928526Y-139578571D01*
X62928526Y-139578571D02*
X62928526Y-139423809D01*
X62928526Y-139423809D02*
X62897574Y-139330952D01*
X62897574Y-139330952D02*
X62835669Y-139269047D01*
X62835669Y-139269047D02*
X62773764Y-139238094D01*
X62773764Y-139238094D02*
X62649955Y-139207142D01*
X62649955Y-139207142D02*
X62557098Y-139207142D01*
X62557098Y-139207142D02*
X62433288Y-139238094D01*
X62433288Y-139238094D02*
X62371383Y-139269047D01*
X62371383Y-139269047D02*
X62309479Y-139330952D01*
X62309479Y-139330952D02*
X62278526Y-139423809D01*
X62278526Y-139423809D02*
X62278526Y-139578571D01*
X62897574Y-138588094D02*
X62928526Y-138649999D01*
X62928526Y-138649999D02*
X62928526Y-138742856D01*
X62928526Y-138742856D02*
X62897574Y-138835713D01*
X62897574Y-138835713D02*
X62835669Y-138897618D01*
X62835669Y-138897618D02*
X62773764Y-138928571D01*
X62773764Y-138928571D02*
X62649955Y-138959523D01*
X62649955Y-138959523D02*
X62557098Y-138959523D01*
X62557098Y-138959523D02*
X62433288Y-138928571D01*
X62433288Y-138928571D02*
X62371383Y-138897618D01*
X62371383Y-138897618D02*
X62309479Y-138835713D01*
X62309479Y-138835713D02*
X62278526Y-138742856D01*
X62278526Y-138742856D02*
X62278526Y-138680952D01*
X62278526Y-138680952D02*
X62309479Y-138588094D01*
X62309479Y-138588094D02*
X62340431Y-138557142D01*
X62340431Y-138557142D02*
X62557098Y-138557142D01*
X62557098Y-138557142D02*
X62557098Y-138680952D01*
X62278526Y-138278571D02*
X62928526Y-138278571D01*
X62928526Y-138278571D02*
X62278526Y-137907142D01*
X62278526Y-137907142D02*
X62928526Y-137907142D01*
X62278526Y-137597619D02*
X62928526Y-137597619D01*
X62928526Y-137597619D02*
X62928526Y-137442857D01*
X62928526Y-137442857D02*
X62897574Y-137350000D01*
X62897574Y-137350000D02*
X62835669Y-137288095D01*
X62835669Y-137288095D02*
X62773764Y-137257142D01*
X62773764Y-137257142D02*
X62649955Y-137226190D01*
X62649955Y-137226190D02*
X62557098Y-137226190D01*
X62557098Y-137226190D02*
X62433288Y-137257142D01*
X62433288Y-137257142D02*
X62371383Y-137288095D01*
X62371383Y-137288095D02*
X62309479Y-137350000D01*
X62309479Y-137350000D02*
X62278526Y-137442857D01*
X62278526Y-137442857D02*
X62278526Y-137597619D01*
X65190430Y-141652381D02*
X65190430Y-141435714D01*
X64849954Y-141342857D02*
X64849954Y-141652381D01*
X64849954Y-141652381D02*
X65499954Y-141652381D01*
X65499954Y-141652381D02*
X65499954Y-141342857D01*
X65499954Y-141126190D02*
X64849954Y-140692857D01*
X65499954Y-140692857D02*
X64849954Y-141126190D01*
X65499954Y-140538095D02*
X65499954Y-140166666D01*
X64849954Y-140352380D02*
X65499954Y-140352380D01*
X64788049Y-140104762D02*
X64788049Y-139609523D01*
X65190430Y-139238095D02*
X65159478Y-139145238D01*
X65159478Y-139145238D02*
X65128526Y-139114285D01*
X65128526Y-139114285D02*
X65066621Y-139083333D01*
X65066621Y-139083333D02*
X64973764Y-139083333D01*
X64973764Y-139083333D02*
X64911859Y-139114285D01*
X64911859Y-139114285D02*
X64880907Y-139145238D01*
X64880907Y-139145238D02*
X64849954Y-139207143D01*
X64849954Y-139207143D02*
X64849954Y-139454762D01*
X64849954Y-139454762D02*
X65499954Y-139454762D01*
X65499954Y-139454762D02*
X65499954Y-139238095D01*
X65499954Y-139238095D02*
X65469002Y-139176190D01*
X65469002Y-139176190D02*
X65438049Y-139145238D01*
X65438049Y-139145238D02*
X65376145Y-139114285D01*
X65376145Y-139114285D02*
X65314240Y-139114285D01*
X65314240Y-139114285D02*
X65252335Y-139145238D01*
X65252335Y-139145238D02*
X65221383Y-139176190D01*
X65221383Y-139176190D02*
X65190430Y-139238095D01*
X65190430Y-139238095D02*
X65190430Y-139454762D01*
X65499954Y-138804762D02*
X64973764Y-138804762D01*
X64973764Y-138804762D02*
X64911859Y-138773809D01*
X64911859Y-138773809D02*
X64880907Y-138742857D01*
X64880907Y-138742857D02*
X64849954Y-138680952D01*
X64849954Y-138680952D02*
X64849954Y-138557143D01*
X64849954Y-138557143D02*
X64880907Y-138495238D01*
X64880907Y-138495238D02*
X64911859Y-138464285D01*
X64911859Y-138464285D02*
X64973764Y-138433333D01*
X64973764Y-138433333D02*
X65499954Y-138433333D01*
X64880907Y-138154762D02*
X64849954Y-138061905D01*
X64849954Y-138061905D02*
X64849954Y-137907143D01*
X64849954Y-137907143D02*
X64880907Y-137845238D01*
X64880907Y-137845238D02*
X64911859Y-137814286D01*
X64911859Y-137814286D02*
X64973764Y-137783333D01*
X64973764Y-137783333D02*
X65035668Y-137783333D01*
X65035668Y-137783333D02*
X65097573Y-137814286D01*
X65097573Y-137814286D02*
X65128526Y-137845238D01*
X65128526Y-137845238D02*
X65159478Y-137907143D01*
X65159478Y-137907143D02*
X65190430Y-138030952D01*
X65190430Y-138030952D02*
X65221383Y-138092857D01*
X65221383Y-138092857D02*
X65252335Y-138123810D01*
X65252335Y-138123810D02*
X65314240Y-138154762D01*
X65314240Y-138154762D02*
X65376145Y-138154762D01*
X65376145Y-138154762D02*
X65438049Y-138123810D01*
X65438049Y-138123810D02*
X65469002Y-138092857D01*
X65469002Y-138092857D02*
X65499954Y-138030952D01*
X65499954Y-138030952D02*
X65499954Y-137876191D01*
X65499954Y-137876191D02*
X65469002Y-137783333D01*
X65159478Y-137380952D02*
X64849954Y-137380952D01*
X65499954Y-137597619D02*
X65159478Y-137380952D01*
X65159478Y-137380952D02*
X65499954Y-137164285D01*
X67761859Y-140909523D02*
X67761859Y-140692856D01*
X67421383Y-140599999D02*
X67421383Y-140909523D01*
X67421383Y-140909523D02*
X68071383Y-140909523D01*
X68071383Y-140909523D02*
X68071383Y-140599999D01*
X68071383Y-140383332D02*
X67421383Y-139949999D01*
X68071383Y-139949999D02*
X67421383Y-140383332D01*
X68071383Y-139795237D02*
X68071383Y-139423808D01*
X67421383Y-139609522D02*
X68071383Y-139609522D01*
X67359478Y-139361904D02*
X67359478Y-138866665D01*
X67421383Y-138340475D02*
X67730907Y-138557142D01*
X67421383Y-138711904D02*
X68071383Y-138711904D01*
X68071383Y-138711904D02*
X68071383Y-138464285D01*
X68071383Y-138464285D02*
X68040431Y-138402380D01*
X68040431Y-138402380D02*
X68009478Y-138371427D01*
X68009478Y-138371427D02*
X67947574Y-138340475D01*
X67947574Y-138340475D02*
X67854716Y-138340475D01*
X67854716Y-138340475D02*
X67792812Y-138371427D01*
X67792812Y-138371427D02*
X67761859Y-138402380D01*
X67761859Y-138402380D02*
X67730907Y-138464285D01*
X67730907Y-138464285D02*
X67730907Y-138711904D01*
X67452336Y-138092856D02*
X67421383Y-137999999D01*
X67421383Y-137999999D02*
X67421383Y-137845237D01*
X67421383Y-137845237D02*
X67452336Y-137783332D01*
X67452336Y-137783332D02*
X67483288Y-137752380D01*
X67483288Y-137752380D02*
X67545193Y-137721427D01*
X67545193Y-137721427D02*
X67607097Y-137721427D01*
X67607097Y-137721427D02*
X67669002Y-137752380D01*
X67669002Y-137752380D02*
X67699955Y-137783332D01*
X67699955Y-137783332D02*
X67730907Y-137845237D01*
X67730907Y-137845237D02*
X67761859Y-137969046D01*
X67761859Y-137969046D02*
X67792812Y-138030951D01*
X67792812Y-138030951D02*
X67823764Y-138061904D01*
X67823764Y-138061904D02*
X67885669Y-138092856D01*
X67885669Y-138092856D02*
X67947574Y-138092856D01*
X67947574Y-138092856D02*
X68009478Y-138061904D01*
X68009478Y-138061904D02*
X68040431Y-138030951D01*
X68040431Y-138030951D02*
X68071383Y-137969046D01*
X68071383Y-137969046D02*
X68071383Y-137814285D01*
X68071383Y-137814285D02*
X68040431Y-137721427D01*
X68071383Y-137535713D02*
X68071383Y-137164284D01*
X67421383Y-137349998D02*
X68071383Y-137349998D01*
X70333287Y-140445237D02*
X70333287Y-140228570D01*
X69992811Y-140135713D02*
X69992811Y-140445237D01*
X69992811Y-140445237D02*
X70642811Y-140445237D01*
X70642811Y-140445237D02*
X70642811Y-140135713D01*
X70642811Y-139919046D02*
X69992811Y-139485713D01*
X70642811Y-139485713D02*
X69992811Y-139919046D01*
X70642811Y-139330951D02*
X70642811Y-138959522D01*
X69992811Y-139145236D02*
X70642811Y-139145236D01*
X69930906Y-138897618D02*
X69930906Y-138402379D01*
X69992811Y-138247618D02*
X70642811Y-138247618D01*
X70642811Y-138247618D02*
X70642811Y-138092856D01*
X70642811Y-138092856D02*
X70611859Y-137999999D01*
X70611859Y-137999999D02*
X70549954Y-137938094D01*
X70549954Y-137938094D02*
X70488049Y-137907141D01*
X70488049Y-137907141D02*
X70364240Y-137876189D01*
X70364240Y-137876189D02*
X70271383Y-137876189D01*
X70271383Y-137876189D02*
X70147573Y-137907141D01*
X70147573Y-137907141D02*
X70085668Y-137938094D01*
X70085668Y-137938094D02*
X70023764Y-137999999D01*
X70023764Y-137999999D02*
X69992811Y-138092856D01*
X69992811Y-138092856D02*
X69992811Y-138247618D01*
X70054716Y-137226189D02*
X70023764Y-137257141D01*
X70023764Y-137257141D02*
X69992811Y-137349999D01*
X69992811Y-137349999D02*
X69992811Y-137411903D01*
X69992811Y-137411903D02*
X70023764Y-137504760D01*
X70023764Y-137504760D02*
X70085668Y-137566665D01*
X70085668Y-137566665D02*
X70147573Y-137597618D01*
X70147573Y-137597618D02*
X70271383Y-137628570D01*
X70271383Y-137628570D02*
X70364240Y-137628570D01*
X70364240Y-137628570D02*
X70488049Y-137597618D01*
X70488049Y-137597618D02*
X70549954Y-137566665D01*
X70549954Y-137566665D02*
X70611859Y-137504760D01*
X70611859Y-137504760D02*
X70642811Y-137411903D01*
X70642811Y-137411903D02*
X70642811Y-137349999D01*
X70642811Y-137349999D02*
X70611859Y-137257141D01*
X70611859Y-137257141D02*
X70580906Y-137226189D01*
X72904716Y-140414285D02*
X72904716Y-140197618D01*
X72564240Y-140104761D02*
X72564240Y-140414285D01*
X72564240Y-140414285D02*
X73214240Y-140414285D01*
X73214240Y-140414285D02*
X73214240Y-140104761D01*
X73214240Y-139888094D02*
X72564240Y-139454761D01*
X73214240Y-139454761D02*
X72564240Y-139888094D01*
X73214240Y-139299999D02*
X73214240Y-138928570D01*
X72564240Y-139114284D02*
X73214240Y-139114284D01*
X72502335Y-138866666D02*
X72502335Y-138371427D01*
X72626145Y-137845237D02*
X72595193Y-137876189D01*
X72595193Y-137876189D02*
X72564240Y-137969047D01*
X72564240Y-137969047D02*
X72564240Y-138030951D01*
X72564240Y-138030951D02*
X72595193Y-138123808D01*
X72595193Y-138123808D02*
X72657097Y-138185713D01*
X72657097Y-138185713D02*
X72719002Y-138216666D01*
X72719002Y-138216666D02*
X72842812Y-138247618D01*
X72842812Y-138247618D02*
X72935669Y-138247618D01*
X72935669Y-138247618D02*
X73059478Y-138216666D01*
X73059478Y-138216666D02*
X73121383Y-138185713D01*
X73121383Y-138185713D02*
X73183288Y-138123808D01*
X73183288Y-138123808D02*
X73214240Y-138030951D01*
X73214240Y-138030951D02*
X73214240Y-137969047D01*
X73214240Y-137969047D02*
X73183288Y-137876189D01*
X73183288Y-137876189D02*
X73152335Y-137845237D01*
X72595193Y-137597618D02*
X72564240Y-137504761D01*
X72564240Y-137504761D02*
X72564240Y-137349999D01*
X72564240Y-137349999D02*
X72595193Y-137288094D01*
X72595193Y-137288094D02*
X72626145Y-137257142D01*
X72626145Y-137257142D02*
X72688050Y-137226189D01*
X72688050Y-137226189D02*
X72749954Y-137226189D01*
X72749954Y-137226189D02*
X72811859Y-137257142D01*
X72811859Y-137257142D02*
X72842812Y-137288094D01*
X72842812Y-137288094D02*
X72873764Y-137349999D01*
X72873764Y-137349999D02*
X72904716Y-137473808D01*
X72904716Y-137473808D02*
X72935669Y-137535713D01*
X72935669Y-137535713D02*
X72966621Y-137566666D01*
X72966621Y-137566666D02*
X73028526Y-137597618D01*
X73028526Y-137597618D02*
X73090431Y-137597618D01*
X73090431Y-137597618D02*
X73152335Y-137566666D01*
X73152335Y-137566666D02*
X73183288Y-137535713D01*
X73183288Y-137535713D02*
X73214240Y-137473808D01*
X73214240Y-137473808D02*
X73214240Y-137319047D01*
X73214240Y-137319047D02*
X73183288Y-137226189D01*
X75476144Y-141497619D02*
X75476144Y-141280952D01*
X75135668Y-141188095D02*
X75135668Y-141497619D01*
X75135668Y-141497619D02*
X75785668Y-141497619D01*
X75785668Y-141497619D02*
X75785668Y-141188095D01*
X75785668Y-140971428D02*
X75135668Y-140538095D01*
X75785668Y-140538095D02*
X75135668Y-140971428D01*
X75785668Y-140383333D02*
X75785668Y-140011904D01*
X75135668Y-140197618D02*
X75785668Y-140197618D01*
X75073763Y-139950000D02*
X75073763Y-139454761D01*
X75135668Y-139300000D02*
X75785668Y-139300000D01*
X75785668Y-139300000D02*
X75321382Y-139083333D01*
X75321382Y-139083333D02*
X75785668Y-138866666D01*
X75785668Y-138866666D02*
X75135668Y-138866666D01*
X75785668Y-138433333D02*
X75785668Y-138309524D01*
X75785668Y-138309524D02*
X75754716Y-138247619D01*
X75754716Y-138247619D02*
X75692811Y-138185714D01*
X75692811Y-138185714D02*
X75569001Y-138154762D01*
X75569001Y-138154762D02*
X75352335Y-138154762D01*
X75352335Y-138154762D02*
X75228525Y-138185714D01*
X75228525Y-138185714D02*
X75166621Y-138247619D01*
X75166621Y-138247619D02*
X75135668Y-138309524D01*
X75135668Y-138309524D02*
X75135668Y-138433333D01*
X75135668Y-138433333D02*
X75166621Y-138495238D01*
X75166621Y-138495238D02*
X75228525Y-138557143D01*
X75228525Y-138557143D02*
X75352335Y-138588095D01*
X75352335Y-138588095D02*
X75569001Y-138588095D01*
X75569001Y-138588095D02*
X75692811Y-138557143D01*
X75692811Y-138557143D02*
X75754716Y-138495238D01*
X75754716Y-138495238D02*
X75785668Y-138433333D01*
X75166621Y-137907143D02*
X75135668Y-137814286D01*
X75135668Y-137814286D02*
X75135668Y-137659524D01*
X75135668Y-137659524D02*
X75166621Y-137597619D01*
X75166621Y-137597619D02*
X75197573Y-137566667D01*
X75197573Y-137566667D02*
X75259478Y-137535714D01*
X75259478Y-137535714D02*
X75321382Y-137535714D01*
X75321382Y-137535714D02*
X75383287Y-137566667D01*
X75383287Y-137566667D02*
X75414240Y-137597619D01*
X75414240Y-137597619D02*
X75445192Y-137659524D01*
X75445192Y-137659524D02*
X75476144Y-137783333D01*
X75476144Y-137783333D02*
X75507097Y-137845238D01*
X75507097Y-137845238D02*
X75538049Y-137876191D01*
X75538049Y-137876191D02*
X75599954Y-137907143D01*
X75599954Y-137907143D02*
X75661859Y-137907143D01*
X75661859Y-137907143D02*
X75723763Y-137876191D01*
X75723763Y-137876191D02*
X75754716Y-137845238D01*
X75754716Y-137845238D02*
X75785668Y-137783333D01*
X75785668Y-137783333D02*
X75785668Y-137628572D01*
X75785668Y-137628572D02*
X75754716Y-137535714D01*
X75135668Y-137257143D02*
X75785668Y-137257143D01*
X78047573Y-140971427D02*
X78047573Y-140754760D01*
X77707097Y-140661903D02*
X77707097Y-140971427D01*
X77707097Y-140971427D02*
X78357097Y-140971427D01*
X78357097Y-140971427D02*
X78357097Y-140661903D01*
X78357097Y-140445236D02*
X77707097Y-140011903D01*
X78357097Y-140011903D02*
X77707097Y-140445236D01*
X78357097Y-139857141D02*
X78357097Y-139485712D01*
X77707097Y-139671426D02*
X78357097Y-139671426D01*
X77645192Y-139423808D02*
X77645192Y-138928569D01*
X77769002Y-138402379D02*
X77738050Y-138433331D01*
X77738050Y-138433331D02*
X77707097Y-138526189D01*
X77707097Y-138526189D02*
X77707097Y-138588093D01*
X77707097Y-138588093D02*
X77738050Y-138680950D01*
X77738050Y-138680950D02*
X77799954Y-138742855D01*
X77799954Y-138742855D02*
X77861859Y-138773808D01*
X77861859Y-138773808D02*
X77985669Y-138804760D01*
X77985669Y-138804760D02*
X78078526Y-138804760D01*
X78078526Y-138804760D02*
X78202335Y-138773808D01*
X78202335Y-138773808D02*
X78264240Y-138742855D01*
X78264240Y-138742855D02*
X78326145Y-138680950D01*
X78326145Y-138680950D02*
X78357097Y-138588093D01*
X78357097Y-138588093D02*
X78357097Y-138526189D01*
X78357097Y-138526189D02*
X78326145Y-138433331D01*
X78326145Y-138433331D02*
X78295192Y-138402379D01*
X77707097Y-137814284D02*
X77707097Y-138123808D01*
X77707097Y-138123808D02*
X78357097Y-138123808D01*
X77707097Y-137597618D02*
X78357097Y-137597618D01*
X77707097Y-137226189D02*
X78078526Y-137504760D01*
X78357097Y-137226189D02*
X77985669Y-137597618D01*
D11*
X92904761Y-9800095D02*
X92904761Y-7181047D01*
X92904761Y-7181047D02*
X93142856Y-6704857D01*
X93142856Y-6704857D02*
X93619047Y-6466761D01*
X93619047Y-6466761D02*
X94571428Y-6466761D01*
X94571428Y-6466761D02*
X95047618Y-6704857D01*
X92904761Y-9562000D02*
X93380952Y-9800095D01*
X93380952Y-9800095D02*
X94571428Y-9800095D01*
X94571428Y-9800095D02*
X95047618Y-9562000D01*
X95047618Y-9562000D02*
X95285714Y-9085809D01*
X95285714Y-9085809D02*
X95285714Y-8609619D01*
X95285714Y-8609619D02*
X95047618Y-8133428D01*
X95047618Y-8133428D02*
X94571428Y-7895333D01*
X94571428Y-7895333D02*
X93380952Y-7895333D01*
X93380952Y-7895333D02*
X92904761Y-7657238D01*
X90523808Y-9800095D02*
X90523808Y-6466761D01*
X90523808Y-4800095D02*
X90761904Y-5038190D01*
X90761904Y-5038190D02*
X90523808Y-5276285D01*
X90523808Y-5276285D02*
X90285713Y-5038190D01*
X90285713Y-5038190D02*
X90523808Y-4800095D01*
X90523808Y-4800095D02*
X90523808Y-5276285D01*
X88380952Y-9562000D02*
X87904761Y-9800095D01*
X87904761Y-9800095D02*
X86952380Y-9800095D01*
X86952380Y-9800095D02*
X86476190Y-9562000D01*
X86476190Y-9562000D02*
X86238094Y-9085809D01*
X86238094Y-9085809D02*
X86238094Y-8847714D01*
X86238094Y-8847714D02*
X86476190Y-8371523D01*
X86476190Y-8371523D02*
X86952380Y-8133428D01*
X86952380Y-8133428D02*
X87666666Y-8133428D01*
X87666666Y-8133428D02*
X88142856Y-7895333D01*
X88142856Y-7895333D02*
X88380952Y-7419142D01*
X88380952Y-7419142D02*
X88380952Y-7181047D01*
X88380952Y-7181047D02*
X88142856Y-6704857D01*
X88142856Y-6704857D02*
X87666666Y-6466761D01*
X87666666Y-6466761D02*
X86952380Y-6466761D01*
X86952380Y-6466761D02*
X86476190Y-6704857D01*
X84095237Y-9800095D02*
X84095237Y-4800095D01*
X84095237Y-6704857D02*
X83619047Y-6466761D01*
X83619047Y-6466761D02*
X82666666Y-6466761D01*
X82666666Y-6466761D02*
X82190475Y-6704857D01*
X82190475Y-6704857D02*
X81952380Y-6942952D01*
X81952380Y-6942952D02*
X81714285Y-7419142D01*
X81714285Y-7419142D02*
X81714285Y-8847714D01*
X81714285Y-8847714D02*
X81952380Y-9323904D01*
X81952380Y-9323904D02*
X82190475Y-9562000D01*
X82190475Y-9562000D02*
X82666666Y-9800095D01*
X82666666Y-9800095D02*
X83619047Y-9800095D01*
X83619047Y-9800095D02*
X84095237Y-9562000D01*
X79571427Y-9323904D02*
X79333332Y-9562000D01*
X79333332Y-9562000D02*
X79571427Y-9800095D01*
X79571427Y-9800095D02*
X79809523Y-9562000D01*
X79809523Y-9562000D02*
X79571427Y-9323904D01*
X79571427Y-9323904D02*
X79571427Y-9800095D01*
X75047618Y-9800095D02*
X75047618Y-4800095D01*
X75047618Y-9562000D02*
X75523809Y-9800095D01*
X75523809Y-9800095D02*
X76476190Y-9800095D01*
X76476190Y-9800095D02*
X76952380Y-9562000D01*
X76952380Y-9562000D02*
X77190475Y-9323904D01*
X77190475Y-9323904D02*
X77428571Y-8847714D01*
X77428571Y-8847714D02*
X77428571Y-7419142D01*
X77428571Y-7419142D02*
X77190475Y-6942952D01*
X77190475Y-6942952D02*
X76952380Y-6704857D01*
X76952380Y-6704857D02*
X76476190Y-6466761D01*
X76476190Y-6466761D02*
X75523809Y-6466761D01*
X75523809Y-6466761D02*
X75047618Y-6704857D01*
X70761903Y-9562000D02*
X71238094Y-9800095D01*
X71238094Y-9800095D02*
X72190475Y-9800095D01*
X72190475Y-9800095D02*
X72666665Y-9562000D01*
X72666665Y-9562000D02*
X72904761Y-9085809D01*
X72904761Y-9085809D02*
X72904761Y-7181047D01*
X72904761Y-7181047D02*
X72666665Y-6704857D01*
X72666665Y-6704857D02*
X72190475Y-6466761D01*
X72190475Y-6466761D02*
X71238094Y-6466761D01*
X71238094Y-6466761D02*
X70761903Y-6704857D01*
X70761903Y-6704857D02*
X70523808Y-7181047D01*
X70523808Y-7181047D02*
X70523808Y-7657238D01*
X70523808Y-7657238D02*
X72904761Y-8133428D01*
X68857142Y-6466761D02*
X67666666Y-9800095D01*
X67666666Y-9800095D02*
X66476189Y-6466761D01*
D12*
G36*
X59580000Y-54480000D02*
G01*
X58060000Y-54480000D01*
X58060000Y-52960000D01*
X59580000Y-52960000D01*
X59580000Y-54480000D01*
G37*
G36*
X65660000Y-48400000D02*
G01*
X61100000Y-48400000D01*
X61100000Y-45360000D01*
X62620000Y-45360000D01*
X62620000Y-46880000D01*
X64140000Y-46880000D01*
X64140000Y-45360000D01*
X62620000Y-45360000D01*
X61100000Y-45360000D01*
X61100000Y-43840000D01*
X65660000Y-43840000D01*
X65660000Y-46880000D01*
X65660000Y-48400000D01*
G37*
G36*
X61100000Y-42320000D02*
G01*
X59580000Y-42320000D01*
X59580000Y-40800000D01*
X61100000Y-40800000D01*
X61100000Y-42320000D01*
G37*
G36*
X76300000Y-34720000D02*
G01*
X76300000Y-36240000D01*
X73260000Y-36240000D01*
X73260000Y-34720000D01*
X76300000Y-34720000D01*
G37*
G36*
X58060000Y-33200000D02*
G01*
X58060000Y-34720000D01*
X55020000Y-34720000D01*
X55020000Y-33200000D01*
X58060000Y-33200000D01*
G37*
G36*
X70220000Y-28640000D02*
G01*
X70220000Y-30160000D01*
X68700000Y-30160000D01*
X68700000Y-28640000D01*
X70220000Y-28640000D01*
G37*
G36*
X89980000Y-54480000D02*
G01*
X82380000Y-54480000D01*
X82380000Y-48400000D01*
X83900000Y-48400000D01*
X83900000Y-52960000D01*
X88460000Y-52960000D01*
X88460000Y-48400000D01*
X83900000Y-48400000D01*
X82380000Y-48400000D01*
X82380000Y-46880000D01*
X89980000Y-46880000D01*
X89980000Y-52960000D01*
X89980000Y-54480000D01*
G37*
G36*
X77820000Y-46880000D02*
G01*
X77820000Y-49920000D01*
X76300000Y-49920000D01*
X76300000Y-46880000D01*
X77820000Y-46880000D01*
G37*
G36*
X73260000Y-45360000D02*
G01*
X73260000Y-46880000D01*
X71740000Y-46880000D01*
X71740000Y-45360000D01*
X73260000Y-45360000D01*
G37*
G36*
X62620000Y-27120000D02*
G01*
X55020000Y-27120000D01*
X55020000Y-21040000D01*
X56540000Y-21040000D01*
X56540000Y-25600000D01*
X61100000Y-25600000D01*
X61100000Y-21040000D01*
X56540000Y-21040000D01*
X55020000Y-21040000D01*
X55020000Y-19520000D01*
X62620000Y-19520000D01*
X62620000Y-25600000D01*
X62620000Y-27120000D01*
G37*
G36*
X89980000Y-27120000D02*
G01*
X82380000Y-27120000D01*
X82380000Y-21040000D01*
X83900000Y-21040000D01*
X83900000Y-25600000D01*
X88460000Y-25600000D01*
X88460000Y-21040000D01*
X83900000Y-21040000D01*
X82380000Y-21040000D01*
X82380000Y-19520000D01*
X89980000Y-19520000D01*
X89980000Y-25600000D01*
X89980000Y-27120000D01*
G37*
G36*
X95300000Y-34720000D02*
G01*
X95300000Y-37760000D01*
X95300000Y-46880000D01*
X95300000Y-59800000D01*
X49700000Y-59800000D01*
X49700000Y-46880000D01*
X53500000Y-46880000D01*
X55020000Y-46880000D01*
X55020000Y-45360000D01*
X53500000Y-45360000D01*
X53500000Y-46880000D01*
X49700000Y-46880000D01*
X49700000Y-30160000D01*
X53500000Y-30160000D01*
X53500000Y-31680000D01*
X55020000Y-31680000D01*
X55020000Y-33200000D01*
X53500000Y-33200000D01*
X53500000Y-34720000D01*
X53500000Y-36240000D01*
X53500000Y-37760000D01*
X55020000Y-37760000D01*
X55020000Y-36240000D01*
X59580000Y-36240000D01*
X59580000Y-34720000D01*
X62620000Y-34720000D01*
X62620000Y-36240000D01*
X61100000Y-36240000D01*
X61100000Y-37760000D01*
X64140000Y-37760000D01*
X64140000Y-36240000D01*
X64140000Y-34720000D01*
X68700000Y-34720000D01*
X68700000Y-33200000D01*
X70220000Y-33200000D01*
X70220000Y-30160000D01*
X74780000Y-30160000D01*
X74780000Y-31680000D01*
X77820000Y-31680000D01*
X77820000Y-33200000D01*
X73260000Y-33200000D01*
X73260000Y-34720000D01*
X71740000Y-34720000D01*
X71740000Y-36240000D01*
X71740000Y-37760000D01*
X77820000Y-37760000D01*
X77820000Y-36240000D01*
X80860000Y-36240000D01*
X80860000Y-37760000D01*
X82380000Y-37760000D01*
X82380000Y-39280000D01*
X79340000Y-39280000D01*
X79340000Y-37760000D01*
X77820000Y-37760000D01*
X77820000Y-39280000D01*
X71740000Y-39280000D01*
X71740000Y-37760000D01*
X68700000Y-37760000D01*
X68700000Y-36240000D01*
X65660000Y-36240000D01*
X65660000Y-37760000D01*
X64140000Y-37760000D01*
X64140000Y-39280000D01*
X62620000Y-39280000D01*
X62620000Y-40800000D01*
X61100000Y-40800000D01*
X61100000Y-39280000D01*
X61100000Y-37760000D01*
X59580000Y-37760000D01*
X59580000Y-39280000D01*
X56540000Y-39280000D01*
X56540000Y-37760000D01*
X55020000Y-37760000D01*
X55020000Y-39280000D01*
X53500000Y-39280000D01*
X53500000Y-40800000D01*
X53500000Y-42320000D01*
X55020000Y-42320000D01*
X55020000Y-40800000D01*
X56540000Y-40800000D01*
X56540000Y-42320000D01*
X55020000Y-42320000D01*
X55020000Y-45360000D01*
X58060000Y-45360000D01*
X58060000Y-42320000D01*
X59580000Y-42320000D01*
X59580000Y-43840000D01*
X59580000Y-48400000D01*
X59580000Y-49920000D01*
X62620000Y-49920000D01*
X62620000Y-51440000D01*
X64140000Y-51440000D01*
X64140000Y-52960000D01*
X61100000Y-52960000D01*
X61100000Y-51440000D01*
X56540000Y-51440000D01*
X56540000Y-48400000D01*
X56540000Y-46880000D01*
X55020000Y-46880000D01*
X55020000Y-48400000D01*
X53500000Y-48400000D01*
X53500000Y-51440000D01*
X53500000Y-52960000D01*
X53500000Y-54480000D01*
X53500000Y-56000000D01*
X55020000Y-56000000D01*
X55020000Y-54480000D01*
X58060000Y-54480000D01*
X58060000Y-56000000D01*
X59580000Y-56000000D01*
X59580000Y-54480000D01*
X64140000Y-54480000D01*
X64140000Y-56000000D01*
X73260000Y-56000000D01*
X73260000Y-54480000D01*
X65660000Y-54480000D01*
X65660000Y-52960000D01*
X67180000Y-52960000D01*
X67180000Y-51440000D01*
X68700000Y-51440000D01*
X68700000Y-52960000D01*
X70220000Y-52960000D01*
X70220000Y-51440000D01*
X71740000Y-51440000D01*
X71740000Y-52960000D01*
X73260000Y-52960000D01*
X73260000Y-51440000D01*
X71740000Y-51440000D01*
X70220000Y-51440000D01*
X68700000Y-51440000D01*
X67180000Y-51440000D01*
X65660000Y-51440000D01*
X65660000Y-49920000D01*
X68700000Y-49920000D01*
X68700000Y-48400000D01*
X68700000Y-46880000D01*
X67180000Y-46880000D01*
X67180000Y-45360000D01*
X70220000Y-45360000D01*
X70220000Y-46880000D01*
X70220000Y-48400000D01*
X71740000Y-48400000D01*
X71740000Y-49920000D01*
X73260000Y-49920000D01*
X73260000Y-48400000D01*
X73260000Y-46880000D01*
X74780000Y-46880000D01*
X74780000Y-49920000D01*
X74780000Y-51440000D01*
X74780000Y-52960000D01*
X76300000Y-52960000D01*
X76300000Y-54480000D01*
X74780000Y-54480000D01*
X74780000Y-56000000D01*
X79340000Y-56000000D01*
X79340000Y-54480000D01*
X77820000Y-54480000D01*
X77820000Y-52960000D01*
X77820000Y-51440000D01*
X79340000Y-51440000D01*
X79340000Y-49920000D01*
X79340000Y-46880000D01*
X79340000Y-45360000D01*
X80860000Y-45360000D01*
X80860000Y-46880000D01*
X80860000Y-54480000D01*
X80860000Y-56000000D01*
X91500000Y-56000000D01*
X91500000Y-54480000D01*
X91500000Y-46880000D01*
X91500000Y-45360000D01*
X80860000Y-45360000D01*
X79340000Y-45360000D01*
X79340000Y-43840000D01*
X85420000Y-43840000D01*
X85420000Y-42320000D01*
X77820000Y-42320000D01*
X77820000Y-43840000D01*
X77820000Y-45360000D01*
X76300000Y-45360000D01*
X76300000Y-46880000D01*
X74780000Y-46880000D01*
X74780000Y-45360000D01*
X74780000Y-43840000D01*
X71740000Y-43840000D01*
X71740000Y-45360000D01*
X70220000Y-45360000D01*
X67180000Y-45360000D01*
X67180000Y-43840000D01*
X68700000Y-43840000D01*
X70220000Y-43840000D01*
X71740000Y-43840000D01*
X71740000Y-42320000D01*
X70220000Y-42320000D01*
X70220000Y-43840000D01*
X68700000Y-43840000D01*
X68700000Y-42320000D01*
X65660000Y-42320000D01*
X65660000Y-40800000D01*
X64140000Y-40800000D01*
X64140000Y-42320000D01*
X62620000Y-42320000D01*
X62620000Y-40800000D01*
X64140000Y-40800000D01*
X64140000Y-39280000D01*
X65660000Y-39280000D01*
X65660000Y-40800000D01*
X70220000Y-40800000D01*
X70220000Y-39280000D01*
X71740000Y-39280000D01*
X71740000Y-40800000D01*
X73260000Y-40800000D01*
X73260000Y-42320000D01*
X74780000Y-42320000D01*
X74780000Y-40800000D01*
X83900000Y-40800000D01*
X83900000Y-39280000D01*
X83900000Y-37760000D01*
X86940000Y-37760000D01*
X86940000Y-39280000D01*
X86940000Y-40800000D01*
X86940000Y-43840000D01*
X88460000Y-43840000D01*
X88460000Y-40800000D01*
X89980000Y-40800000D01*
X89980000Y-43840000D01*
X91500000Y-43840000D01*
X91500000Y-40800000D01*
X91500000Y-39280000D01*
X91500000Y-37760000D01*
X89980000Y-37760000D01*
X89980000Y-39280000D01*
X88460000Y-39280000D01*
X88460000Y-37760000D01*
X88460000Y-36240000D01*
X80860000Y-36240000D01*
X80860000Y-34720000D01*
X82380000Y-34720000D01*
X82380000Y-33200000D01*
X80860000Y-33200000D01*
X80860000Y-34720000D01*
X79340000Y-34720000D01*
X79340000Y-33200000D01*
X79340000Y-31680000D01*
X86940000Y-31680000D01*
X86940000Y-33200000D01*
X83900000Y-33200000D01*
X83900000Y-34720000D01*
X88460000Y-34720000D01*
X88460000Y-36240000D01*
X91500000Y-36240000D01*
X91500000Y-34720000D01*
X91500000Y-30160000D01*
X89980000Y-30160000D01*
X89980000Y-34720000D01*
X88460000Y-34720000D01*
X88460000Y-33200000D01*
X88460000Y-31680000D01*
X86940000Y-31680000D01*
X86940000Y-30160000D01*
X76300000Y-30160000D01*
X76300000Y-28640000D01*
X77820000Y-28640000D01*
X79340000Y-28640000D01*
X79340000Y-27120000D01*
X77820000Y-27120000D01*
X77820000Y-28640000D01*
X76300000Y-28640000D01*
X76300000Y-27120000D01*
X74780000Y-27120000D01*
X74780000Y-28640000D01*
X73260000Y-28640000D01*
X73260000Y-27120000D01*
X71740000Y-27120000D01*
X71740000Y-28640000D01*
X70220000Y-28640000D01*
X70220000Y-27120000D01*
X68700000Y-27120000D01*
X68700000Y-28640000D01*
X67180000Y-28640000D01*
X67180000Y-25600000D01*
X65660000Y-25600000D01*
X65660000Y-28640000D01*
X65660000Y-30160000D01*
X64140000Y-30160000D01*
X64140000Y-31680000D01*
X65660000Y-31680000D01*
X65660000Y-30160000D01*
X67180000Y-30160000D01*
X67180000Y-31680000D01*
X67180000Y-33200000D01*
X64140000Y-33200000D01*
X64140000Y-34720000D01*
X62620000Y-34720000D01*
X62620000Y-33200000D01*
X62620000Y-31680000D01*
X61100000Y-31680000D01*
X61100000Y-30160000D01*
X59580000Y-30160000D01*
X59580000Y-31680000D01*
X58060000Y-31680000D01*
X58060000Y-30160000D01*
X53500000Y-30160000D01*
X49700000Y-30160000D01*
X49700000Y-19520000D01*
X53500000Y-19520000D01*
X53500000Y-27120000D01*
X53500000Y-28640000D01*
X64140000Y-28640000D01*
X64140000Y-27120000D01*
X64140000Y-24080000D01*
X65660000Y-24080000D01*
X68700000Y-24080000D01*
X68700000Y-25600000D01*
X70220000Y-25600000D01*
X70220000Y-24080000D01*
X71740000Y-24080000D01*
X71740000Y-25600000D01*
X73260000Y-25600000D01*
X73260000Y-24080000D01*
X74780000Y-24080000D01*
X76300000Y-24080000D01*
X76300000Y-25600000D01*
X76300000Y-27120000D01*
X77820000Y-27120000D01*
X77820000Y-25600000D01*
X79340000Y-25600000D01*
X80860000Y-25600000D01*
X80860000Y-27120000D01*
X80860000Y-28640000D01*
X91500000Y-28640000D01*
X91500000Y-27120000D01*
X91500000Y-19520000D01*
X91500000Y-18000000D01*
X80860000Y-18000000D01*
X80860000Y-19520000D01*
X80860000Y-25600000D01*
X79340000Y-25600000D01*
X79340000Y-24080000D01*
X76300000Y-24080000D01*
X74780000Y-24080000D01*
X74780000Y-22560000D01*
X71740000Y-22560000D01*
X71740000Y-21040000D01*
X70220000Y-21040000D01*
X70220000Y-22560000D01*
X70220000Y-24080000D01*
X68700000Y-24080000D01*
X68700000Y-22560000D01*
X65660000Y-22560000D01*
X65660000Y-24080000D01*
X64140000Y-24080000D01*
X64140000Y-21040000D01*
X65660000Y-21040000D01*
X67180000Y-21040000D01*
X67180000Y-19520000D01*
X65660000Y-19520000D01*
X65660000Y-21040000D01*
X64140000Y-21040000D01*
X64140000Y-19520000D01*
X64140000Y-18000000D01*
X68700000Y-18000000D01*
X68700000Y-19520000D01*
X68700000Y-21040000D01*
X70220000Y-21040000D01*
X70220000Y-19520000D01*
X73260000Y-19520000D01*
X73260000Y-21040000D01*
X76300000Y-21040000D01*
X76300000Y-19520000D01*
X77820000Y-19520000D01*
X77820000Y-22560000D01*
X79340000Y-22560000D01*
X79340000Y-19520000D01*
X79340000Y-18000000D01*
X76300000Y-18000000D01*
X76300000Y-19520000D01*
X73260000Y-19520000D01*
X73260000Y-18000000D01*
X68700000Y-18000000D01*
X64140000Y-18000000D01*
X53500000Y-18000000D01*
X53500000Y-19520000D01*
X49700000Y-19520000D01*
X49700000Y-14200000D01*
X95300000Y-14200000D01*
X95300000Y-19520000D01*
X95300000Y-34720000D01*
G37*
D10*
X7108333Y-15880997D02*
X7139285Y-15911950D01*
X7139285Y-15911950D02*
X7232143Y-15942902D01*
X7232143Y-15942902D02*
X7294047Y-15942902D01*
X7294047Y-15942902D02*
X7386904Y-15911950D01*
X7386904Y-15911950D02*
X7448809Y-15850045D01*
X7448809Y-15850045D02*
X7479762Y-15788140D01*
X7479762Y-15788140D02*
X7510714Y-15664330D01*
X7510714Y-15664330D02*
X7510714Y-15571473D01*
X7510714Y-15571473D02*
X7479762Y-15447664D01*
X7479762Y-15447664D02*
X7448809Y-15385759D01*
X7448809Y-15385759D02*
X7386904Y-15323854D01*
X7386904Y-15323854D02*
X7294047Y-15292902D01*
X7294047Y-15292902D02*
X7232143Y-15292902D01*
X7232143Y-15292902D02*
X7139285Y-15323854D01*
X7139285Y-15323854D02*
X7108333Y-15354807D01*
X6489285Y-15942902D02*
X6860714Y-15942902D01*
X6675000Y-15942902D02*
X6675000Y-15292902D01*
X6675000Y-15292902D02*
X6736904Y-15385759D01*
X6736904Y-15385759D02*
X6798809Y-15447664D01*
X6798809Y-15447664D02*
X6860714Y-15478616D01*
X7608333Y-22942902D02*
X7825000Y-22633378D01*
X7979762Y-22942902D02*
X7979762Y-22292902D01*
X7979762Y-22292902D02*
X7732143Y-22292902D01*
X7732143Y-22292902D02*
X7670238Y-22323854D01*
X7670238Y-22323854D02*
X7639285Y-22354807D01*
X7639285Y-22354807D02*
X7608333Y-22416711D01*
X7608333Y-22416711D02*
X7608333Y-22509569D01*
X7608333Y-22509569D02*
X7639285Y-22571473D01*
X7639285Y-22571473D02*
X7670238Y-22602426D01*
X7670238Y-22602426D02*
X7732143Y-22633378D01*
X7732143Y-22633378D02*
X7979762Y-22633378D01*
X6989285Y-22942902D02*
X7360714Y-22942902D01*
X7175000Y-22942902D02*
X7175000Y-22292902D01*
X7175000Y-22292902D02*
X7236904Y-22385759D01*
X7236904Y-22385759D02*
X7298809Y-22447664D01*
X7298809Y-22447664D02*
X7360714Y-22478616D01*
X31108333Y-32942902D02*
X31325000Y-32633378D01*
X31479762Y-32942902D02*
X31479762Y-32292902D01*
X31479762Y-32292902D02*
X31232143Y-32292902D01*
X31232143Y-32292902D02*
X31170238Y-32323854D01*
X31170238Y-32323854D02*
X31139285Y-32354807D01*
X31139285Y-32354807D02*
X31108333Y-32416711D01*
X31108333Y-32416711D02*
X31108333Y-32509569D01*
X31108333Y-32509569D02*
X31139285Y-32571473D01*
X31139285Y-32571473D02*
X31170238Y-32602426D01*
X31170238Y-32602426D02*
X31232143Y-32633378D01*
X31232143Y-32633378D02*
X31479762Y-32633378D01*
X30860714Y-32354807D02*
X30829762Y-32323854D01*
X30829762Y-32323854D02*
X30767857Y-32292902D01*
X30767857Y-32292902D02*
X30613095Y-32292902D01*
X30613095Y-32292902D02*
X30551190Y-32323854D01*
X30551190Y-32323854D02*
X30520238Y-32354807D01*
X30520238Y-32354807D02*
X30489285Y-32416711D01*
X30489285Y-32416711D02*
X30489285Y-32478616D01*
X30489285Y-32478616D02*
X30520238Y-32571473D01*
X30520238Y-32571473D02*
X30891666Y-32942902D01*
X30891666Y-32942902D02*
X30489285Y-32942902D01*
X90249999Y-128189164D02*
X90249999Y-128724878D01*
X90249999Y-128724878D02*
X90285714Y-128832021D01*
X90285714Y-128832021D02*
X90357142Y-128903450D01*
X90357142Y-128903450D02*
X90464285Y-128939164D01*
X90464285Y-128939164D02*
X90535714Y-128939164D01*
X89964285Y-128189164D02*
X89499999Y-128189164D01*
X89499999Y-128189164D02*
X89749999Y-128474878D01*
X89749999Y-128474878D02*
X89642856Y-128474878D01*
X89642856Y-128474878D02*
X89571428Y-128510592D01*
X89571428Y-128510592D02*
X89535713Y-128546307D01*
X89535713Y-128546307D02*
X89499999Y-128617735D01*
X89499999Y-128617735D02*
X89499999Y-128796307D01*
X89499999Y-128796307D02*
X89535713Y-128867735D01*
X89535713Y-128867735D02*
X89571428Y-128903450D01*
X89571428Y-128903450D02*
X89642856Y-128939164D01*
X89642856Y-128939164D02*
X89857142Y-128939164D01*
X89857142Y-128939164D02*
X89928570Y-128903450D01*
X89928570Y-128903450D02*
X89964285Y-128867735D01*
D13*
X91885714Y-134749240D02*
X91885714Y-134199240D01*
X91885714Y-134199240D02*
X91571428Y-134749240D01*
X91571428Y-134749240D02*
X91571428Y-134199240D01*
X91204762Y-134199240D02*
X91100000Y-134199240D01*
X91100000Y-134199240D02*
X91047619Y-134225430D01*
X91047619Y-134225430D02*
X90995238Y-134277811D01*
X90995238Y-134277811D02*
X90969048Y-134382573D01*
X90969048Y-134382573D02*
X90969048Y-134565907D01*
X90969048Y-134565907D02*
X90995238Y-134670669D01*
X90995238Y-134670669D02*
X91047619Y-134723050D01*
X91047619Y-134723050D02*
X91100000Y-134749240D01*
X91100000Y-134749240D02*
X91204762Y-134749240D01*
X91204762Y-134749240D02*
X91257143Y-134723050D01*
X91257143Y-134723050D02*
X91309524Y-134670669D01*
X91309524Y-134670669D02*
X91335715Y-134565907D01*
X91335715Y-134565907D02*
X91335715Y-134382573D01*
X91335715Y-134382573D02*
X91309524Y-134277811D01*
X91309524Y-134277811D02*
X91257143Y-134225430D01*
X91257143Y-134225430D02*
X91204762Y-134199240D01*
X90314286Y-134749240D02*
X90314286Y-134199240D01*
X90314286Y-134199240D02*
X90104762Y-134199240D01*
X90104762Y-134199240D02*
X90052381Y-134225430D01*
X90052381Y-134225430D02*
X90026191Y-134251621D01*
X90026191Y-134251621D02*
X90000000Y-134304002D01*
X90000000Y-134304002D02*
X90000000Y-134382573D01*
X90000000Y-134382573D02*
X90026191Y-134434954D01*
X90026191Y-134434954D02*
X90052381Y-134461145D01*
X90052381Y-134461145D02*
X90104762Y-134487335D01*
X90104762Y-134487335D02*
X90314286Y-134487335D01*
X89790477Y-134592097D02*
X89528572Y-134592097D01*
X89842858Y-134749240D02*
X89659524Y-134199240D01*
X89659524Y-134199240D02*
X89476191Y-134749240D01*
X89319048Y-134723050D02*
X89240476Y-134749240D01*
X89240476Y-134749240D02*
X89109524Y-134749240D01*
X89109524Y-134749240D02*
X89057143Y-134723050D01*
X89057143Y-134723050D02*
X89030952Y-134696859D01*
X89030952Y-134696859D02*
X89004762Y-134644478D01*
X89004762Y-134644478D02*
X89004762Y-134592097D01*
X89004762Y-134592097D02*
X89030952Y-134539716D01*
X89030952Y-134539716D02*
X89057143Y-134513526D01*
X89057143Y-134513526D02*
X89109524Y-134487335D01*
X89109524Y-134487335D02*
X89214286Y-134461145D01*
X89214286Y-134461145D02*
X89266667Y-134434954D01*
X89266667Y-134434954D02*
X89292857Y-134408764D01*
X89292857Y-134408764D02*
X89319048Y-134356383D01*
X89319048Y-134356383D02*
X89319048Y-134304002D01*
X89319048Y-134304002D02*
X89292857Y-134251621D01*
X89292857Y-134251621D02*
X89266667Y-134225430D01*
X89266667Y-134225430D02*
X89214286Y-134199240D01*
X89214286Y-134199240D02*
X89083333Y-134199240D01*
X89083333Y-134199240D02*
X89004762Y-134225430D01*
X88847619Y-134199240D02*
X88533333Y-134199240D01*
X88690476Y-134749240D02*
X88690476Y-134199240D01*
X88349999Y-134461145D02*
X88166666Y-134461145D01*
X88088094Y-134749240D02*
X88349999Y-134749240D01*
X88349999Y-134749240D02*
X88349999Y-134199240D01*
X88349999Y-134199240D02*
X88088094Y-134199240D01*
D10*
X69123333Y-132916033D02*
X69123333Y-133416033D01*
X69123333Y-133416033D02*
X69156666Y-133516033D01*
X69156666Y-133516033D02*
X69223333Y-133582700D01*
X69223333Y-133582700D02*
X69323333Y-133616033D01*
X69323333Y-133616033D02*
X69390000Y-133616033D01*
X68490000Y-133149366D02*
X68490000Y-133616033D01*
X68656667Y-132882700D02*
X68823333Y-133382700D01*
X68823333Y-133382700D02*
X68390000Y-133382700D01*
D13*
X64937143Y-132961757D02*
X64757143Y-132961757D01*
X64680000Y-133244614D02*
X64937143Y-133244614D01*
X64937143Y-133244614D02*
X64937143Y-132704614D01*
X64937143Y-132704614D02*
X64680000Y-132704614D01*
X64474286Y-133218900D02*
X64397144Y-133244614D01*
X64397144Y-133244614D02*
X64268572Y-133244614D01*
X64268572Y-133244614D02*
X64217144Y-133218900D01*
X64217144Y-133218900D02*
X64191429Y-133193185D01*
X64191429Y-133193185D02*
X64165715Y-133141757D01*
X64165715Y-133141757D02*
X64165715Y-133090328D01*
X64165715Y-133090328D02*
X64191429Y-133038900D01*
X64191429Y-133038900D02*
X64217144Y-133013185D01*
X64217144Y-133013185D02*
X64268572Y-132987471D01*
X64268572Y-132987471D02*
X64371429Y-132961757D01*
X64371429Y-132961757D02*
X64422858Y-132936042D01*
X64422858Y-132936042D02*
X64448572Y-132910328D01*
X64448572Y-132910328D02*
X64474286Y-132858900D01*
X64474286Y-132858900D02*
X64474286Y-132807471D01*
X64474286Y-132807471D02*
X64448572Y-132756042D01*
X64448572Y-132756042D02*
X64422858Y-132730328D01*
X64422858Y-132730328D02*
X64371429Y-132704614D01*
X64371429Y-132704614D02*
X64242858Y-132704614D01*
X64242858Y-132704614D02*
X64165715Y-132730328D01*
X63934286Y-133244614D02*
X63934286Y-132704614D01*
X63934286Y-132704614D02*
X63728572Y-132704614D01*
X63728572Y-132704614D02*
X63677143Y-132730328D01*
X63677143Y-132730328D02*
X63651429Y-132756042D01*
X63651429Y-132756042D02*
X63625715Y-132807471D01*
X63625715Y-132807471D02*
X63625715Y-132884614D01*
X63625715Y-132884614D02*
X63651429Y-132936042D01*
X63651429Y-132936042D02*
X63677143Y-132961757D01*
X63677143Y-132961757D02*
X63728572Y-132987471D01*
X63728572Y-132987471D02*
X63934286Y-132987471D01*
X62674286Y-133244614D02*
X62854286Y-132987471D01*
X62982857Y-133244614D02*
X62982857Y-132704614D01*
X62982857Y-132704614D02*
X62777143Y-132704614D01*
X62777143Y-132704614D02*
X62725714Y-132730328D01*
X62725714Y-132730328D02*
X62700000Y-132756042D01*
X62700000Y-132756042D02*
X62674286Y-132807471D01*
X62674286Y-132807471D02*
X62674286Y-132884614D01*
X62674286Y-132884614D02*
X62700000Y-132936042D01*
X62700000Y-132936042D02*
X62725714Y-132961757D01*
X62725714Y-132961757D02*
X62777143Y-132987471D01*
X62777143Y-132987471D02*
X62982857Y-132987471D01*
X62442857Y-133244614D02*
X62442857Y-132704614D01*
X62005714Y-132961757D02*
X61928571Y-132987471D01*
X61928571Y-132987471D02*
X61902857Y-133013185D01*
X61902857Y-133013185D02*
X61877143Y-133064614D01*
X61877143Y-133064614D02*
X61877143Y-133141757D01*
X61877143Y-133141757D02*
X61902857Y-133193185D01*
X61902857Y-133193185D02*
X61928571Y-133218900D01*
X61928571Y-133218900D02*
X61980000Y-133244614D01*
X61980000Y-133244614D02*
X62185714Y-133244614D01*
X62185714Y-133244614D02*
X62185714Y-132704614D01*
X62185714Y-132704614D02*
X62005714Y-132704614D01*
X62005714Y-132704614D02*
X61954286Y-132730328D01*
X61954286Y-132730328D02*
X61928571Y-132756042D01*
X61928571Y-132756042D02*
X61902857Y-132807471D01*
X61902857Y-132807471D02*
X61902857Y-132858900D01*
X61902857Y-132858900D02*
X61928571Y-132910328D01*
X61928571Y-132910328D02*
X61954286Y-132936042D01*
X61954286Y-132936042D02*
X62005714Y-132961757D01*
X62005714Y-132961757D02*
X62185714Y-132961757D01*
X61465714Y-132961757D02*
X61388571Y-132987471D01*
X61388571Y-132987471D02*
X61362857Y-133013185D01*
X61362857Y-133013185D02*
X61337143Y-133064614D01*
X61337143Y-133064614D02*
X61337143Y-133141757D01*
X61337143Y-133141757D02*
X61362857Y-133193185D01*
X61362857Y-133193185D02*
X61388571Y-133218900D01*
X61388571Y-133218900D02*
X61440000Y-133244614D01*
X61440000Y-133244614D02*
X61645714Y-133244614D01*
X61645714Y-133244614D02*
X61645714Y-132704614D01*
X61645714Y-132704614D02*
X61465714Y-132704614D01*
X61465714Y-132704614D02*
X61414286Y-132730328D01*
X61414286Y-132730328D02*
X61388571Y-132756042D01*
X61388571Y-132756042D02*
X61362857Y-132807471D01*
X61362857Y-132807471D02*
X61362857Y-132858900D01*
X61362857Y-132858900D02*
X61388571Y-132910328D01*
X61388571Y-132910328D02*
X61414286Y-132936042D01*
X61414286Y-132936042D02*
X61465714Y-132961757D01*
X61465714Y-132961757D02*
X61645714Y-132961757D01*
X61002857Y-132704614D02*
X60900000Y-132704614D01*
X60900000Y-132704614D02*
X60848571Y-132730328D01*
X60848571Y-132730328D02*
X60797143Y-132781757D01*
X60797143Y-132781757D02*
X60771428Y-132884614D01*
X60771428Y-132884614D02*
X60771428Y-133064614D01*
X60771428Y-133064614D02*
X60797143Y-133167471D01*
X60797143Y-133167471D02*
X60848571Y-133218900D01*
X60848571Y-133218900D02*
X60900000Y-133244614D01*
X60900000Y-133244614D02*
X61002857Y-133244614D01*
X61002857Y-133244614D02*
X61054286Y-133218900D01*
X61054286Y-133218900D02*
X61105714Y-133167471D01*
X61105714Y-133167471D02*
X61131428Y-133064614D01*
X61131428Y-133064614D02*
X61131428Y-132884614D01*
X61131428Y-132884614D02*
X61105714Y-132781757D01*
X61105714Y-132781757D02*
X61054286Y-132730328D01*
X61054286Y-132730328D02*
X61002857Y-132704614D01*
X60540000Y-133244614D02*
X60540000Y-132704614D01*
X60540000Y-132704614D02*
X60231429Y-133244614D01*
X60231429Y-133244614D02*
X60231429Y-132704614D01*
X59485714Y-133013185D02*
X59511429Y-133038900D01*
X59511429Y-133038900D02*
X59485714Y-133064614D01*
X59485714Y-133064614D02*
X59460000Y-133038900D01*
X59460000Y-133038900D02*
X59485714Y-133013185D01*
X59485714Y-133013185D02*
X59485714Y-133064614D01*
X58791428Y-132704614D02*
X58457142Y-132704614D01*
X58457142Y-132704614D02*
X58637142Y-132910328D01*
X58637142Y-132910328D02*
X58559999Y-132910328D01*
X58559999Y-132910328D02*
X58508571Y-132936042D01*
X58508571Y-132936042D02*
X58482856Y-132961757D01*
X58482856Y-132961757D02*
X58457142Y-133013185D01*
X58457142Y-133013185D02*
X58457142Y-133141757D01*
X58457142Y-133141757D02*
X58482856Y-133193185D01*
X58482856Y-133193185D02*
X58508571Y-133218900D01*
X58508571Y-133218900D02*
X58559999Y-133244614D01*
X58559999Y-133244614D02*
X58714285Y-133244614D01*
X58714285Y-133244614D02*
X58765713Y-133218900D01*
X58765713Y-133218900D02*
X58791428Y-133193185D01*
X58302856Y-132704614D02*
X58122856Y-133244614D01*
X58122856Y-133244614D02*
X57942856Y-132704614D01*
X57814285Y-132704614D02*
X57479999Y-132704614D01*
X57479999Y-132704614D02*
X57659999Y-132910328D01*
X57659999Y-132910328D02*
X57582856Y-132910328D01*
X57582856Y-132910328D02*
X57531428Y-132936042D01*
X57531428Y-132936042D02*
X57505713Y-132961757D01*
X57505713Y-132961757D02*
X57479999Y-133013185D01*
X57479999Y-133013185D02*
X57479999Y-133141757D01*
X57479999Y-133141757D02*
X57505713Y-133193185D01*
X57505713Y-133193185D02*
X57531428Y-133218900D01*
X57531428Y-133218900D02*
X57582856Y-133244614D01*
X57582856Y-133244614D02*
X57737142Y-133244614D01*
X57737142Y-133244614D02*
X57788570Y-133218900D01*
X57788570Y-133218900D02*
X57814285Y-133193185D01*
X56734284Y-132704614D02*
X56631427Y-132704614D01*
X56631427Y-132704614D02*
X56579998Y-132730328D01*
X56579998Y-132730328D02*
X56528570Y-132781757D01*
X56528570Y-132781757D02*
X56502855Y-132884614D01*
X56502855Y-132884614D02*
X56502855Y-133064614D01*
X56502855Y-133064614D02*
X56528570Y-133167471D01*
X56528570Y-133167471D02*
X56579998Y-133218900D01*
X56579998Y-133218900D02*
X56631427Y-133244614D01*
X56631427Y-133244614D02*
X56734284Y-133244614D01*
X56734284Y-133244614D02*
X56785713Y-133218900D01*
X56785713Y-133218900D02*
X56837141Y-133167471D01*
X56837141Y-133167471D02*
X56862855Y-133064614D01*
X56862855Y-133064614D02*
X56862855Y-132884614D01*
X56862855Y-132884614D02*
X56837141Y-132781757D01*
X56837141Y-132781757D02*
X56785713Y-132730328D01*
X56785713Y-132730328D02*
X56734284Y-132704614D01*
X56271427Y-133244614D02*
X56271427Y-132704614D01*
X56271427Y-132704614D02*
X55962856Y-133244614D01*
X55962856Y-133244614D02*
X55962856Y-132704614D01*
X55448570Y-133244614D02*
X55705713Y-133244614D01*
X55705713Y-133244614D02*
X55705713Y-132704614D01*
X55165713Y-132987471D02*
X55165713Y-133244614D01*
X55345713Y-132704614D02*
X55165713Y-132987471D01*
X55165713Y-132987471D02*
X54985713Y-132704614D01*
D10*
X21604999Y-98939164D02*
X21604999Y-98189164D01*
X21604999Y-98189164D02*
X21354999Y-98724878D01*
X21354999Y-98724878D02*
X21104999Y-98189164D01*
X21104999Y-98189164D02*
X21104999Y-98939164D01*
X20604999Y-98189164D02*
X20462142Y-98189164D01*
X20462142Y-98189164D02*
X20390713Y-98224878D01*
X20390713Y-98224878D02*
X20319285Y-98296307D01*
X20319285Y-98296307D02*
X20283570Y-98439164D01*
X20283570Y-98439164D02*
X20283570Y-98689164D01*
X20283570Y-98689164D02*
X20319285Y-98832021D01*
X20319285Y-98832021D02*
X20390713Y-98903450D01*
X20390713Y-98903450D02*
X20462142Y-98939164D01*
X20462142Y-98939164D02*
X20604999Y-98939164D01*
X20604999Y-98939164D02*
X20676428Y-98903450D01*
X20676428Y-98903450D02*
X20747856Y-98832021D01*
X20747856Y-98832021D02*
X20783570Y-98689164D01*
X20783570Y-98689164D02*
X20783570Y-98439164D01*
X20783570Y-98439164D02*
X20747856Y-98296307D01*
X20747856Y-98296307D02*
X20676428Y-98224878D01*
X20676428Y-98224878D02*
X20604999Y-98189164D01*
X19962142Y-98939164D02*
X19962142Y-98189164D01*
X19962142Y-98189164D02*
X19783571Y-98189164D01*
X19783571Y-98189164D02*
X19676428Y-98224878D01*
X19676428Y-98224878D02*
X19604999Y-98296307D01*
X19604999Y-98296307D02*
X19569285Y-98367735D01*
X19569285Y-98367735D02*
X19533571Y-98510592D01*
X19533571Y-98510592D02*
X19533571Y-98617735D01*
X19533571Y-98617735D02*
X19569285Y-98760592D01*
X19569285Y-98760592D02*
X19604999Y-98832021D01*
X19604999Y-98832021D02*
X19676428Y-98903450D01*
X19676428Y-98903450D02*
X19783571Y-98939164D01*
X19783571Y-98939164D02*
X19962142Y-98939164D01*
X18819285Y-98939164D02*
X19247856Y-98939164D01*
X19033571Y-98939164D02*
X19033571Y-98189164D01*
X19033571Y-98189164D02*
X19104999Y-98296307D01*
X19104999Y-98296307D02*
X19176428Y-98367735D01*
X19176428Y-98367735D02*
X19247856Y-98403450D01*
X26306189Y-101762295D02*
X26153808Y-101762295D01*
X26153808Y-101762295D02*
X26077618Y-101800390D01*
X26077618Y-101800390D02*
X26001427Y-101876580D01*
X26001427Y-101876580D02*
X25963332Y-102028961D01*
X25963332Y-102028961D02*
X25963332Y-102295628D01*
X25963332Y-102295628D02*
X26001427Y-102448009D01*
X26001427Y-102448009D02*
X26077618Y-102524200D01*
X26077618Y-102524200D02*
X26153808Y-102562295D01*
X26153808Y-102562295D02*
X26306189Y-102562295D01*
X26306189Y-102562295D02*
X26382380Y-102524200D01*
X26382380Y-102524200D02*
X26458570Y-102448009D01*
X26458570Y-102448009D02*
X26496666Y-102295628D01*
X26496666Y-102295628D02*
X26496666Y-102028961D01*
X26496666Y-102028961D02*
X26458570Y-101876580D01*
X26458570Y-101876580D02*
X26382380Y-101800390D01*
X26382380Y-101800390D02*
X26306189Y-101762295D01*
X25620475Y-102562295D02*
X25620475Y-101762295D01*
X25620475Y-101762295D02*
X25315713Y-101762295D01*
X25315713Y-101762295D02*
X25239523Y-101800390D01*
X25239523Y-101800390D02*
X25201428Y-101838485D01*
X25201428Y-101838485D02*
X25163332Y-101914676D01*
X25163332Y-101914676D02*
X25163332Y-102028961D01*
X25163332Y-102028961D02*
X25201428Y-102105152D01*
X25201428Y-102105152D02*
X25239523Y-102143247D01*
X25239523Y-102143247D02*
X25315713Y-102181342D01*
X25315713Y-102181342D02*
X25620475Y-102181342D01*
X24934761Y-101762295D02*
X24477618Y-101762295D01*
X24706190Y-102562295D02*
X24706190Y-101762295D01*
X24210951Y-102562295D02*
X24210951Y-101762295D01*
X23677618Y-101762295D02*
X23525237Y-101762295D01*
X23525237Y-101762295D02*
X23449047Y-101800390D01*
X23449047Y-101800390D02*
X23372856Y-101876580D01*
X23372856Y-101876580D02*
X23334761Y-102028961D01*
X23334761Y-102028961D02*
X23334761Y-102295628D01*
X23334761Y-102295628D02*
X23372856Y-102448009D01*
X23372856Y-102448009D02*
X23449047Y-102524200D01*
X23449047Y-102524200D02*
X23525237Y-102562295D01*
X23525237Y-102562295D02*
X23677618Y-102562295D01*
X23677618Y-102562295D02*
X23753809Y-102524200D01*
X23753809Y-102524200D02*
X23829999Y-102448009D01*
X23829999Y-102448009D02*
X23868095Y-102295628D01*
X23868095Y-102295628D02*
X23868095Y-102028961D01*
X23868095Y-102028961D02*
X23829999Y-101876580D01*
X23829999Y-101876580D02*
X23753809Y-101800390D01*
X23753809Y-101800390D02*
X23677618Y-101762295D01*
X22991904Y-102562295D02*
X22991904Y-101762295D01*
X22991904Y-101762295D02*
X22534761Y-102562295D01*
X22534761Y-102562295D02*
X22534761Y-101762295D01*
X22191905Y-102333723D02*
X21810952Y-102333723D01*
X22268095Y-102562295D02*
X22001428Y-101762295D01*
X22001428Y-101762295D02*
X21734762Y-102562295D01*
X21087143Y-102562295D02*
X21468095Y-102562295D01*
X21468095Y-102562295D02*
X21468095Y-101762295D01*
X20210952Y-102143247D02*
X19944286Y-102143247D01*
X19830000Y-102562295D02*
X20210952Y-102562295D01*
X20210952Y-102562295D02*
X20210952Y-101762295D01*
X20210952Y-101762295D02*
X19830000Y-101762295D01*
X19525238Y-102524200D02*
X19410952Y-102562295D01*
X19410952Y-102562295D02*
X19220476Y-102562295D01*
X19220476Y-102562295D02*
X19144285Y-102524200D01*
X19144285Y-102524200D02*
X19106190Y-102486104D01*
X19106190Y-102486104D02*
X19068095Y-102409914D01*
X19068095Y-102409914D02*
X19068095Y-102333723D01*
X19068095Y-102333723D02*
X19106190Y-102257533D01*
X19106190Y-102257533D02*
X19144285Y-102219438D01*
X19144285Y-102219438D02*
X19220476Y-102181342D01*
X19220476Y-102181342D02*
X19372857Y-102143247D01*
X19372857Y-102143247D02*
X19449047Y-102105152D01*
X19449047Y-102105152D02*
X19487142Y-102067057D01*
X19487142Y-102067057D02*
X19525238Y-101990866D01*
X19525238Y-101990866D02*
X19525238Y-101914676D01*
X19525238Y-101914676D02*
X19487142Y-101838485D01*
X19487142Y-101838485D02*
X19449047Y-101800390D01*
X19449047Y-101800390D02*
X19372857Y-101762295D01*
X19372857Y-101762295D02*
X19182380Y-101762295D01*
X19182380Y-101762295D02*
X19068095Y-101800390D01*
X18725237Y-102562295D02*
X18725237Y-101762295D01*
X18725237Y-101762295D02*
X18420475Y-101762295D01*
X18420475Y-101762295D02*
X18344285Y-101800390D01*
X18344285Y-101800390D02*
X18306190Y-101838485D01*
X18306190Y-101838485D02*
X18268094Y-101914676D01*
X18268094Y-101914676D02*
X18268094Y-102028961D01*
X18268094Y-102028961D02*
X18306190Y-102105152D01*
X18306190Y-102105152D02*
X18344285Y-102143247D01*
X18344285Y-102143247D02*
X18420475Y-102181342D01*
X18420475Y-102181342D02*
X18725237Y-102181342D01*
X18001428Y-101762295D02*
X17506190Y-101762295D01*
X17506190Y-101762295D02*
X17772856Y-102067057D01*
X17772856Y-102067057D02*
X17658571Y-102067057D01*
X17658571Y-102067057D02*
X17582380Y-102105152D01*
X17582380Y-102105152D02*
X17544285Y-102143247D01*
X17544285Y-102143247D02*
X17506190Y-102219438D01*
X17506190Y-102219438D02*
X17506190Y-102409914D01*
X17506190Y-102409914D02*
X17544285Y-102486104D01*
X17544285Y-102486104D02*
X17582380Y-102524200D01*
X17582380Y-102524200D02*
X17658571Y-102562295D01*
X17658571Y-102562295D02*
X17887142Y-102562295D01*
X17887142Y-102562295D02*
X17963333Y-102524200D01*
X17963333Y-102524200D02*
X18001428Y-102486104D01*
X17201428Y-101838485D02*
X17163332Y-101800390D01*
X17163332Y-101800390D02*
X17087142Y-101762295D01*
X17087142Y-101762295D02*
X16896666Y-101762295D01*
X16896666Y-101762295D02*
X16820475Y-101800390D01*
X16820475Y-101800390D02*
X16782380Y-101838485D01*
X16782380Y-101838485D02*
X16744285Y-101914676D01*
X16744285Y-101914676D02*
X16744285Y-101990866D01*
X16744285Y-101990866D02*
X16782380Y-102105152D01*
X16782380Y-102105152D02*
X17239523Y-102562295D01*
X17239523Y-102562295D02*
X16744285Y-102562295D01*
X15525237Y-102143247D02*
X15410951Y-102181342D01*
X15410951Y-102181342D02*
X15372856Y-102219438D01*
X15372856Y-102219438D02*
X15334760Y-102295628D01*
X15334760Y-102295628D02*
X15334760Y-102409914D01*
X15334760Y-102409914D02*
X15372856Y-102486104D01*
X15372856Y-102486104D02*
X15410951Y-102524200D01*
X15410951Y-102524200D02*
X15487141Y-102562295D01*
X15487141Y-102562295D02*
X15791903Y-102562295D01*
X15791903Y-102562295D02*
X15791903Y-101762295D01*
X15791903Y-101762295D02*
X15525237Y-101762295D01*
X15525237Y-101762295D02*
X15449046Y-101800390D01*
X15449046Y-101800390D02*
X15410951Y-101838485D01*
X15410951Y-101838485D02*
X15372856Y-101914676D01*
X15372856Y-101914676D02*
X15372856Y-101990866D01*
X15372856Y-101990866D02*
X15410951Y-102067057D01*
X15410951Y-102067057D02*
X15449046Y-102105152D01*
X15449046Y-102105152D02*
X15525237Y-102143247D01*
X15525237Y-102143247D02*
X15791903Y-102143247D01*
X15029999Y-102333723D02*
X14649046Y-102333723D01*
X15106189Y-102562295D02*
X14839522Y-101762295D01*
X14839522Y-101762295D02*
X14572856Y-102562295D01*
X14153808Y-102181342D02*
X14153808Y-102562295D01*
X14420475Y-101762295D02*
X14153808Y-102181342D01*
X14153808Y-102181342D02*
X13887142Y-101762295D01*
X68066666Y-75882700D02*
X68133333Y-75849366D01*
X68133333Y-75849366D02*
X68200000Y-75782700D01*
X68200000Y-75782700D02*
X68300000Y-75682700D01*
X68300000Y-75682700D02*
X68366666Y-75649366D01*
X68366666Y-75649366D02*
X68433333Y-75649366D01*
X68400000Y-75816033D02*
X68466666Y-75782700D01*
X68466666Y-75782700D02*
X68533333Y-75716033D01*
X68533333Y-75716033D02*
X68566666Y-75582700D01*
X68566666Y-75582700D02*
X68566666Y-75349366D01*
X68566666Y-75349366D02*
X68533333Y-75216033D01*
X68533333Y-75216033D02*
X68466666Y-75149366D01*
X68466666Y-75149366D02*
X68400000Y-75116033D01*
X68400000Y-75116033D02*
X68266666Y-75116033D01*
X68266666Y-75116033D02*
X68200000Y-75149366D01*
X68200000Y-75149366D02*
X68133333Y-75216033D01*
X68133333Y-75216033D02*
X68100000Y-75349366D01*
X68100000Y-75349366D02*
X68100000Y-75582700D01*
X68100000Y-75582700D02*
X68133333Y-75716033D01*
X68133333Y-75716033D02*
X68200000Y-75782700D01*
X68200000Y-75782700D02*
X68266666Y-75816033D01*
X68266666Y-75816033D02*
X68400000Y-75816033D01*
X67433333Y-75816033D02*
X67833333Y-75816033D01*
X67633333Y-75816033D02*
X67633333Y-75116033D01*
X67633333Y-75116033D02*
X67700000Y-75216033D01*
X67700000Y-75216033D02*
X67766667Y-75282700D01*
X67766667Y-75282700D02*
X67833333Y-75316033D01*
X59508333Y-73142902D02*
X59725000Y-72833378D01*
X59879762Y-73142902D02*
X59879762Y-72492902D01*
X59879762Y-72492902D02*
X59632143Y-72492902D01*
X59632143Y-72492902D02*
X59570238Y-72523854D01*
X59570238Y-72523854D02*
X59539285Y-72554807D01*
X59539285Y-72554807D02*
X59508333Y-72616711D01*
X59508333Y-72616711D02*
X59508333Y-72709569D01*
X59508333Y-72709569D02*
X59539285Y-72771473D01*
X59539285Y-72771473D02*
X59570238Y-72802426D01*
X59570238Y-72802426D02*
X59632143Y-72833378D01*
X59632143Y-72833378D02*
X59879762Y-72833378D01*
X59291666Y-72492902D02*
X58889285Y-72492902D01*
X58889285Y-72492902D02*
X59105952Y-72740521D01*
X59105952Y-72740521D02*
X59013095Y-72740521D01*
X59013095Y-72740521D02*
X58951190Y-72771473D01*
X58951190Y-72771473D02*
X58920238Y-72802426D01*
X58920238Y-72802426D02*
X58889285Y-72864330D01*
X58889285Y-72864330D02*
X58889285Y-73019092D01*
X58889285Y-73019092D02*
X58920238Y-73080997D01*
X58920238Y-73080997D02*
X58951190Y-73111950D01*
X58951190Y-73111950D02*
X59013095Y-73142902D01*
X59013095Y-73142902D02*
X59198809Y-73142902D01*
X59198809Y-73142902D02*
X59260714Y-73111950D01*
X59260714Y-73111950D02*
X59291666Y-73080997D01*
X59508333Y-70542902D02*
X59725000Y-70233378D01*
X59879762Y-70542902D02*
X59879762Y-69892902D01*
X59879762Y-69892902D02*
X59632143Y-69892902D01*
X59632143Y-69892902D02*
X59570238Y-69923854D01*
X59570238Y-69923854D02*
X59539285Y-69954807D01*
X59539285Y-69954807D02*
X59508333Y-70016711D01*
X59508333Y-70016711D02*
X59508333Y-70109569D01*
X59508333Y-70109569D02*
X59539285Y-70171473D01*
X59539285Y-70171473D02*
X59570238Y-70202426D01*
X59570238Y-70202426D02*
X59632143Y-70233378D01*
X59632143Y-70233378D02*
X59879762Y-70233378D01*
X58951190Y-70109569D02*
X58951190Y-70542902D01*
X59105952Y-69861950D02*
X59260714Y-70326235D01*
X59260714Y-70326235D02*
X58858333Y-70326235D01*
X61108333Y-96742902D02*
X61325000Y-96433378D01*
X61479762Y-96742902D02*
X61479762Y-96092902D01*
X61479762Y-96092902D02*
X61232143Y-96092902D01*
X61232143Y-96092902D02*
X61170238Y-96123854D01*
X61170238Y-96123854D02*
X61139285Y-96154807D01*
X61139285Y-96154807D02*
X61108333Y-96216711D01*
X61108333Y-96216711D02*
X61108333Y-96309569D01*
X61108333Y-96309569D02*
X61139285Y-96371473D01*
X61139285Y-96371473D02*
X61170238Y-96402426D01*
X61170238Y-96402426D02*
X61232143Y-96433378D01*
X61232143Y-96433378D02*
X61479762Y-96433378D01*
X60520238Y-96092902D02*
X60829762Y-96092902D01*
X60829762Y-96092902D02*
X60860714Y-96402426D01*
X60860714Y-96402426D02*
X60829762Y-96371473D01*
X60829762Y-96371473D02*
X60767857Y-96340521D01*
X60767857Y-96340521D02*
X60613095Y-96340521D01*
X60613095Y-96340521D02*
X60551190Y-96371473D01*
X60551190Y-96371473D02*
X60520238Y-96402426D01*
X60520238Y-96402426D02*
X60489285Y-96464330D01*
X60489285Y-96464330D02*
X60489285Y-96619092D01*
X60489285Y-96619092D02*
X60520238Y-96680997D01*
X60520238Y-96680997D02*
X60551190Y-96711950D01*
X60551190Y-96711950D02*
X60613095Y-96742902D01*
X60613095Y-96742902D02*
X60767857Y-96742902D01*
X60767857Y-96742902D02*
X60829762Y-96711950D01*
X60829762Y-96711950D02*
X60860714Y-96680997D01*
X61108333Y-94142902D02*
X61325000Y-93833378D01*
X61479762Y-94142902D02*
X61479762Y-93492902D01*
X61479762Y-93492902D02*
X61232143Y-93492902D01*
X61232143Y-93492902D02*
X61170238Y-93523854D01*
X61170238Y-93523854D02*
X61139285Y-93554807D01*
X61139285Y-93554807D02*
X61108333Y-93616711D01*
X61108333Y-93616711D02*
X61108333Y-93709569D01*
X61108333Y-93709569D02*
X61139285Y-93771473D01*
X61139285Y-93771473D02*
X61170238Y-93802426D01*
X61170238Y-93802426D02*
X61232143Y-93833378D01*
X61232143Y-93833378D02*
X61479762Y-93833378D01*
X60551190Y-93492902D02*
X60675000Y-93492902D01*
X60675000Y-93492902D02*
X60736904Y-93523854D01*
X60736904Y-93523854D02*
X60767857Y-93554807D01*
X60767857Y-93554807D02*
X60829762Y-93647664D01*
X60829762Y-93647664D02*
X60860714Y-93771473D01*
X60860714Y-93771473D02*
X60860714Y-94019092D01*
X60860714Y-94019092D02*
X60829762Y-94080997D01*
X60829762Y-94080997D02*
X60798809Y-94111950D01*
X60798809Y-94111950D02*
X60736904Y-94142902D01*
X60736904Y-94142902D02*
X60613095Y-94142902D01*
X60613095Y-94142902D02*
X60551190Y-94111950D01*
X60551190Y-94111950D02*
X60520238Y-94080997D01*
X60520238Y-94080997D02*
X60489285Y-94019092D01*
X60489285Y-94019092D02*
X60489285Y-93864330D01*
X60489285Y-93864330D02*
X60520238Y-93802426D01*
X60520238Y-93802426D02*
X60551190Y-93771473D01*
X60551190Y-93771473D02*
X60613095Y-93740521D01*
X60613095Y-93740521D02*
X60736904Y-93740521D01*
X60736904Y-93740521D02*
X60798809Y-93771473D01*
X60798809Y-93771473D02*
X60829762Y-93802426D01*
X60829762Y-93802426D02*
X60860714Y-93864330D01*
X61108333Y-91542902D02*
X61325000Y-91233378D01*
X61479762Y-91542902D02*
X61479762Y-90892902D01*
X61479762Y-90892902D02*
X61232143Y-90892902D01*
X61232143Y-90892902D02*
X61170238Y-90923854D01*
X61170238Y-90923854D02*
X61139285Y-90954807D01*
X61139285Y-90954807D02*
X61108333Y-91016711D01*
X61108333Y-91016711D02*
X61108333Y-91109569D01*
X61108333Y-91109569D02*
X61139285Y-91171473D01*
X61139285Y-91171473D02*
X61170238Y-91202426D01*
X61170238Y-91202426D02*
X61232143Y-91233378D01*
X61232143Y-91233378D02*
X61479762Y-91233378D01*
X60891666Y-90892902D02*
X60458333Y-90892902D01*
X60458333Y-90892902D02*
X60736904Y-91542902D01*
X61108333Y-88942902D02*
X61325000Y-88633378D01*
X61479762Y-88942902D02*
X61479762Y-88292902D01*
X61479762Y-88292902D02*
X61232143Y-88292902D01*
X61232143Y-88292902D02*
X61170238Y-88323854D01*
X61170238Y-88323854D02*
X61139285Y-88354807D01*
X61139285Y-88354807D02*
X61108333Y-88416711D01*
X61108333Y-88416711D02*
X61108333Y-88509569D01*
X61108333Y-88509569D02*
X61139285Y-88571473D01*
X61139285Y-88571473D02*
X61170238Y-88602426D01*
X61170238Y-88602426D02*
X61232143Y-88633378D01*
X61232143Y-88633378D02*
X61479762Y-88633378D01*
X60736904Y-88571473D02*
X60798809Y-88540521D01*
X60798809Y-88540521D02*
X60829762Y-88509569D01*
X60829762Y-88509569D02*
X60860714Y-88447664D01*
X60860714Y-88447664D02*
X60860714Y-88416711D01*
X60860714Y-88416711D02*
X60829762Y-88354807D01*
X60829762Y-88354807D02*
X60798809Y-88323854D01*
X60798809Y-88323854D02*
X60736904Y-88292902D01*
X60736904Y-88292902D02*
X60613095Y-88292902D01*
X60613095Y-88292902D02*
X60551190Y-88323854D01*
X60551190Y-88323854D02*
X60520238Y-88354807D01*
X60520238Y-88354807D02*
X60489285Y-88416711D01*
X60489285Y-88416711D02*
X60489285Y-88447664D01*
X60489285Y-88447664D02*
X60520238Y-88509569D01*
X60520238Y-88509569D02*
X60551190Y-88540521D01*
X60551190Y-88540521D02*
X60613095Y-88571473D01*
X60613095Y-88571473D02*
X60736904Y-88571473D01*
X60736904Y-88571473D02*
X60798809Y-88602426D01*
X60798809Y-88602426D02*
X60829762Y-88633378D01*
X60829762Y-88633378D02*
X60860714Y-88695283D01*
X60860714Y-88695283D02*
X60860714Y-88819092D01*
X60860714Y-88819092D02*
X60829762Y-88880997D01*
X60829762Y-88880997D02*
X60798809Y-88911950D01*
X60798809Y-88911950D02*
X60736904Y-88942902D01*
X60736904Y-88942902D02*
X60613095Y-88942902D01*
X60613095Y-88942902D02*
X60551190Y-88911950D01*
X60551190Y-88911950D02*
X60520238Y-88880997D01*
X60520238Y-88880997D02*
X60489285Y-88819092D01*
X60489285Y-88819092D02*
X60489285Y-88695283D01*
X60489285Y-88695283D02*
X60520238Y-88633378D01*
X60520238Y-88633378D02*
X60551190Y-88602426D01*
X60551190Y-88602426D02*
X60613095Y-88571473D01*
X61108333Y-86342902D02*
X61325000Y-86033378D01*
X61479762Y-86342902D02*
X61479762Y-85692902D01*
X61479762Y-85692902D02*
X61232143Y-85692902D01*
X61232143Y-85692902D02*
X61170238Y-85723854D01*
X61170238Y-85723854D02*
X61139285Y-85754807D01*
X61139285Y-85754807D02*
X61108333Y-85816711D01*
X61108333Y-85816711D02*
X61108333Y-85909569D01*
X61108333Y-85909569D02*
X61139285Y-85971473D01*
X61139285Y-85971473D02*
X61170238Y-86002426D01*
X61170238Y-86002426D02*
X61232143Y-86033378D01*
X61232143Y-86033378D02*
X61479762Y-86033378D01*
X60798809Y-86342902D02*
X60675000Y-86342902D01*
X60675000Y-86342902D02*
X60613095Y-86311950D01*
X60613095Y-86311950D02*
X60582143Y-86280997D01*
X60582143Y-86280997D02*
X60520238Y-86188140D01*
X60520238Y-86188140D02*
X60489285Y-86064330D01*
X60489285Y-86064330D02*
X60489285Y-85816711D01*
X60489285Y-85816711D02*
X60520238Y-85754807D01*
X60520238Y-85754807D02*
X60551190Y-85723854D01*
X60551190Y-85723854D02*
X60613095Y-85692902D01*
X60613095Y-85692902D02*
X60736904Y-85692902D01*
X60736904Y-85692902D02*
X60798809Y-85723854D01*
X60798809Y-85723854D02*
X60829762Y-85754807D01*
X60829762Y-85754807D02*
X60860714Y-85816711D01*
X60860714Y-85816711D02*
X60860714Y-85971473D01*
X60860714Y-85971473D02*
X60829762Y-86033378D01*
X60829762Y-86033378D02*
X60798809Y-86064330D01*
X60798809Y-86064330D02*
X60736904Y-86095283D01*
X60736904Y-86095283D02*
X60613095Y-86095283D01*
X60613095Y-86095283D02*
X60551190Y-86064330D01*
X60551190Y-86064330D02*
X60520238Y-86033378D01*
X60520238Y-86033378D02*
X60489285Y-85971473D01*
X61417857Y-83742902D02*
X61634524Y-83433378D01*
X61789286Y-83742902D02*
X61789286Y-83092902D01*
X61789286Y-83092902D02*
X61541667Y-83092902D01*
X61541667Y-83092902D02*
X61479762Y-83123854D01*
X61479762Y-83123854D02*
X61448809Y-83154807D01*
X61448809Y-83154807D02*
X61417857Y-83216711D01*
X61417857Y-83216711D02*
X61417857Y-83309569D01*
X61417857Y-83309569D02*
X61448809Y-83371473D01*
X61448809Y-83371473D02*
X61479762Y-83402426D01*
X61479762Y-83402426D02*
X61541667Y-83433378D01*
X61541667Y-83433378D02*
X61789286Y-83433378D01*
X60798809Y-83742902D02*
X61170238Y-83742902D01*
X60984524Y-83742902D02*
X60984524Y-83092902D01*
X60984524Y-83092902D02*
X61046428Y-83185759D01*
X61046428Y-83185759D02*
X61108333Y-83247664D01*
X61108333Y-83247664D02*
X61170238Y-83278616D01*
X60396428Y-83092902D02*
X60334523Y-83092902D01*
X60334523Y-83092902D02*
X60272619Y-83123854D01*
X60272619Y-83123854D02*
X60241666Y-83154807D01*
X60241666Y-83154807D02*
X60210714Y-83216711D01*
X60210714Y-83216711D02*
X60179761Y-83340521D01*
X60179761Y-83340521D02*
X60179761Y-83495283D01*
X60179761Y-83495283D02*
X60210714Y-83619092D01*
X60210714Y-83619092D02*
X60241666Y-83680997D01*
X60241666Y-83680997D02*
X60272619Y-83711950D01*
X60272619Y-83711950D02*
X60334523Y-83742902D01*
X60334523Y-83742902D02*
X60396428Y-83742902D01*
X60396428Y-83742902D02*
X60458333Y-83711950D01*
X60458333Y-83711950D02*
X60489285Y-83680997D01*
X60489285Y-83680997D02*
X60520238Y-83619092D01*
X60520238Y-83619092D02*
X60551190Y-83495283D01*
X60551190Y-83495283D02*
X60551190Y-83340521D01*
X60551190Y-83340521D02*
X60520238Y-83216711D01*
X60520238Y-83216711D02*
X60489285Y-83154807D01*
X60489285Y-83154807D02*
X60458333Y-83123854D01*
X60458333Y-83123854D02*
X60396428Y-83092902D01*
X68417857Y-89942902D02*
X68634524Y-89633378D01*
X68789286Y-89942902D02*
X68789286Y-89292902D01*
X68789286Y-89292902D02*
X68541667Y-89292902D01*
X68541667Y-89292902D02*
X68479762Y-89323854D01*
X68479762Y-89323854D02*
X68448809Y-89354807D01*
X68448809Y-89354807D02*
X68417857Y-89416711D01*
X68417857Y-89416711D02*
X68417857Y-89509569D01*
X68417857Y-89509569D02*
X68448809Y-89571473D01*
X68448809Y-89571473D02*
X68479762Y-89602426D01*
X68479762Y-89602426D02*
X68541667Y-89633378D01*
X68541667Y-89633378D02*
X68789286Y-89633378D01*
X67798809Y-89942902D02*
X68170238Y-89942902D01*
X67984524Y-89942902D02*
X67984524Y-89292902D01*
X67984524Y-89292902D02*
X68046428Y-89385759D01*
X68046428Y-89385759D02*
X68108333Y-89447664D01*
X68108333Y-89447664D02*
X68170238Y-89478616D01*
X67179761Y-89942902D02*
X67551190Y-89942902D01*
X67365476Y-89942902D02*
X67365476Y-89292902D01*
X67365476Y-89292902D02*
X67427380Y-89385759D01*
X67427380Y-89385759D02*
X67489285Y-89447664D01*
X67489285Y-89447664D02*
X67551190Y-89478616D01*
X68417857Y-84942902D02*
X68634524Y-84633378D01*
X68789286Y-84942902D02*
X68789286Y-84292902D01*
X68789286Y-84292902D02*
X68541667Y-84292902D01*
X68541667Y-84292902D02*
X68479762Y-84323854D01*
X68479762Y-84323854D02*
X68448809Y-84354807D01*
X68448809Y-84354807D02*
X68417857Y-84416711D01*
X68417857Y-84416711D02*
X68417857Y-84509569D01*
X68417857Y-84509569D02*
X68448809Y-84571473D01*
X68448809Y-84571473D02*
X68479762Y-84602426D01*
X68479762Y-84602426D02*
X68541667Y-84633378D01*
X68541667Y-84633378D02*
X68789286Y-84633378D01*
X67798809Y-84942902D02*
X68170238Y-84942902D01*
X67984524Y-84942902D02*
X67984524Y-84292902D01*
X67984524Y-84292902D02*
X68046428Y-84385759D01*
X68046428Y-84385759D02*
X68108333Y-84447664D01*
X68108333Y-84447664D02*
X68170238Y-84478616D01*
X67551190Y-84354807D02*
X67520238Y-84323854D01*
X67520238Y-84323854D02*
X67458333Y-84292902D01*
X67458333Y-84292902D02*
X67303571Y-84292902D01*
X67303571Y-84292902D02*
X67241666Y-84323854D01*
X67241666Y-84323854D02*
X67210714Y-84354807D01*
X67210714Y-84354807D02*
X67179761Y-84416711D01*
X67179761Y-84416711D02*
X67179761Y-84478616D01*
X67179761Y-84478616D02*
X67210714Y-84571473D01*
X67210714Y-84571473D02*
X67582142Y-84942902D01*
X67582142Y-84942902D02*
X67179761Y-84942902D01*
X61417857Y-81142902D02*
X61634524Y-80833378D01*
X61789286Y-81142902D02*
X61789286Y-80492902D01*
X61789286Y-80492902D02*
X61541667Y-80492902D01*
X61541667Y-80492902D02*
X61479762Y-80523854D01*
X61479762Y-80523854D02*
X61448809Y-80554807D01*
X61448809Y-80554807D02*
X61417857Y-80616711D01*
X61417857Y-80616711D02*
X61417857Y-80709569D01*
X61417857Y-80709569D02*
X61448809Y-80771473D01*
X61448809Y-80771473D02*
X61479762Y-80802426D01*
X61479762Y-80802426D02*
X61541667Y-80833378D01*
X61541667Y-80833378D02*
X61789286Y-80833378D01*
X60798809Y-81142902D02*
X61170238Y-81142902D01*
X60984524Y-81142902D02*
X60984524Y-80492902D01*
X60984524Y-80492902D02*
X61046428Y-80585759D01*
X61046428Y-80585759D02*
X61108333Y-80647664D01*
X61108333Y-80647664D02*
X61170238Y-80678616D01*
X60582142Y-80492902D02*
X60179761Y-80492902D01*
X60179761Y-80492902D02*
X60396428Y-80740521D01*
X60396428Y-80740521D02*
X60303571Y-80740521D01*
X60303571Y-80740521D02*
X60241666Y-80771473D01*
X60241666Y-80771473D02*
X60210714Y-80802426D01*
X60210714Y-80802426D02*
X60179761Y-80864330D01*
X60179761Y-80864330D02*
X60179761Y-81019092D01*
X60179761Y-81019092D02*
X60210714Y-81080997D01*
X60210714Y-81080997D02*
X60241666Y-81111950D01*
X60241666Y-81111950D02*
X60303571Y-81142902D01*
X60303571Y-81142902D02*
X60489285Y-81142902D01*
X60489285Y-81142902D02*
X60551190Y-81111950D01*
X60551190Y-81111950D02*
X60582142Y-81080997D01*
X90108333Y-68880997D02*
X90139285Y-68911950D01*
X90139285Y-68911950D02*
X90232143Y-68942902D01*
X90232143Y-68942902D02*
X90294047Y-68942902D01*
X90294047Y-68942902D02*
X90386904Y-68911950D01*
X90386904Y-68911950D02*
X90448809Y-68850045D01*
X90448809Y-68850045D02*
X90479762Y-68788140D01*
X90479762Y-68788140D02*
X90510714Y-68664330D01*
X90510714Y-68664330D02*
X90510714Y-68571473D01*
X90510714Y-68571473D02*
X90479762Y-68447664D01*
X90479762Y-68447664D02*
X90448809Y-68385759D01*
X90448809Y-68385759D02*
X90386904Y-68323854D01*
X90386904Y-68323854D02*
X90294047Y-68292902D01*
X90294047Y-68292902D02*
X90232143Y-68292902D01*
X90232143Y-68292902D02*
X90139285Y-68323854D01*
X90139285Y-68323854D02*
X90108333Y-68354807D01*
X89860714Y-68354807D02*
X89829762Y-68323854D01*
X89829762Y-68323854D02*
X89767857Y-68292902D01*
X89767857Y-68292902D02*
X89613095Y-68292902D01*
X89613095Y-68292902D02*
X89551190Y-68323854D01*
X89551190Y-68323854D02*
X89520238Y-68354807D01*
X89520238Y-68354807D02*
X89489285Y-68416711D01*
X89489285Y-68416711D02*
X89489285Y-68478616D01*
X89489285Y-68478616D02*
X89520238Y-68571473D01*
X89520238Y-68571473D02*
X89891666Y-68942902D01*
X89891666Y-68942902D02*
X89489285Y-68942902D01*
X78108333Y-71730997D02*
X78139285Y-71761950D01*
X78139285Y-71761950D02*
X78232143Y-71792902D01*
X78232143Y-71792902D02*
X78294047Y-71792902D01*
X78294047Y-71792902D02*
X78386904Y-71761950D01*
X78386904Y-71761950D02*
X78448809Y-71700045D01*
X78448809Y-71700045D02*
X78479762Y-71638140D01*
X78479762Y-71638140D02*
X78510714Y-71514330D01*
X78510714Y-71514330D02*
X78510714Y-71421473D01*
X78510714Y-71421473D02*
X78479762Y-71297664D01*
X78479762Y-71297664D02*
X78448809Y-71235759D01*
X78448809Y-71235759D02*
X78386904Y-71173854D01*
X78386904Y-71173854D02*
X78294047Y-71142902D01*
X78294047Y-71142902D02*
X78232143Y-71142902D01*
X78232143Y-71142902D02*
X78139285Y-71173854D01*
X78139285Y-71173854D02*
X78108333Y-71204807D01*
X77891666Y-71142902D02*
X77489285Y-71142902D01*
X77489285Y-71142902D02*
X77705952Y-71390521D01*
X77705952Y-71390521D02*
X77613095Y-71390521D01*
X77613095Y-71390521D02*
X77551190Y-71421473D01*
X77551190Y-71421473D02*
X77520238Y-71452426D01*
X77520238Y-71452426D02*
X77489285Y-71514330D01*
X77489285Y-71514330D02*
X77489285Y-71669092D01*
X77489285Y-71669092D02*
X77520238Y-71730997D01*
X77520238Y-71730997D02*
X77551190Y-71761950D01*
X77551190Y-71761950D02*
X77613095Y-71792902D01*
X77613095Y-71792902D02*
X77798809Y-71792902D01*
X77798809Y-71792902D02*
X77860714Y-71761950D01*
X77860714Y-71761950D02*
X77891666Y-71730997D01*
X61308333Y-78280997D02*
X61339285Y-78311950D01*
X61339285Y-78311950D02*
X61432143Y-78342902D01*
X61432143Y-78342902D02*
X61494047Y-78342902D01*
X61494047Y-78342902D02*
X61586904Y-78311950D01*
X61586904Y-78311950D02*
X61648809Y-78250045D01*
X61648809Y-78250045D02*
X61679762Y-78188140D01*
X61679762Y-78188140D02*
X61710714Y-78064330D01*
X61710714Y-78064330D02*
X61710714Y-77971473D01*
X61710714Y-77971473D02*
X61679762Y-77847664D01*
X61679762Y-77847664D02*
X61648809Y-77785759D01*
X61648809Y-77785759D02*
X61586904Y-77723854D01*
X61586904Y-77723854D02*
X61494047Y-77692902D01*
X61494047Y-77692902D02*
X61432143Y-77692902D01*
X61432143Y-77692902D02*
X61339285Y-77723854D01*
X61339285Y-77723854D02*
X61308333Y-77754807D01*
X60751190Y-77909569D02*
X60751190Y-78342902D01*
X60905952Y-77661950D02*
X61060714Y-78126235D01*
X61060714Y-78126235D02*
X60658333Y-78126235D01*
X61308333Y-107080997D02*
X61339285Y-107111950D01*
X61339285Y-107111950D02*
X61432143Y-107142902D01*
X61432143Y-107142902D02*
X61494047Y-107142902D01*
X61494047Y-107142902D02*
X61586904Y-107111950D01*
X61586904Y-107111950D02*
X61648809Y-107050045D01*
X61648809Y-107050045D02*
X61679762Y-106988140D01*
X61679762Y-106988140D02*
X61710714Y-106864330D01*
X61710714Y-106864330D02*
X61710714Y-106771473D01*
X61710714Y-106771473D02*
X61679762Y-106647664D01*
X61679762Y-106647664D02*
X61648809Y-106585759D01*
X61648809Y-106585759D02*
X61586904Y-106523854D01*
X61586904Y-106523854D02*
X61494047Y-106492902D01*
X61494047Y-106492902D02*
X61432143Y-106492902D01*
X61432143Y-106492902D02*
X61339285Y-106523854D01*
X61339285Y-106523854D02*
X61308333Y-106554807D01*
X60720238Y-106492902D02*
X61029762Y-106492902D01*
X61029762Y-106492902D02*
X61060714Y-106802426D01*
X61060714Y-106802426D02*
X61029762Y-106771473D01*
X61029762Y-106771473D02*
X60967857Y-106740521D01*
X60967857Y-106740521D02*
X60813095Y-106740521D01*
X60813095Y-106740521D02*
X60751190Y-106771473D01*
X60751190Y-106771473D02*
X60720238Y-106802426D01*
X60720238Y-106802426D02*
X60689285Y-106864330D01*
X60689285Y-106864330D02*
X60689285Y-107019092D01*
X60689285Y-107019092D02*
X60720238Y-107080997D01*
X60720238Y-107080997D02*
X60751190Y-107111950D01*
X60751190Y-107111950D02*
X60813095Y-107142902D01*
X60813095Y-107142902D02*
X60967857Y-107142902D01*
X60967857Y-107142902D02*
X61029762Y-107111950D01*
X61029762Y-107111950D02*
X61060714Y-107080997D01*
X61308333Y-109680997D02*
X61339285Y-109711950D01*
X61339285Y-109711950D02*
X61432143Y-109742902D01*
X61432143Y-109742902D02*
X61494047Y-109742902D01*
X61494047Y-109742902D02*
X61586904Y-109711950D01*
X61586904Y-109711950D02*
X61648809Y-109650045D01*
X61648809Y-109650045D02*
X61679762Y-109588140D01*
X61679762Y-109588140D02*
X61710714Y-109464330D01*
X61710714Y-109464330D02*
X61710714Y-109371473D01*
X61710714Y-109371473D02*
X61679762Y-109247664D01*
X61679762Y-109247664D02*
X61648809Y-109185759D01*
X61648809Y-109185759D02*
X61586904Y-109123854D01*
X61586904Y-109123854D02*
X61494047Y-109092902D01*
X61494047Y-109092902D02*
X61432143Y-109092902D01*
X61432143Y-109092902D02*
X61339285Y-109123854D01*
X61339285Y-109123854D02*
X61308333Y-109154807D01*
X60751190Y-109092902D02*
X60875000Y-109092902D01*
X60875000Y-109092902D02*
X60936904Y-109123854D01*
X60936904Y-109123854D02*
X60967857Y-109154807D01*
X60967857Y-109154807D02*
X61029762Y-109247664D01*
X61029762Y-109247664D02*
X61060714Y-109371473D01*
X61060714Y-109371473D02*
X61060714Y-109619092D01*
X61060714Y-109619092D02*
X61029762Y-109680997D01*
X61029762Y-109680997D02*
X60998809Y-109711950D01*
X60998809Y-109711950D02*
X60936904Y-109742902D01*
X60936904Y-109742902D02*
X60813095Y-109742902D01*
X60813095Y-109742902D02*
X60751190Y-109711950D01*
X60751190Y-109711950D02*
X60720238Y-109680997D01*
X60720238Y-109680997D02*
X60689285Y-109619092D01*
X60689285Y-109619092D02*
X60689285Y-109464330D01*
X60689285Y-109464330D02*
X60720238Y-109402426D01*
X60720238Y-109402426D02*
X60751190Y-109371473D01*
X60751190Y-109371473D02*
X60813095Y-109340521D01*
X60813095Y-109340521D02*
X60936904Y-109340521D01*
X60936904Y-109340521D02*
X60998809Y-109371473D01*
X60998809Y-109371473D02*
X61029762Y-109402426D01*
X61029762Y-109402426D02*
X61060714Y-109464330D01*
X61308333Y-112280997D02*
X61339285Y-112311950D01*
X61339285Y-112311950D02*
X61432143Y-112342902D01*
X61432143Y-112342902D02*
X61494047Y-112342902D01*
X61494047Y-112342902D02*
X61586904Y-112311950D01*
X61586904Y-112311950D02*
X61648809Y-112250045D01*
X61648809Y-112250045D02*
X61679762Y-112188140D01*
X61679762Y-112188140D02*
X61710714Y-112064330D01*
X61710714Y-112064330D02*
X61710714Y-111971473D01*
X61710714Y-111971473D02*
X61679762Y-111847664D01*
X61679762Y-111847664D02*
X61648809Y-111785759D01*
X61648809Y-111785759D02*
X61586904Y-111723854D01*
X61586904Y-111723854D02*
X61494047Y-111692902D01*
X61494047Y-111692902D02*
X61432143Y-111692902D01*
X61432143Y-111692902D02*
X61339285Y-111723854D01*
X61339285Y-111723854D02*
X61308333Y-111754807D01*
X61091666Y-111692902D02*
X60658333Y-111692902D01*
X60658333Y-111692902D02*
X60936904Y-112342902D01*
X61308333Y-114880997D02*
X61339285Y-114911950D01*
X61339285Y-114911950D02*
X61432143Y-114942902D01*
X61432143Y-114942902D02*
X61494047Y-114942902D01*
X61494047Y-114942902D02*
X61586904Y-114911950D01*
X61586904Y-114911950D02*
X61648809Y-114850045D01*
X61648809Y-114850045D02*
X61679762Y-114788140D01*
X61679762Y-114788140D02*
X61710714Y-114664330D01*
X61710714Y-114664330D02*
X61710714Y-114571473D01*
X61710714Y-114571473D02*
X61679762Y-114447664D01*
X61679762Y-114447664D02*
X61648809Y-114385759D01*
X61648809Y-114385759D02*
X61586904Y-114323854D01*
X61586904Y-114323854D02*
X61494047Y-114292902D01*
X61494047Y-114292902D02*
X61432143Y-114292902D01*
X61432143Y-114292902D02*
X61339285Y-114323854D01*
X61339285Y-114323854D02*
X61308333Y-114354807D01*
X60936904Y-114571473D02*
X60998809Y-114540521D01*
X60998809Y-114540521D02*
X61029762Y-114509569D01*
X61029762Y-114509569D02*
X61060714Y-114447664D01*
X61060714Y-114447664D02*
X61060714Y-114416711D01*
X61060714Y-114416711D02*
X61029762Y-114354807D01*
X61029762Y-114354807D02*
X60998809Y-114323854D01*
X60998809Y-114323854D02*
X60936904Y-114292902D01*
X60936904Y-114292902D02*
X60813095Y-114292902D01*
X60813095Y-114292902D02*
X60751190Y-114323854D01*
X60751190Y-114323854D02*
X60720238Y-114354807D01*
X60720238Y-114354807D02*
X60689285Y-114416711D01*
X60689285Y-114416711D02*
X60689285Y-114447664D01*
X60689285Y-114447664D02*
X60720238Y-114509569D01*
X60720238Y-114509569D02*
X60751190Y-114540521D01*
X60751190Y-114540521D02*
X60813095Y-114571473D01*
X60813095Y-114571473D02*
X60936904Y-114571473D01*
X60936904Y-114571473D02*
X60998809Y-114602426D01*
X60998809Y-114602426D02*
X61029762Y-114633378D01*
X61029762Y-114633378D02*
X61060714Y-114695283D01*
X61060714Y-114695283D02*
X61060714Y-114819092D01*
X61060714Y-114819092D02*
X61029762Y-114880997D01*
X61029762Y-114880997D02*
X60998809Y-114911950D01*
X60998809Y-114911950D02*
X60936904Y-114942902D01*
X60936904Y-114942902D02*
X60813095Y-114942902D01*
X60813095Y-114942902D02*
X60751190Y-114911950D01*
X60751190Y-114911950D02*
X60720238Y-114880997D01*
X60720238Y-114880997D02*
X60689285Y-114819092D01*
X60689285Y-114819092D02*
X60689285Y-114695283D01*
X60689285Y-114695283D02*
X60720238Y-114633378D01*
X60720238Y-114633378D02*
X60751190Y-114602426D01*
X60751190Y-114602426D02*
X60813095Y-114571473D01*
X61308333Y-117480997D02*
X61339285Y-117511950D01*
X61339285Y-117511950D02*
X61432143Y-117542902D01*
X61432143Y-117542902D02*
X61494047Y-117542902D01*
X61494047Y-117542902D02*
X61586904Y-117511950D01*
X61586904Y-117511950D02*
X61648809Y-117450045D01*
X61648809Y-117450045D02*
X61679762Y-117388140D01*
X61679762Y-117388140D02*
X61710714Y-117264330D01*
X61710714Y-117264330D02*
X61710714Y-117171473D01*
X61710714Y-117171473D02*
X61679762Y-117047664D01*
X61679762Y-117047664D02*
X61648809Y-116985759D01*
X61648809Y-116985759D02*
X61586904Y-116923854D01*
X61586904Y-116923854D02*
X61494047Y-116892902D01*
X61494047Y-116892902D02*
X61432143Y-116892902D01*
X61432143Y-116892902D02*
X61339285Y-116923854D01*
X61339285Y-116923854D02*
X61308333Y-116954807D01*
X60998809Y-117542902D02*
X60875000Y-117542902D01*
X60875000Y-117542902D02*
X60813095Y-117511950D01*
X60813095Y-117511950D02*
X60782143Y-117480997D01*
X60782143Y-117480997D02*
X60720238Y-117388140D01*
X60720238Y-117388140D02*
X60689285Y-117264330D01*
X60689285Y-117264330D02*
X60689285Y-117016711D01*
X60689285Y-117016711D02*
X60720238Y-116954807D01*
X60720238Y-116954807D02*
X60751190Y-116923854D01*
X60751190Y-116923854D02*
X60813095Y-116892902D01*
X60813095Y-116892902D02*
X60936904Y-116892902D01*
X60936904Y-116892902D02*
X60998809Y-116923854D01*
X60998809Y-116923854D02*
X61029762Y-116954807D01*
X61029762Y-116954807D02*
X61060714Y-117016711D01*
X61060714Y-117016711D02*
X61060714Y-117171473D01*
X61060714Y-117171473D02*
X61029762Y-117233378D01*
X61029762Y-117233378D02*
X60998809Y-117264330D01*
X60998809Y-117264330D02*
X60936904Y-117295283D01*
X60936904Y-117295283D02*
X60813095Y-117295283D01*
X60813095Y-117295283D02*
X60751190Y-117264330D01*
X60751190Y-117264330D02*
X60720238Y-117233378D01*
X60720238Y-117233378D02*
X60689285Y-117171473D01*
X61617857Y-120080997D02*
X61648809Y-120111950D01*
X61648809Y-120111950D02*
X61741667Y-120142902D01*
X61741667Y-120142902D02*
X61803571Y-120142902D01*
X61803571Y-120142902D02*
X61896428Y-120111950D01*
X61896428Y-120111950D02*
X61958333Y-120050045D01*
X61958333Y-120050045D02*
X61989286Y-119988140D01*
X61989286Y-119988140D02*
X62020238Y-119864330D01*
X62020238Y-119864330D02*
X62020238Y-119771473D01*
X62020238Y-119771473D02*
X61989286Y-119647664D01*
X61989286Y-119647664D02*
X61958333Y-119585759D01*
X61958333Y-119585759D02*
X61896428Y-119523854D01*
X61896428Y-119523854D02*
X61803571Y-119492902D01*
X61803571Y-119492902D02*
X61741667Y-119492902D01*
X61741667Y-119492902D02*
X61648809Y-119523854D01*
X61648809Y-119523854D02*
X61617857Y-119554807D01*
X60998809Y-120142902D02*
X61370238Y-120142902D01*
X61184524Y-120142902D02*
X61184524Y-119492902D01*
X61184524Y-119492902D02*
X61246428Y-119585759D01*
X61246428Y-119585759D02*
X61308333Y-119647664D01*
X61308333Y-119647664D02*
X61370238Y-119678616D01*
X60596428Y-119492902D02*
X60534523Y-119492902D01*
X60534523Y-119492902D02*
X60472619Y-119523854D01*
X60472619Y-119523854D02*
X60441666Y-119554807D01*
X60441666Y-119554807D02*
X60410714Y-119616711D01*
X60410714Y-119616711D02*
X60379761Y-119740521D01*
X60379761Y-119740521D02*
X60379761Y-119895283D01*
X60379761Y-119895283D02*
X60410714Y-120019092D01*
X60410714Y-120019092D02*
X60441666Y-120080997D01*
X60441666Y-120080997D02*
X60472619Y-120111950D01*
X60472619Y-120111950D02*
X60534523Y-120142902D01*
X60534523Y-120142902D02*
X60596428Y-120142902D01*
X60596428Y-120142902D02*
X60658333Y-120111950D01*
X60658333Y-120111950D02*
X60689285Y-120080997D01*
X60689285Y-120080997D02*
X60720238Y-120019092D01*
X60720238Y-120019092D02*
X60751190Y-119895283D01*
X60751190Y-119895283D02*
X60751190Y-119740521D01*
X60751190Y-119740521D02*
X60720238Y-119616711D01*
X60720238Y-119616711D02*
X60689285Y-119554807D01*
X60689285Y-119554807D02*
X60658333Y-119523854D01*
X60658333Y-119523854D02*
X60596428Y-119492902D01*
X61617857Y-122680997D02*
X61648809Y-122711950D01*
X61648809Y-122711950D02*
X61741667Y-122742902D01*
X61741667Y-122742902D02*
X61803571Y-122742902D01*
X61803571Y-122742902D02*
X61896428Y-122711950D01*
X61896428Y-122711950D02*
X61958333Y-122650045D01*
X61958333Y-122650045D02*
X61989286Y-122588140D01*
X61989286Y-122588140D02*
X62020238Y-122464330D01*
X62020238Y-122464330D02*
X62020238Y-122371473D01*
X62020238Y-122371473D02*
X61989286Y-122247664D01*
X61989286Y-122247664D02*
X61958333Y-122185759D01*
X61958333Y-122185759D02*
X61896428Y-122123854D01*
X61896428Y-122123854D02*
X61803571Y-122092902D01*
X61803571Y-122092902D02*
X61741667Y-122092902D01*
X61741667Y-122092902D02*
X61648809Y-122123854D01*
X61648809Y-122123854D02*
X61617857Y-122154807D01*
X60998809Y-122742902D02*
X61370238Y-122742902D01*
X61184524Y-122742902D02*
X61184524Y-122092902D01*
X61184524Y-122092902D02*
X61246428Y-122185759D01*
X61246428Y-122185759D02*
X61308333Y-122247664D01*
X61308333Y-122247664D02*
X61370238Y-122278616D01*
X60379761Y-122742902D02*
X60751190Y-122742902D01*
X60565476Y-122742902D02*
X60565476Y-122092902D01*
X60565476Y-122092902D02*
X60627380Y-122185759D01*
X60627380Y-122185759D02*
X60689285Y-122247664D01*
X60689285Y-122247664D02*
X60751190Y-122278616D01*
X47417857Y-123880997D02*
X47448809Y-123911950D01*
X47448809Y-123911950D02*
X47541667Y-123942902D01*
X47541667Y-123942902D02*
X47603571Y-123942902D01*
X47603571Y-123942902D02*
X47696428Y-123911950D01*
X47696428Y-123911950D02*
X47758333Y-123850045D01*
X47758333Y-123850045D02*
X47789286Y-123788140D01*
X47789286Y-123788140D02*
X47820238Y-123664330D01*
X47820238Y-123664330D02*
X47820238Y-123571473D01*
X47820238Y-123571473D02*
X47789286Y-123447664D01*
X47789286Y-123447664D02*
X47758333Y-123385759D01*
X47758333Y-123385759D02*
X47696428Y-123323854D01*
X47696428Y-123323854D02*
X47603571Y-123292902D01*
X47603571Y-123292902D02*
X47541667Y-123292902D01*
X47541667Y-123292902D02*
X47448809Y-123323854D01*
X47448809Y-123323854D02*
X47417857Y-123354807D01*
X46798809Y-123942902D02*
X47170238Y-123942902D01*
X46984524Y-123942902D02*
X46984524Y-123292902D01*
X46984524Y-123292902D02*
X47046428Y-123385759D01*
X47046428Y-123385759D02*
X47108333Y-123447664D01*
X47108333Y-123447664D02*
X47170238Y-123478616D01*
X46551190Y-123354807D02*
X46520238Y-123323854D01*
X46520238Y-123323854D02*
X46458333Y-123292902D01*
X46458333Y-123292902D02*
X46303571Y-123292902D01*
X46303571Y-123292902D02*
X46241666Y-123323854D01*
X46241666Y-123323854D02*
X46210714Y-123354807D01*
X46210714Y-123354807D02*
X46179761Y-123416711D01*
X46179761Y-123416711D02*
X46179761Y-123478616D01*
X46179761Y-123478616D02*
X46210714Y-123571473D01*
X46210714Y-123571473D02*
X46582142Y-123942902D01*
X46582142Y-123942902D02*
X46179761Y-123942902D01*
X47417857Y-120380997D02*
X47448809Y-120411950D01*
X47448809Y-120411950D02*
X47541667Y-120442902D01*
X47541667Y-120442902D02*
X47603571Y-120442902D01*
X47603571Y-120442902D02*
X47696428Y-120411950D01*
X47696428Y-120411950D02*
X47758333Y-120350045D01*
X47758333Y-120350045D02*
X47789286Y-120288140D01*
X47789286Y-120288140D02*
X47820238Y-120164330D01*
X47820238Y-120164330D02*
X47820238Y-120071473D01*
X47820238Y-120071473D02*
X47789286Y-119947664D01*
X47789286Y-119947664D02*
X47758333Y-119885759D01*
X47758333Y-119885759D02*
X47696428Y-119823854D01*
X47696428Y-119823854D02*
X47603571Y-119792902D01*
X47603571Y-119792902D02*
X47541667Y-119792902D01*
X47541667Y-119792902D02*
X47448809Y-119823854D01*
X47448809Y-119823854D02*
X47417857Y-119854807D01*
X46798809Y-120442902D02*
X47170238Y-120442902D01*
X46984524Y-120442902D02*
X46984524Y-119792902D01*
X46984524Y-119792902D02*
X47046428Y-119885759D01*
X47046428Y-119885759D02*
X47108333Y-119947664D01*
X47108333Y-119947664D02*
X47170238Y-119978616D01*
X46582142Y-119792902D02*
X46179761Y-119792902D01*
X46179761Y-119792902D02*
X46396428Y-120040521D01*
X46396428Y-120040521D02*
X46303571Y-120040521D01*
X46303571Y-120040521D02*
X46241666Y-120071473D01*
X46241666Y-120071473D02*
X46210714Y-120102426D01*
X46210714Y-120102426D02*
X46179761Y-120164330D01*
X46179761Y-120164330D02*
X46179761Y-120319092D01*
X46179761Y-120319092D02*
X46210714Y-120380997D01*
X46210714Y-120380997D02*
X46241666Y-120411950D01*
X46241666Y-120411950D02*
X46303571Y-120442902D01*
X46303571Y-120442902D02*
X46489285Y-120442902D01*
X46489285Y-120442902D02*
X46551190Y-120411950D01*
X46551190Y-120411950D02*
X46582142Y-120380997D01*
X61617857Y-99280997D02*
X61648809Y-99311950D01*
X61648809Y-99311950D02*
X61741667Y-99342902D01*
X61741667Y-99342902D02*
X61803571Y-99342902D01*
X61803571Y-99342902D02*
X61896428Y-99311950D01*
X61896428Y-99311950D02*
X61958333Y-99250045D01*
X61958333Y-99250045D02*
X61989286Y-99188140D01*
X61989286Y-99188140D02*
X62020238Y-99064330D01*
X62020238Y-99064330D02*
X62020238Y-98971473D01*
X62020238Y-98971473D02*
X61989286Y-98847664D01*
X61989286Y-98847664D02*
X61958333Y-98785759D01*
X61958333Y-98785759D02*
X61896428Y-98723854D01*
X61896428Y-98723854D02*
X61803571Y-98692902D01*
X61803571Y-98692902D02*
X61741667Y-98692902D01*
X61741667Y-98692902D02*
X61648809Y-98723854D01*
X61648809Y-98723854D02*
X61617857Y-98754807D01*
X60998809Y-99342902D02*
X61370238Y-99342902D01*
X61184524Y-99342902D02*
X61184524Y-98692902D01*
X61184524Y-98692902D02*
X61246428Y-98785759D01*
X61246428Y-98785759D02*
X61308333Y-98847664D01*
X61308333Y-98847664D02*
X61370238Y-98878616D01*
X60441666Y-98909569D02*
X60441666Y-99342902D01*
X60596428Y-98661950D02*
X60751190Y-99126235D01*
X60751190Y-99126235D02*
X60348809Y-99126235D01*
X61617857Y-75680997D02*
X61648809Y-75711950D01*
X61648809Y-75711950D02*
X61741667Y-75742902D01*
X61741667Y-75742902D02*
X61803571Y-75742902D01*
X61803571Y-75742902D02*
X61896428Y-75711950D01*
X61896428Y-75711950D02*
X61958333Y-75650045D01*
X61958333Y-75650045D02*
X61989286Y-75588140D01*
X61989286Y-75588140D02*
X62020238Y-75464330D01*
X62020238Y-75464330D02*
X62020238Y-75371473D01*
X62020238Y-75371473D02*
X61989286Y-75247664D01*
X61989286Y-75247664D02*
X61958333Y-75185759D01*
X61958333Y-75185759D02*
X61896428Y-75123854D01*
X61896428Y-75123854D02*
X61803571Y-75092902D01*
X61803571Y-75092902D02*
X61741667Y-75092902D01*
X61741667Y-75092902D02*
X61648809Y-75123854D01*
X61648809Y-75123854D02*
X61617857Y-75154807D01*
X60998809Y-75742902D02*
X61370238Y-75742902D01*
X61184524Y-75742902D02*
X61184524Y-75092902D01*
X61184524Y-75092902D02*
X61246428Y-75185759D01*
X61246428Y-75185759D02*
X61308333Y-75247664D01*
X61308333Y-75247664D02*
X61370238Y-75278616D01*
X60410714Y-75092902D02*
X60720238Y-75092902D01*
X60720238Y-75092902D02*
X60751190Y-75402426D01*
X60751190Y-75402426D02*
X60720238Y-75371473D01*
X60720238Y-75371473D02*
X60658333Y-75340521D01*
X60658333Y-75340521D02*
X60503571Y-75340521D01*
X60503571Y-75340521D02*
X60441666Y-75371473D01*
X60441666Y-75371473D02*
X60410714Y-75402426D01*
X60410714Y-75402426D02*
X60379761Y-75464330D01*
X60379761Y-75464330D02*
X60379761Y-75619092D01*
X60379761Y-75619092D02*
X60410714Y-75680997D01*
X60410714Y-75680997D02*
X60441666Y-75711950D01*
X60441666Y-75711950D02*
X60503571Y-75742902D01*
X60503571Y-75742902D02*
X60658333Y-75742902D01*
X60658333Y-75742902D02*
X60720238Y-75711950D01*
X60720238Y-75711950D02*
X60751190Y-75680997D01*
X73108333Y-67792902D02*
X73417857Y-67792902D01*
X73417857Y-67792902D02*
X73417857Y-67142902D01*
X72922619Y-67204807D02*
X72891667Y-67173854D01*
X72891667Y-67173854D02*
X72829762Y-67142902D01*
X72829762Y-67142902D02*
X72675000Y-67142902D01*
X72675000Y-67142902D02*
X72613095Y-67173854D01*
X72613095Y-67173854D02*
X72582143Y-67204807D01*
X72582143Y-67204807D02*
X72551190Y-67266711D01*
X72551190Y-67266711D02*
X72551190Y-67328616D01*
X72551190Y-67328616D02*
X72582143Y-67421473D01*
X72582143Y-67421473D02*
X72953571Y-67792902D01*
X72953571Y-67792902D02*
X72551190Y-67792902D01*
X84479762Y-71692902D02*
X84479762Y-71042902D01*
X84479762Y-71042902D02*
X84325000Y-71042902D01*
X84325000Y-71042902D02*
X84232143Y-71073854D01*
X84232143Y-71073854D02*
X84170238Y-71135759D01*
X84170238Y-71135759D02*
X84139285Y-71197664D01*
X84139285Y-71197664D02*
X84108333Y-71321473D01*
X84108333Y-71321473D02*
X84108333Y-71414330D01*
X84108333Y-71414330D02*
X84139285Y-71538140D01*
X84139285Y-71538140D02*
X84170238Y-71600045D01*
X84170238Y-71600045D02*
X84232143Y-71661950D01*
X84232143Y-71661950D02*
X84325000Y-71692902D01*
X84325000Y-71692902D02*
X84479762Y-71692902D01*
X83489285Y-71692902D02*
X83860714Y-71692902D01*
X83675000Y-71692902D02*
X83675000Y-71042902D01*
X83675000Y-71042902D02*
X83736904Y-71135759D01*
X83736904Y-71135759D02*
X83798809Y-71197664D01*
X83798809Y-71197664D02*
X83860714Y-71228616D01*
X75479762Y-119892902D02*
X75479762Y-119242902D01*
X75479762Y-119242902D02*
X75325000Y-119242902D01*
X75325000Y-119242902D02*
X75232143Y-119273854D01*
X75232143Y-119273854D02*
X75170238Y-119335759D01*
X75170238Y-119335759D02*
X75139285Y-119397664D01*
X75139285Y-119397664D02*
X75108333Y-119521473D01*
X75108333Y-119521473D02*
X75108333Y-119614330D01*
X75108333Y-119614330D02*
X75139285Y-119738140D01*
X75139285Y-119738140D02*
X75170238Y-119800045D01*
X75170238Y-119800045D02*
X75232143Y-119861950D01*
X75232143Y-119861950D02*
X75325000Y-119892902D01*
X75325000Y-119892902D02*
X75479762Y-119892902D01*
X74860714Y-119304807D02*
X74829762Y-119273854D01*
X74829762Y-119273854D02*
X74767857Y-119242902D01*
X74767857Y-119242902D02*
X74613095Y-119242902D01*
X74613095Y-119242902D02*
X74551190Y-119273854D01*
X74551190Y-119273854D02*
X74520238Y-119304807D01*
X74520238Y-119304807D02*
X74489285Y-119366711D01*
X74489285Y-119366711D02*
X74489285Y-119428616D01*
X74489285Y-119428616D02*
X74520238Y-119521473D01*
X74520238Y-119521473D02*
X74891666Y-119892902D01*
X74891666Y-119892902D02*
X74489285Y-119892902D01*
X75479762Y-114692902D02*
X75479762Y-114042902D01*
X75479762Y-114042902D02*
X75325000Y-114042902D01*
X75325000Y-114042902D02*
X75232143Y-114073854D01*
X75232143Y-114073854D02*
X75170238Y-114135759D01*
X75170238Y-114135759D02*
X75139285Y-114197664D01*
X75139285Y-114197664D02*
X75108333Y-114321473D01*
X75108333Y-114321473D02*
X75108333Y-114414330D01*
X75108333Y-114414330D02*
X75139285Y-114538140D01*
X75139285Y-114538140D02*
X75170238Y-114600045D01*
X75170238Y-114600045D02*
X75232143Y-114661950D01*
X75232143Y-114661950D02*
X75325000Y-114692902D01*
X75325000Y-114692902D02*
X75479762Y-114692902D01*
X74891666Y-114042902D02*
X74489285Y-114042902D01*
X74489285Y-114042902D02*
X74705952Y-114290521D01*
X74705952Y-114290521D02*
X74613095Y-114290521D01*
X74613095Y-114290521D02*
X74551190Y-114321473D01*
X74551190Y-114321473D02*
X74520238Y-114352426D01*
X74520238Y-114352426D02*
X74489285Y-114414330D01*
X74489285Y-114414330D02*
X74489285Y-114569092D01*
X74489285Y-114569092D02*
X74520238Y-114630997D01*
X74520238Y-114630997D02*
X74551190Y-114661950D01*
X74551190Y-114661950D02*
X74613095Y-114692902D01*
X74613095Y-114692902D02*
X74798809Y-114692902D01*
X74798809Y-114692902D02*
X74860714Y-114661950D01*
X74860714Y-114661950D02*
X74891666Y-114630997D01*
%TO.C,C1*%
D14*
X5350000Y-16100000D02*
X8650000Y-16100000D01*
X8650000Y-17900000D01*
X5350000Y-17900000D01*
X5350000Y-16100000D01*
%TO.C,R1*%
X6400000Y-23300000D02*
X8600000Y-23300000D01*
X8600000Y-24700000D01*
X6400000Y-24700000D01*
X6400000Y-23300000D01*
%TO.C,R2*%
X29900000Y-33300000D02*
X32100000Y-33300000D01*
X32100000Y-34700000D01*
X29900000Y-34700000D01*
X29900000Y-33300000D01*
%TO.C,J3*%
X86900000Y-130750000D02*
X88220000Y-130750000D01*
X88700000Y-130750000D02*
X90020000Y-130750000D01*
X90500000Y-130750000D02*
X91820000Y-130750000D01*
X92300000Y-130750000D02*
X93100000Y-130750000D01*
X93100000Y-130750000D02*
X93100000Y-132070000D01*
X93100000Y-132550000D02*
X93100000Y-133250000D01*
X93100000Y-133250000D02*
X91780000Y-133250000D01*
X91300000Y-133250000D02*
X89980000Y-133250000D01*
X89500000Y-133250000D02*
X88180000Y-133250000D01*
X87700000Y-133250000D02*
X86900000Y-133250000D01*
X86900000Y-133250000D02*
X86900000Y-131930000D01*
X86900000Y-131450000D02*
X86900000Y-130750000D01*
%TO.C,J4*%
X58800000Y-134150000D02*
X78950000Y-134150000D01*
X78950000Y-136850000D01*
X58800000Y-136850000D01*
X58800000Y-134150000D01*
%TO.C,MOD1*%
D11*
X18030000Y-142925000D02*
X20230000Y-144125000D01*
X22430000Y-142925000D02*
X20230000Y-144125000D01*
D15*
X5500000Y-95875000D02*
X7700000Y-95875000D01*
X8500000Y-95875000D02*
X10700000Y-95875000D01*
X11500000Y-95875000D02*
X13700000Y-95875000D01*
X14500000Y-95875000D02*
X16700000Y-95875000D01*
X17500000Y-95875000D02*
X19700000Y-95875000D01*
X20500000Y-95875000D02*
X22700000Y-95875000D01*
X23500000Y-95875000D02*
X25700000Y-95875000D01*
X26500000Y-95875000D02*
X28700000Y-95875000D01*
X29500000Y-95875000D02*
X31700000Y-95875000D01*
X32500000Y-95875000D02*
X34700000Y-95875000D01*
X34960000Y-95875000D02*
X34960000Y-98075000D01*
X34960000Y-98875000D02*
X34960000Y-101075000D01*
X34960000Y-101875000D02*
X34960000Y-104075000D01*
X34960000Y-104875000D02*
X34960000Y-107075000D01*
X34960000Y-107875000D02*
X34960000Y-110075000D01*
X34960000Y-110875000D02*
X34960000Y-113075000D01*
X34960000Y-113875000D02*
X34960000Y-116075000D01*
X34960000Y-116875000D02*
X34960000Y-119075000D01*
X34960000Y-119875000D02*
X34960000Y-122075000D01*
X34960000Y-122875000D02*
X34960000Y-125075000D01*
X34960000Y-125875000D02*
X34960000Y-128075000D01*
X34960000Y-128875000D02*
X34960000Y-131075000D01*
X34960000Y-131875000D02*
X34960000Y-134075000D01*
X34960000Y-134875000D02*
X34960000Y-137075000D01*
X34960000Y-137875000D02*
X34960000Y-140075000D01*
X34960000Y-140875000D02*
X34960000Y-143075000D01*
X34960000Y-143875000D02*
X34960000Y-144125000D01*
X34960000Y-144125000D02*
X32760000Y-144125000D01*
X31960000Y-144125000D02*
X29760000Y-144125000D01*
X28960000Y-144125000D02*
X26760000Y-144125000D01*
X25960000Y-144125000D02*
X23760000Y-144125000D01*
X22960000Y-144125000D02*
X20760000Y-144125000D01*
X19960000Y-144125000D02*
X17760000Y-144125000D01*
X16960000Y-144125000D02*
X14760000Y-144125000D01*
X13960000Y-144125000D02*
X11760000Y-144125000D01*
X10960000Y-144125000D02*
X8760000Y-144125000D01*
X7960000Y-144125000D02*
X5760000Y-144125000D01*
X5500000Y-144125000D02*
X5500000Y-141925000D01*
X5500000Y-141125000D02*
X5500000Y-138925000D01*
X5500000Y-138125000D02*
X5500000Y-135925000D01*
X5500000Y-135125000D02*
X5500000Y-132925000D01*
X5500000Y-132125000D02*
X5500000Y-129925000D01*
X5500000Y-129125000D02*
X5500000Y-126925000D01*
X5500000Y-126125000D02*
X5500000Y-123925000D01*
X5500000Y-123125000D02*
X5500000Y-120925000D01*
X5500000Y-120125000D02*
X5500000Y-117925000D01*
X5500000Y-117125000D02*
X5500000Y-114925000D01*
X5500000Y-114125000D02*
X5500000Y-111925000D01*
X5500000Y-111125000D02*
X5500000Y-108925000D01*
X5500000Y-108125000D02*
X5500000Y-105925000D01*
X5500000Y-105125000D02*
X5500000Y-102925000D01*
X5500000Y-102125000D02*
X5500000Y-99925000D01*
X5500000Y-99125000D02*
X5500000Y-96925000D01*
X5500000Y-96125000D02*
X5500000Y-95875000D01*
%TO.C,Q1*%
D14*
X66500000Y-71500000D02*
X69500000Y-71500000D01*
X69500000Y-74500000D01*
X66500000Y-74500000D01*
X66500000Y-71500000D01*
D16*
X66370000Y-74550000D02*
G75*
G02*
X65930000Y-74550000I-220000J0D01*
G01*
X65930000Y-74550000D02*
G75*
G02*
X66370000Y-74550000I220000J0D01*
G01*
%TO.C,R3*%
D14*
X58500000Y-73700000D02*
X60300000Y-73700000D01*
X60300000Y-74700000D01*
X58500000Y-74700000D01*
X58500000Y-73700000D01*
%TO.C,R4*%
X58500000Y-71100000D02*
X60300000Y-71100000D01*
X60300000Y-72100000D01*
X58500000Y-72100000D01*
X58500000Y-71100000D01*
%TO.C,R5*%
X60100000Y-97300000D02*
X61900000Y-97300000D01*
X61900000Y-98300000D01*
X60100000Y-98300000D01*
X60100000Y-97300000D01*
%TO.C,R6*%
X60100000Y-94700000D02*
X61900000Y-94700000D01*
X61900000Y-95700000D01*
X60100000Y-95700000D01*
X60100000Y-94700000D01*
%TO.C,R7*%
X60100000Y-92100000D02*
X61900000Y-92100000D01*
X61900000Y-93100000D01*
X60100000Y-93100000D01*
X60100000Y-92100000D01*
%TO.C,R8*%
X60100000Y-89500000D02*
X61900000Y-89500000D01*
X61900000Y-90500000D01*
X60100000Y-90500000D01*
X60100000Y-89500000D01*
%TO.C,R9*%
X60100000Y-86900000D02*
X61900000Y-86900000D01*
X61900000Y-87900000D01*
X60100000Y-87900000D01*
X60100000Y-86900000D01*
%TO.C,R10*%
X60100000Y-84300000D02*
X61900000Y-84300000D01*
X61900000Y-85300000D01*
X60100000Y-85300000D01*
X60100000Y-84300000D01*
%TO.C,R11*%
X67100000Y-90500000D02*
X68900000Y-90500000D01*
X68900000Y-91500000D01*
X67100000Y-91500000D01*
X67100000Y-90500000D01*
%TO.C,R12*%
X67100000Y-85500000D02*
X68900000Y-85500000D01*
X68900000Y-86500000D01*
X67100000Y-86500000D01*
X67100000Y-85500000D01*
%TO.C,R13*%
X60100000Y-81700000D02*
X61900000Y-81700000D01*
X61900000Y-82700000D01*
X60100000Y-82700000D01*
X60100000Y-81700000D01*
%TO.C,C2*%
X88350000Y-69100000D02*
X91650000Y-69100000D01*
X91650000Y-70900000D01*
X88350000Y-70900000D01*
X88350000Y-69100000D01*
%TO.C,C3*%
X76350000Y-72100000D02*
X79650000Y-72100000D01*
X79650000Y-73900000D01*
X76350000Y-73900000D01*
X76350000Y-72100000D01*
%TO.C,C4*%
X60100000Y-78700000D02*
X62300000Y-78700000D01*
X62300000Y-80100000D01*
X60100000Y-80100000D01*
X60100000Y-78700000D01*
%TO.C,C5*%
X60100000Y-107500000D02*
X62300000Y-107500000D01*
X62300000Y-108900000D01*
X60100000Y-108900000D01*
X60100000Y-107500000D01*
%TO.C,C6*%
X60100000Y-110100000D02*
X62300000Y-110100000D01*
X62300000Y-111500000D01*
X60100000Y-111500000D01*
X60100000Y-110100000D01*
%TO.C,C7*%
X60100000Y-112700000D02*
X62300000Y-112700000D01*
X62300000Y-114100000D01*
X60100000Y-114100000D01*
X60100000Y-112700000D01*
%TO.C,C8*%
X60100000Y-115300000D02*
X62300000Y-115300000D01*
X62300000Y-116700000D01*
X60100000Y-116700000D01*
X60100000Y-115300000D01*
%TO.C,C9*%
X60100000Y-117900000D02*
X62300000Y-117900000D01*
X62300000Y-119300000D01*
X60100000Y-119300000D01*
X60100000Y-117900000D01*
%TO.C,C10*%
X60100000Y-120500000D02*
X62300000Y-120500000D01*
X62300000Y-121900000D01*
X60100000Y-121900000D01*
X60100000Y-120500000D01*
%TO.C,C11*%
X60100000Y-123100000D02*
X62300000Y-123100000D01*
X62300000Y-124500000D01*
X60100000Y-124500000D01*
X60100000Y-123100000D01*
%TO.C,C12*%
X45900000Y-124300000D02*
X48100000Y-124300000D01*
X48100000Y-125700000D01*
X45900000Y-125700000D01*
X45900000Y-124300000D01*
%TO.C,C13*%
X46100000Y-121000000D02*
X47900000Y-121000000D01*
X47900000Y-122000000D01*
X46100000Y-122000000D01*
X46100000Y-121000000D01*
%TO.C,C14*%
X60100000Y-99700000D02*
X62300000Y-99700000D01*
X62300000Y-101100000D01*
X60100000Y-101100000D01*
X60100000Y-99700000D01*
%TO.C,C15*%
X60100000Y-76100000D02*
X62300000Y-76100000D01*
X62300000Y-77500000D01*
X60100000Y-77500000D01*
X60100000Y-76100000D01*
%TO.C,L2*%
X71300000Y-68150000D02*
X74700000Y-68150000D01*
X74700000Y-70850000D01*
X71300000Y-70850000D01*
X71300000Y-68150000D01*
%TO.C,D1*%
D11*
X84750000Y-72100000D02*
X84750000Y-73900000D01*
D14*
X82000000Y-72000000D02*
X86000000Y-72000000D01*
X86000000Y-74000000D01*
X82000000Y-74000000D01*
X82000000Y-72000000D01*
%TO.C,D2*%
D11*
X75750000Y-120300000D02*
X75750000Y-122100000D01*
D14*
X73000000Y-120200000D02*
X77000000Y-120200000D01*
X77000000Y-122200000D01*
X73000000Y-122200000D01*
X73000000Y-120200000D01*
%TO.C,D3*%
D11*
X75750000Y-115100000D02*
X75750000Y-116900000D01*
D14*
X73000000Y-115000000D02*
X77000000Y-115000000D01*
X77000000Y-117000000D01*
X73000000Y-117000000D01*
X73000000Y-115000000D01*
%TD*%
M02*
