%TF.GenerationSoftware,KiCad,Pcbnew,10.0.4*%
%TF.CreationDate,2026-07-15T23:56:32+01:00*%
%TF.ProjectId,vegas26-badge,76656761-7332-4362-9d62-616467652e6b,rev?*%
%TF.SameCoordinates,Original*%
%TF.FileFunction,Legend,Top*%
%TF.FilePolarity,Positive*%
%FSLAX46Y46*%
G04 Gerber Fmt 4.6, Leading zero omitted, Abs format (unit mm)*
G04 Created by KiCad (PCBNEW 10.0.4) date 2026-07-15 23:56:32*
%MOMM*%
%LPD*%
G01*
G04 APERTURE LIST*
%ADD10C,0.000000*%
%ADD11C,0.104999*%
%ADD12C,0.150000*%
%ADD13C,0.160000*%
%ADD14C,0.250000*%
%ADD15C,0.080000*%
G04 APERTURE END LIST*
D10*
G36*
X42671001Y-46216000D02*
G01*
X39899001Y-46216000D01*
X39899001Y-31516000D01*
X42671001Y-31516000D01*
X42671001Y-46216000D01*
G37*
D11*
X74129000Y-46163500D02*
X70427748Y-46163500D01*
X70427748Y-42462250D01*
X74129000Y-42462250D01*
X74129000Y-46163500D01*
D10*
G36*
X38555002Y-46216000D02*
G01*
X35699000Y-46216000D01*
X34901001Y-42982000D01*
X29651001Y-42982000D01*
X28853001Y-46216000D01*
X25997001Y-46216000D01*
X27520521Y-40420000D01*
X30302001Y-40420000D01*
X34250000Y-40420000D01*
X32465001Y-33259000D01*
X32087001Y-33259000D01*
X30302001Y-40420000D01*
X27520521Y-40420000D01*
X29861001Y-31516000D01*
X34691000Y-31516000D01*
X38555002Y-46216000D01*
G37*
G36*
X64551647Y-31517764D02*
G01*
X64715587Y-31523055D01*
X64876819Y-31531873D01*
X65035345Y-31544219D01*
X65191163Y-31560092D01*
X65344274Y-31579492D01*
X65494679Y-31602420D01*
X65642376Y-31628875D01*
X65787367Y-31658858D01*
X65929650Y-31692367D01*
X66069226Y-31729404D01*
X66206095Y-31769969D01*
X66340257Y-31814061D01*
X66471712Y-31861680D01*
X66600460Y-31912826D01*
X66726501Y-31967500D01*
X66849465Y-32025414D01*
X66968984Y-32086281D01*
X67085058Y-32150101D01*
X67197687Y-32216875D01*
X67306871Y-32286601D01*
X67412609Y-32359281D01*
X67514902Y-32434914D01*
X67613750Y-32513500D01*
X67709152Y-32595039D01*
X67801109Y-32679531D01*
X67889621Y-32766977D01*
X67974688Y-32857375D01*
X68056309Y-32950727D01*
X68134485Y-33047031D01*
X68209215Y-33146289D01*
X68280500Y-33248500D01*
X68347889Y-33353459D01*
X68410929Y-33460961D01*
X68469623Y-33571006D01*
X68523968Y-33683593D01*
X68573966Y-33798724D01*
X68619616Y-33916398D01*
X68660919Y-34036615D01*
X68697874Y-34159375D01*
X68730481Y-34284677D01*
X68758741Y-34412523D01*
X68782653Y-34542912D01*
X68802218Y-34675843D01*
X68817434Y-34811318D01*
X68828303Y-34949336D01*
X68834825Y-35089896D01*
X68836999Y-35233000D01*
X68836999Y-35443000D01*
X68835522Y-35567564D01*
X68831093Y-35689258D01*
X68823710Y-35808080D01*
X68813374Y-35924031D01*
X68800085Y-36037111D01*
X68783843Y-36147320D01*
X68764648Y-36254658D01*
X68742500Y-36359125D01*
X68717398Y-36460720D01*
X68689344Y-36559445D01*
X68658336Y-36655299D01*
X68624376Y-36748281D01*
X68587462Y-36838392D01*
X68547595Y-36925632D01*
X68504775Y-37010002D01*
X68459002Y-37091500D01*
X68411219Y-37170414D01*
X68362369Y-37247031D01*
X68312452Y-37321351D01*
X68261470Y-37393375D01*
X68209421Y-37463102D01*
X68156306Y-37530531D01*
X68102124Y-37595664D01*
X68046876Y-37658500D01*
X67990561Y-37719039D01*
X67933180Y-37777281D01*
X67874733Y-37833226D01*
X67815219Y-37886875D01*
X67754639Y-37938226D01*
X67692992Y-37987281D01*
X67630279Y-38034039D01*
X67566500Y-38078500D01*
X67438695Y-38162008D01*
X67312531Y-38239281D01*
X67188007Y-38310320D01*
X67065125Y-38375125D01*
X66943883Y-38433695D01*
X66824281Y-38486031D01*
X66706320Y-38532133D01*
X66647955Y-38552846D01*
X66589999Y-38572000D01*
X66589999Y-38950000D01*
X66648078Y-38966611D01*
X66706812Y-38984945D01*
X66766203Y-39005002D01*
X66826250Y-39026781D01*
X66886954Y-39050283D01*
X66948313Y-39075508D01*
X67010329Y-39102455D01*
X67073001Y-39131125D01*
X67200314Y-39193633D01*
X67330251Y-39263031D01*
X67462814Y-39339320D01*
X67598002Y-39422500D01*
X67665637Y-39467002D01*
X67732041Y-39513883D01*
X67797214Y-39563142D01*
X67861157Y-39614781D01*
X67923870Y-39668799D01*
X67985352Y-39725195D01*
X68045604Y-39783970D01*
X68104625Y-39845125D01*
X68162416Y-39908658D01*
X68218977Y-39974570D01*
X68274307Y-40042861D01*
X68328406Y-40113531D01*
X68381276Y-40186580D01*
X68432915Y-40262008D01*
X68483324Y-40339815D01*
X68532502Y-40420000D01*
X68579546Y-40502934D01*
X68623555Y-40588984D01*
X68664529Y-40678152D01*
X68702468Y-40770438D01*
X68737372Y-40865840D01*
X68769240Y-40964359D01*
X68798074Y-41065996D01*
X68823872Y-41170750D01*
X68846636Y-41278621D01*
X68866364Y-41389609D01*
X68883057Y-41503715D01*
X68896716Y-41620937D01*
X68907339Y-41741277D01*
X68914926Y-41864734D01*
X68919479Y-41991309D01*
X68920997Y-42121000D01*
X68920997Y-42331000D01*
X68918782Y-42481896D01*
X68912137Y-42630086D01*
X68901063Y-42775568D01*
X68885559Y-42918344D01*
X68865626Y-43058412D01*
X68841262Y-43195773D01*
X68812469Y-43330428D01*
X68779247Y-43462375D01*
X68741595Y-43591615D01*
X68699513Y-43718148D01*
X68653001Y-43841974D01*
X68602060Y-43963094D01*
X68546690Y-44081506D01*
X68486889Y-44197211D01*
X68422659Y-44310209D01*
X68354000Y-44420500D01*
X68281443Y-44527838D01*
X68205523Y-44631976D01*
X68126240Y-44732916D01*
X68043593Y-44830656D01*
X67957584Y-44925197D01*
X67868211Y-45016539D01*
X67775474Y-45104681D01*
X67679375Y-45189625D01*
X67579912Y-45271369D01*
X67477086Y-45349914D01*
X67370897Y-45425259D01*
X67261344Y-45497406D01*
X67148429Y-45566353D01*
X67032150Y-45632101D01*
X66912507Y-45694650D01*
X66789502Y-45754000D01*
X66663543Y-45809945D01*
X66535040Y-45862281D01*
X66403995Y-45911008D01*
X66270407Y-45956125D01*
X66134276Y-45997633D01*
X65995602Y-46035531D01*
X65854385Y-46069820D01*
X65710625Y-46100500D01*
X65564322Y-46127570D01*
X65415476Y-46151031D01*
X65264087Y-46170883D01*
X65110155Y-46187125D01*
X64953681Y-46199758D01*
X64794663Y-46208781D01*
X64633102Y-46214195D01*
X64468999Y-46216000D01*
X56825000Y-46216000D01*
X56825000Y-43780000D01*
X58757000Y-43780000D01*
X58757000Y-43696000D01*
X58757000Y-40084000D01*
X61529000Y-40084000D01*
X61529000Y-43696000D01*
X64132999Y-43696000D01*
X64244521Y-43694277D01*
X64353335Y-43689109D01*
X64459443Y-43680496D01*
X64562843Y-43668438D01*
X64663537Y-43652934D01*
X64761523Y-43633984D01*
X64856802Y-43611590D01*
X64949374Y-43585750D01*
X65039240Y-43556465D01*
X65126398Y-43523734D01*
X65210849Y-43487559D01*
X65292593Y-43447937D01*
X65371630Y-43404871D01*
X65447960Y-43358359D01*
X65521583Y-43308402D01*
X65592499Y-43255000D01*
X65659887Y-43198398D01*
X65722928Y-43138844D01*
X65781622Y-43076336D01*
X65835967Y-43010875D01*
X65885966Y-42942461D01*
X65931616Y-42871093D01*
X65972919Y-42796773D01*
X66009875Y-42719500D01*
X66042482Y-42639273D01*
X66070742Y-42556093D01*
X66094655Y-42469961D01*
X66114220Y-42380875D01*
X66129437Y-42288836D01*
X66140306Y-42193844D01*
X66146827Y-42095899D01*
X66149001Y-41995000D01*
X66149001Y-41784999D01*
X66146869Y-41684101D01*
X66140470Y-41586156D01*
X66129806Y-41491164D01*
X66114876Y-41399125D01*
X66095681Y-41310039D01*
X66072220Y-41223906D01*
X66044494Y-41140726D01*
X66012502Y-41060500D01*
X65976244Y-40983226D01*
X65935720Y-40908906D01*
X65890931Y-40837539D01*
X65841877Y-40769125D01*
X65788556Y-40703664D01*
X65730970Y-40641156D01*
X65669118Y-40581601D01*
X65603001Y-40525000D01*
X65533274Y-40471597D01*
X65460594Y-40421640D01*
X65384961Y-40375129D01*
X65306375Y-40332062D01*
X65224836Y-40292441D01*
X65140344Y-40256265D01*
X65052899Y-40223535D01*
X64962501Y-40194250D01*
X64869149Y-40168410D01*
X64772845Y-40146015D01*
X64673587Y-40127066D01*
X64571376Y-40111562D01*
X64466211Y-40099503D01*
X64358094Y-40090890D01*
X64247023Y-40085722D01*
X64132999Y-40084000D01*
X61529000Y-40084000D01*
X58757000Y-40084000D01*
X58757000Y-37564000D01*
X58757000Y-34036000D01*
X61529000Y-34036000D01*
X61529000Y-37564000D01*
X64091002Y-37564000D01*
X64197438Y-37562277D01*
X64301494Y-37557109D01*
X64403172Y-37548496D01*
X64502470Y-37536437D01*
X64599390Y-37520934D01*
X64693931Y-37501984D01*
X64786093Y-37479590D01*
X64875876Y-37453750D01*
X64963280Y-37424465D01*
X65048306Y-37391734D01*
X65130952Y-37355559D01*
X65211220Y-37315937D01*
X65289108Y-37272871D01*
X65364618Y-37226359D01*
X65437749Y-37176402D01*
X65508501Y-37123000D01*
X65575889Y-37066562D01*
X65638930Y-37007500D01*
X65697623Y-36945812D01*
X65751969Y-36881500D01*
X65801967Y-36814562D01*
X65847617Y-36745000D01*
X65888920Y-36672812D01*
X65925875Y-36598000D01*
X65958482Y-36520562D01*
X65986742Y-36440500D01*
X66010654Y-36357812D01*
X66030218Y-36272500D01*
X66045435Y-36184562D01*
X66056304Y-36094000D01*
X66062826Y-36000812D01*
X66064999Y-35905000D01*
X66064999Y-35695000D01*
X66062867Y-35596685D01*
X66056468Y-35501242D01*
X66045804Y-35408670D01*
X66030875Y-35318969D01*
X66011679Y-35232139D01*
X65988218Y-35148180D01*
X65960492Y-35067092D01*
X65928500Y-34988875D01*
X65892242Y-34913530D01*
X65851719Y-34841055D01*
X65806929Y-34771451D01*
X65757875Y-34704719D01*
X65704554Y-34640858D01*
X65646968Y-34579867D01*
X65585116Y-34521748D01*
X65518999Y-34466500D01*
X65449437Y-34414369D01*
X65377250Y-34365601D01*
X65302437Y-34320197D01*
X65225000Y-34278156D01*
X65144938Y-34239478D01*
X65062250Y-34204164D01*
X64976938Y-34172213D01*
X64889000Y-34143625D01*
X64798438Y-34118400D01*
X64705251Y-34096539D01*
X64609438Y-34078041D01*
X64511001Y-34062906D01*
X64409939Y-34051135D01*
X64306251Y-34042726D01*
X64199939Y-34037681D01*
X64091002Y-34036000D01*
X61529000Y-34036000D01*
X58757000Y-34036000D01*
X58757000Y-33952000D01*
X56825000Y-33952000D01*
X56825000Y-31516000D01*
X64385001Y-31516000D01*
X64551647Y-31517764D01*
G37*
G36*
X50069523Y-31224092D02*
G01*
X50262337Y-31230367D01*
X50452445Y-31240826D01*
X50639845Y-31255469D01*
X50824538Y-31274295D01*
X51006525Y-31297305D01*
X51185804Y-31324498D01*
X51362376Y-31355875D01*
X51536241Y-31391436D01*
X51707399Y-31431180D01*
X51875851Y-31475107D01*
X52041595Y-31523219D01*
X52204632Y-31575514D01*
X52364962Y-31631992D01*
X52522585Y-31692654D01*
X52677501Y-31757500D01*
X52829013Y-31826488D01*
X52976423Y-31899578D01*
X53119731Y-31976769D01*
X53258938Y-32058062D01*
X53394043Y-32143457D01*
X53525047Y-32232953D01*
X53651949Y-32326551D01*
X53774750Y-32424250D01*
X53893449Y-32526051D01*
X54008047Y-32631953D01*
X54118543Y-32741957D01*
X54224938Y-32856062D01*
X54327231Y-32974269D01*
X54425423Y-33096578D01*
X54519513Y-33222988D01*
X54609502Y-33353500D01*
X54694691Y-33488154D01*
X54774384Y-33626992D01*
X54848582Y-33770014D01*
X54917283Y-33917219D01*
X54980488Y-34068607D01*
X55038197Y-34224180D01*
X55090410Y-34383935D01*
X55137127Y-34547875D01*
X55178347Y-34715998D01*
X55214072Y-34888304D01*
X55244300Y-35064795D01*
X55269033Y-35245469D01*
X55288269Y-35430326D01*
X55302009Y-35619367D01*
X55310254Y-35812592D01*
X55313002Y-36010000D01*
X55313002Y-36640000D01*
X52583001Y-36640000D01*
X52583001Y-36010000D01*
X52581730Y-35906271D01*
X52577915Y-35805086D01*
X52571558Y-35706443D01*
X52562658Y-35610343D01*
X52551214Y-35516787D01*
X52537228Y-35425773D01*
X52520699Y-35337302D01*
X52501627Y-35251375D01*
X52480011Y-35167990D01*
X52455853Y-35087148D01*
X52429152Y-35008849D01*
X52399908Y-34933093D01*
X52368121Y-34859881D01*
X52333791Y-34789211D01*
X52296918Y-34721084D01*
X52257502Y-34655500D01*
X52215706Y-34592254D01*
X52171696Y-34531141D01*
X52125472Y-34472160D01*
X52077032Y-34415313D01*
X52026378Y-34360598D01*
X51973508Y-34308016D01*
X51918424Y-34257567D01*
X51861125Y-34209250D01*
X51801612Y-34163067D01*
X51739883Y-34119016D01*
X51675940Y-34077098D01*
X51609782Y-34037313D01*
X51541409Y-33999660D01*
X51470821Y-33964141D01*
X51398018Y-33930754D01*
X51323000Y-33899500D01*
X51245973Y-33870256D01*
X51167141Y-33842898D01*
X51086504Y-33817428D01*
X51004063Y-33793844D01*
X50919817Y-33772146D01*
X50833766Y-33752336D01*
X50745911Y-33734412D01*
X50656250Y-33718375D01*
X50564786Y-33704224D01*
X50471516Y-33691961D01*
X50376442Y-33681584D01*
X50279563Y-33673094D01*
X50180880Y-33666490D01*
X50080392Y-33661773D01*
X49978099Y-33658943D01*
X49874001Y-33658000D01*
X49719085Y-33659846D01*
X49569337Y-33665383D01*
X49424757Y-33674611D01*
X49285345Y-33687531D01*
X49151101Y-33704143D01*
X49022024Y-33724445D01*
X48898116Y-33748439D01*
X48779376Y-33776125D01*
X48665804Y-33807502D01*
X48557400Y-33842570D01*
X48454163Y-33881330D01*
X48356095Y-33923781D01*
X48263195Y-33969924D01*
X48175462Y-34019758D01*
X48092897Y-34073283D01*
X48015501Y-34130500D01*
X47943026Y-34190916D01*
X47875228Y-34254039D01*
X47812105Y-34319869D01*
X47753658Y-34388406D01*
X47699886Y-34459650D01*
X47650790Y-34533602D01*
X47606370Y-34610260D01*
X47566626Y-34689625D01*
X47531558Y-34771697D01*
X47501165Y-34856477D01*
X47475449Y-34943963D01*
X47454407Y-35034156D01*
X47438042Y-35127057D01*
X47426353Y-35222664D01*
X47419339Y-35320979D01*
X47417001Y-35422000D01*
X47418109Y-35489594D01*
X47421431Y-35555875D01*
X47426968Y-35620844D01*
X47434720Y-35684500D01*
X47444687Y-35746844D01*
X47456868Y-35807875D01*
X47471265Y-35867594D01*
X47487876Y-35926000D01*
X47506702Y-35983094D01*
X47527744Y-36038875D01*
X47550999Y-36093344D01*
X47576470Y-36146500D01*
X47604156Y-36198344D01*
X47634056Y-36248875D01*
X47666172Y-36298094D01*
X47700502Y-36346000D01*
X47737047Y-36392758D01*
X47775806Y-36438531D01*
X47816781Y-36483320D01*
X47859970Y-36527125D01*
X47905375Y-36569945D01*
X47952994Y-36611781D01*
X48002827Y-36652633D01*
X48054876Y-36692500D01*
X48109140Y-36731383D01*
X48165618Y-36769281D01*
X48224312Y-36806195D01*
X48285220Y-36842125D01*
X48348343Y-36877070D01*
X48413681Y-36911031D01*
X48481233Y-36944008D01*
X48551001Y-36976000D01*
X48697673Y-37038016D01*
X48854189Y-37098062D01*
X49020548Y-37156140D01*
X49196751Y-37212250D01*
X49382798Y-37266390D01*
X49578688Y-37318562D01*
X49784422Y-37368766D01*
X50000000Y-37417000D01*
X50483001Y-37522000D01*
X50870353Y-37608953D01*
X51244907Y-37701812D01*
X51606665Y-37800578D01*
X51955626Y-37905250D01*
X52291789Y-38015828D01*
X52615156Y-38132312D01*
X52925727Y-38254703D01*
X53223500Y-38383000D01*
X53367178Y-38449937D01*
X53506836Y-38519500D01*
X53642475Y-38591687D01*
X53774095Y-38666500D01*
X53901694Y-38743937D01*
X54025274Y-38824000D01*
X54144835Y-38906687D01*
X54260376Y-38992000D01*
X54371898Y-39079937D01*
X54479400Y-39170500D01*
X54582882Y-39263687D01*
X54682345Y-39359499D01*
X54777788Y-39457937D01*
X54869212Y-39558999D01*
X54956617Y-39662687D01*
X55040001Y-39768999D01*
X55118833Y-39878511D01*
X55192579Y-39991796D01*
X55261239Y-40108855D01*
X55324813Y-40229687D01*
X55383301Y-40354293D01*
X55436704Y-40482672D01*
X55485020Y-40614824D01*
X55528250Y-40750750D01*
X55566395Y-40890449D01*
X55599453Y-41033922D01*
X55627426Y-41181168D01*
X55650313Y-41332187D01*
X55668114Y-41486980D01*
X55680828Y-41645547D01*
X55688457Y-41807886D01*
X55691000Y-41974000D01*
X55688334Y-42140728D01*
X55680336Y-42304914D01*
X55667006Y-42466556D01*
X55648344Y-42625656D01*
X55624350Y-42782213D01*
X55595024Y-42936226D01*
X55560365Y-43087697D01*
X55520375Y-43236625D01*
X55475053Y-43383010D01*
X55424399Y-43526851D01*
X55368412Y-43668150D01*
X55307094Y-43806906D01*
X55240444Y-43943119D01*
X55168461Y-44076789D01*
X55091147Y-44207916D01*
X55008501Y-44336500D01*
X54920973Y-44462090D01*
X54829017Y-44584234D01*
X54732630Y-44702933D01*
X54631813Y-44818187D01*
X54526567Y-44929996D01*
X54416892Y-45038359D01*
X54302786Y-45143277D01*
X54184251Y-45244750D01*
X54061286Y-45342777D01*
X53933891Y-45437359D01*
X53802067Y-45528496D01*
X53665813Y-45616187D01*
X53525129Y-45700433D01*
X53380016Y-45781234D01*
X53230473Y-45858589D01*
X53076501Y-45932499D01*
X52918549Y-46002431D01*
X52757071Y-46067851D01*
X52592065Y-46128759D01*
X52423532Y-46185156D01*
X52251471Y-46237040D01*
X52075884Y-46284413D01*
X51896768Y-46327275D01*
X51714126Y-46365624D01*
X51527956Y-46399462D01*
X51338259Y-46428788D01*
X51145034Y-46453603D01*
X50948282Y-46473906D01*
X50748003Y-46489697D01*
X50544196Y-46500976D01*
X50336862Y-46507744D01*
X50126001Y-46509999D01*
X49914935Y-46507621D01*
X49706985Y-46500484D01*
X49502153Y-46488589D01*
X49300439Y-46471937D01*
X49101841Y-46450527D01*
X48906361Y-46424359D01*
X48713997Y-46393433D01*
X48524751Y-46357749D01*
X48338622Y-46317308D01*
X48155611Y-46272109D01*
X47975716Y-46222152D01*
X47798939Y-46167437D01*
X47625278Y-46107964D01*
X47454735Y-46043734D01*
X47287309Y-45974746D01*
X47123000Y-45901000D01*
X46962465Y-45822824D01*
X46806360Y-45740547D01*
X46654684Y-45654168D01*
X46507438Y-45563687D01*
X46364622Y-45469105D01*
X46226235Y-45370422D01*
X46092278Y-45267637D01*
X45962751Y-45160750D01*
X45837653Y-45049762D01*
X45716985Y-44934672D01*
X45600747Y-44815480D01*
X45488939Y-44692187D01*
X45381560Y-44564793D01*
X45278611Y-44433297D01*
X45180091Y-44297699D01*
X45086002Y-44158000D01*
X44996998Y-44014445D01*
X44913736Y-43867281D01*
X44836216Y-43716507D01*
X44764439Y-43562125D01*
X44698404Y-43404132D01*
X44638111Y-43242531D01*
X44583560Y-43077320D01*
X44534751Y-42908500D01*
X44491685Y-42736070D01*
X44454361Y-42560031D01*
X44422779Y-42380383D01*
X44396939Y-42197125D01*
X44376841Y-42010257D01*
X44362485Y-41819781D01*
X44353872Y-41625695D01*
X44351001Y-41427999D01*
X44351001Y-40840000D01*
X47081001Y-40840000D01*
X47081001Y-41427999D01*
X47084201Y-41590790D01*
X47093798Y-41748413D01*
X47109794Y-41900868D01*
X47132189Y-42048156D01*
X47160982Y-42190275D01*
X47196173Y-42327226D01*
X47237763Y-42459009D01*
X47285751Y-42585624D01*
X47340138Y-42707072D01*
X47400923Y-42823351D01*
X47468107Y-42934462D01*
X47541689Y-43040406D01*
X47621669Y-43141181D01*
X47708048Y-43236789D01*
X47800825Y-43327228D01*
X47900000Y-43412500D01*
X48004672Y-43492603D01*
X48113938Y-43567539D01*
X48227797Y-43637306D01*
X48346250Y-43701906D01*
X48469297Y-43761338D01*
X48596938Y-43815601D01*
X48729173Y-43864697D01*
X48866001Y-43908625D01*
X49007423Y-43947385D01*
X49153438Y-43980976D01*
X49304048Y-44009400D01*
X49459251Y-44032656D01*
X49619048Y-44050744D01*
X49783439Y-44063664D01*
X49952423Y-44071416D01*
X50126001Y-44074000D01*
X50301671Y-44071785D01*
X50471681Y-44065140D01*
X50636031Y-44054066D01*
X50794720Y-44038562D01*
X50947749Y-44018629D01*
X51095118Y-43994265D01*
X51236827Y-43965472D01*
X51372876Y-43932250D01*
X51503265Y-43894597D01*
X51627993Y-43852515D01*
X51747061Y-43806004D01*
X51860470Y-43755062D01*
X51968218Y-43699691D01*
X52070306Y-43639890D01*
X52166734Y-43575660D01*
X52257502Y-43507000D01*
X52342691Y-43434894D01*
X52422385Y-43360328D01*
X52496582Y-43283301D01*
X52565283Y-43203813D01*
X52628488Y-43121863D01*
X52686197Y-43037453D01*
X52738409Y-42950582D01*
X52785126Y-42861250D01*
X52826346Y-42769457D01*
X52862071Y-42675203D01*
X52892299Y-42578488D01*
X52917031Y-42479312D01*
X52936268Y-42377676D01*
X52950008Y-42273578D01*
X52958252Y-42167019D01*
X52961000Y-42058000D01*
X52959646Y-41982777D01*
X52955586Y-41909359D01*
X52948818Y-41837746D01*
X52939344Y-41767937D01*
X52927162Y-41699933D01*
X52912274Y-41633734D01*
X52894678Y-41569340D01*
X52874375Y-41506750D01*
X52851366Y-41445965D01*
X52825649Y-41386984D01*
X52797225Y-41329809D01*
X52766094Y-41274438D01*
X52732256Y-41220871D01*
X52695711Y-41169109D01*
X52656459Y-41119152D01*
X52614500Y-41071000D01*
X52569957Y-41024283D01*
X52522953Y-40978633D01*
X52473489Y-40934049D01*
X52421563Y-40890531D01*
X52367176Y-40848080D01*
X52310329Y-40806695D01*
X52251020Y-40766376D01*
X52189251Y-40727124D01*
X52125020Y-40688939D01*
X52058329Y-40651820D01*
X51989177Y-40615767D01*
X51917563Y-40580781D01*
X51843489Y-40546861D01*
X51766954Y-40514008D01*
X51687958Y-40482221D01*
X51606501Y-40451500D01*
X51436696Y-40391617D01*
X51258032Y-40332718D01*
X51070509Y-40274804D01*
X50874126Y-40217875D01*
X50668883Y-40161929D01*
X50454782Y-40106968D01*
X50231821Y-40052992D01*
X50000000Y-40000000D01*
X49517001Y-39895000D01*
X49145727Y-39808211D01*
X48787907Y-39715844D01*
X48443540Y-39617899D01*
X48112626Y-39514375D01*
X47795165Y-39405274D01*
X47491158Y-39290594D01*
X47200603Y-39170336D01*
X46923502Y-39044500D01*
X46790283Y-38978916D01*
X46661002Y-38910789D01*
X46535658Y-38840119D01*
X46414252Y-38766906D01*
X46296783Y-38691150D01*
X46183252Y-38612851D01*
X46073658Y-38532010D01*
X45968001Y-38448625D01*
X45866282Y-38362697D01*
X45768501Y-38274226D01*
X45674657Y-38183213D01*
X45584751Y-38089656D01*
X45498783Y-37993556D01*
X45416751Y-37894914D01*
X45338658Y-37793728D01*
X45264502Y-37690000D01*
X45194570Y-37583031D01*
X45129150Y-37472125D01*
X45068242Y-37357281D01*
X45011845Y-37238500D01*
X44959961Y-37115781D01*
X44912587Y-36989125D01*
X44869726Y-36858531D01*
X44831376Y-36724000D01*
X44797538Y-36585531D01*
X44768212Y-36443125D01*
X44743397Y-36296781D01*
X44723095Y-36146500D01*
X44707304Y-35992281D01*
X44696024Y-35834125D01*
X44689257Y-35672031D01*
X44687001Y-35506000D01*
X44689503Y-35339517D01*
X44697009Y-35176070D01*
X44709518Y-35015658D01*
X44727032Y-34858281D01*
X44749550Y-34703939D01*
X44777071Y-34552632D01*
X44809597Y-34404361D01*
X44847126Y-34259125D01*
X44889660Y-34116923D01*
X44937197Y-33977757D01*
X44989738Y-33841627D01*
X45047283Y-33708531D01*
X45109832Y-33578470D01*
X45177384Y-33451445D01*
X45249941Y-33327455D01*
X45327501Y-33206500D01*
X45409615Y-33088785D01*
X45495829Y-32974516D01*
X45586146Y-32863691D01*
X45680563Y-32756313D01*
X45779083Y-32652379D01*
X45881704Y-32551891D01*
X45988427Y-32454848D01*
X46099251Y-32361250D01*
X46214177Y-32271098D01*
X46333204Y-32184391D01*
X46456333Y-32101129D01*
X46583563Y-32021312D01*
X46714895Y-31944941D01*
X46850329Y-31872015D01*
X46989864Y-31802535D01*
X47133501Y-31736500D01*
X47280788Y-31674197D01*
X47431274Y-31615914D01*
X47584960Y-31561651D01*
X47741844Y-31511406D01*
X47901928Y-31465182D01*
X48065212Y-31422977D01*
X48231694Y-31384791D01*
X48401376Y-31350625D01*
X48574257Y-31320479D01*
X48750337Y-31294352D01*
X48929616Y-31272244D01*
X49112095Y-31254156D01*
X49297773Y-31240088D01*
X49486650Y-31230039D01*
X49678726Y-31224010D01*
X49874001Y-31222000D01*
X50069523Y-31224092D01*
G37*
D12*
X3880952Y-31133723D02*
X4261905Y-31133723D01*
X3804762Y-31362295D02*
X4071429Y-30562295D01*
X4071429Y-30562295D02*
X4338095Y-31362295D01*
X4604762Y-30562295D02*
X4604762Y-31209914D01*
X4604762Y-31209914D02*
X4642857Y-31286104D01*
X4642857Y-31286104D02*
X4680952Y-31324200D01*
X4680952Y-31324200D02*
X4757143Y-31362295D01*
X4757143Y-31362295D02*
X4909524Y-31362295D01*
X4909524Y-31362295D02*
X4985714Y-31324200D01*
X4985714Y-31324200D02*
X5023809Y-31286104D01*
X5023809Y-31286104D02*
X5061905Y-31209914D01*
X5061905Y-31209914D02*
X5061905Y-30562295D01*
X5442857Y-31362295D02*
X5442857Y-30562295D01*
X5442857Y-30562295D02*
X5633333Y-30562295D01*
X5633333Y-30562295D02*
X5747619Y-30600390D01*
X5747619Y-30600390D02*
X5823809Y-30676580D01*
X5823809Y-30676580D02*
X5861904Y-30752771D01*
X5861904Y-30752771D02*
X5900000Y-30905152D01*
X5900000Y-30905152D02*
X5900000Y-31019438D01*
X5900000Y-31019438D02*
X5861904Y-31171819D01*
X5861904Y-31171819D02*
X5823809Y-31248009D01*
X5823809Y-31248009D02*
X5747619Y-31324200D01*
X5747619Y-31324200D02*
X5633333Y-31362295D01*
X5633333Y-31362295D02*
X5442857Y-31362295D01*
X6242857Y-31362295D02*
X6242857Y-30562295D01*
X6776190Y-30562295D02*
X6928571Y-30562295D01*
X6928571Y-30562295D02*
X7004761Y-30600390D01*
X7004761Y-30600390D02*
X7080952Y-30676580D01*
X7080952Y-30676580D02*
X7119047Y-30828961D01*
X7119047Y-30828961D02*
X7119047Y-31095628D01*
X7119047Y-31095628D02*
X7080952Y-31248009D01*
X7080952Y-31248009D02*
X7004761Y-31324200D01*
X7004761Y-31324200D02*
X6928571Y-31362295D01*
X6928571Y-31362295D02*
X6776190Y-31362295D01*
X6776190Y-31362295D02*
X6699999Y-31324200D01*
X6699999Y-31324200D02*
X6623809Y-31248009D01*
X6623809Y-31248009D02*
X6585713Y-31095628D01*
X6585713Y-31095628D02*
X6585713Y-30828961D01*
X6585713Y-30828961D02*
X6623809Y-30676580D01*
X6623809Y-30676580D02*
X6699999Y-30600390D01*
X6699999Y-30600390D02*
X6776190Y-30562295D01*
X15354761Y-14385427D02*
X15354761Y-13535427D01*
X15354761Y-13535427D02*
X15678571Y-13535427D01*
X15678571Y-13535427D02*
X15759523Y-13575903D01*
X15759523Y-13575903D02*
X15800000Y-13616379D01*
X15800000Y-13616379D02*
X15840476Y-13697331D01*
X15840476Y-13697331D02*
X15840476Y-13818760D01*
X15840476Y-13818760D02*
X15800000Y-13899712D01*
X15800000Y-13899712D02*
X15759523Y-13940189D01*
X15759523Y-13940189D02*
X15678571Y-13980665D01*
X15678571Y-13980665D02*
X15354761Y-13980665D01*
X16164285Y-14142570D02*
X16569047Y-14142570D01*
X16083333Y-14385427D02*
X16366666Y-13535427D01*
X16366666Y-13535427D02*
X16650000Y-14385427D01*
X16892856Y-14344951D02*
X17014285Y-14385427D01*
X17014285Y-14385427D02*
X17216666Y-14385427D01*
X17216666Y-14385427D02*
X17297618Y-14344951D01*
X17297618Y-14344951D02*
X17338094Y-14304474D01*
X17338094Y-14304474D02*
X17378571Y-14223522D01*
X17378571Y-14223522D02*
X17378571Y-14142570D01*
X17378571Y-14142570D02*
X17338094Y-14061617D01*
X17338094Y-14061617D02*
X17297618Y-14021141D01*
X17297618Y-14021141D02*
X17216666Y-13980665D01*
X17216666Y-13980665D02*
X17054761Y-13940189D01*
X17054761Y-13940189D02*
X16973809Y-13899712D01*
X16973809Y-13899712D02*
X16933332Y-13859236D01*
X16933332Y-13859236D02*
X16892856Y-13778284D01*
X16892856Y-13778284D02*
X16892856Y-13697331D01*
X16892856Y-13697331D02*
X16933332Y-13616379D01*
X16933332Y-13616379D02*
X16973809Y-13575903D01*
X16973809Y-13575903D02*
X17054761Y-13535427D01*
X17054761Y-13535427D02*
X17257142Y-13535427D01*
X17257142Y-13535427D02*
X17378571Y-13575903D01*
X17702380Y-14344951D02*
X17823809Y-14385427D01*
X17823809Y-14385427D02*
X18026190Y-14385427D01*
X18026190Y-14385427D02*
X18107142Y-14344951D01*
X18107142Y-14344951D02*
X18147618Y-14304474D01*
X18147618Y-14304474D02*
X18188095Y-14223522D01*
X18188095Y-14223522D02*
X18188095Y-14142570D01*
X18188095Y-14142570D02*
X18147618Y-14061617D01*
X18147618Y-14061617D02*
X18107142Y-14021141D01*
X18107142Y-14021141D02*
X18026190Y-13980665D01*
X18026190Y-13980665D02*
X17864285Y-13940189D01*
X17864285Y-13940189D02*
X17783333Y-13899712D01*
X17783333Y-13899712D02*
X17742856Y-13859236D01*
X17742856Y-13859236D02*
X17702380Y-13778284D01*
X17702380Y-13778284D02*
X17702380Y-13697331D01*
X17702380Y-13697331D02*
X17742856Y-13616379D01*
X17742856Y-13616379D02*
X17783333Y-13575903D01*
X17783333Y-13575903D02*
X17864285Y-13535427D01*
X17864285Y-13535427D02*
X18066666Y-13535427D01*
X18066666Y-13535427D02*
X18188095Y-13575903D01*
X18552380Y-14385427D02*
X18552380Y-13535427D01*
X18835714Y-13535427D02*
X19119047Y-14385427D01*
X19119047Y-14385427D02*
X19402381Y-13535427D01*
X19685713Y-13940189D02*
X19969047Y-13940189D01*
X20090475Y-14385427D02*
X19685713Y-14385427D01*
X19685713Y-14385427D02*
X19685713Y-13535427D01*
X19685713Y-13535427D02*
X20090475Y-13535427D01*
X21102380Y-13940189D02*
X21385714Y-13940189D01*
X21507142Y-14385427D02*
X21102380Y-14385427D01*
X21102380Y-14385427D02*
X21102380Y-13535427D01*
X21102380Y-13535427D02*
X21507142Y-13535427D01*
X21871428Y-14385427D02*
X21871428Y-13535427D01*
X21871428Y-13535427D02*
X22154762Y-14142570D01*
X22154762Y-14142570D02*
X22438095Y-13535427D01*
X22438095Y-13535427D02*
X22438095Y-14385427D01*
X23490476Y-14385427D02*
X23490476Y-13535427D01*
X23490476Y-13535427D02*
X23814286Y-13535427D01*
X23814286Y-13535427D02*
X23895238Y-13575903D01*
X23895238Y-13575903D02*
X23935715Y-13616379D01*
X23935715Y-13616379D02*
X23976191Y-13697331D01*
X23976191Y-13697331D02*
X23976191Y-13818760D01*
X23976191Y-13818760D02*
X23935715Y-13899712D01*
X23935715Y-13899712D02*
X23895238Y-13940189D01*
X23895238Y-13940189D02*
X23814286Y-13980665D01*
X23814286Y-13980665D02*
X23490476Y-13980665D01*
X24340476Y-14385427D02*
X24340476Y-13535427D01*
X25230953Y-14304474D02*
X25190477Y-14344951D01*
X25190477Y-14344951D02*
X25069048Y-14385427D01*
X25069048Y-14385427D02*
X24988096Y-14385427D01*
X24988096Y-14385427D02*
X24866667Y-14344951D01*
X24866667Y-14344951D02*
X24785715Y-14263998D01*
X24785715Y-14263998D02*
X24745238Y-14183046D01*
X24745238Y-14183046D02*
X24704762Y-14021141D01*
X24704762Y-14021141D02*
X24704762Y-13899712D01*
X24704762Y-13899712D02*
X24745238Y-13737808D01*
X24745238Y-13737808D02*
X24785715Y-13656855D01*
X24785715Y-13656855D02*
X24866667Y-13575903D01*
X24866667Y-13575903D02*
X24988096Y-13535427D01*
X24988096Y-13535427D02*
X25069048Y-13535427D01*
X25069048Y-13535427D02*
X25190477Y-13575903D01*
X25190477Y-13575903D02*
X25230953Y-13616379D01*
X25595238Y-14385427D02*
X25595238Y-13535427D01*
X26080953Y-14385427D02*
X25716667Y-13899712D01*
X26080953Y-13535427D02*
X25595238Y-14021141D01*
X26445238Y-13535427D02*
X26445238Y-14223522D01*
X26445238Y-14223522D02*
X26485715Y-14304474D01*
X26485715Y-14304474D02*
X26526191Y-14344951D01*
X26526191Y-14344951D02*
X26607143Y-14385427D01*
X26607143Y-14385427D02*
X26769048Y-14385427D01*
X26769048Y-14385427D02*
X26850000Y-14344951D01*
X26850000Y-14344951D02*
X26890477Y-14304474D01*
X26890477Y-14304474D02*
X26930953Y-14223522D01*
X26930953Y-14223522D02*
X26930953Y-13535427D01*
X27335714Y-14385427D02*
X27335714Y-13535427D01*
X27335714Y-13535427D02*
X27659524Y-13535427D01*
X27659524Y-13535427D02*
X27740476Y-13575903D01*
X27740476Y-13575903D02*
X27780953Y-13616379D01*
X27780953Y-13616379D02*
X27821429Y-13697331D01*
X27821429Y-13697331D02*
X27821429Y-13818760D01*
X27821429Y-13818760D02*
X27780953Y-13899712D01*
X27780953Y-13899712D02*
X27740476Y-13940189D01*
X27740476Y-13940189D02*
X27659524Y-13980665D01*
X27659524Y-13980665D02*
X27335714Y-13980665D01*
X28954762Y-14021141D02*
X28914286Y-14061617D01*
X28914286Y-14061617D02*
X28954762Y-14102093D01*
X28954762Y-14102093D02*
X28995238Y-14061617D01*
X28995238Y-14061617D02*
X28954762Y-14021141D01*
X28954762Y-14021141D02*
X28954762Y-14102093D01*
X30047619Y-13535427D02*
X30573810Y-13535427D01*
X30573810Y-13535427D02*
X30290476Y-13859236D01*
X30290476Y-13859236D02*
X30411905Y-13859236D01*
X30411905Y-13859236D02*
X30492857Y-13899712D01*
X30492857Y-13899712D02*
X30533333Y-13940189D01*
X30533333Y-13940189D02*
X30573810Y-14021141D01*
X30573810Y-14021141D02*
X30573810Y-14223522D01*
X30573810Y-14223522D02*
X30533333Y-14304474D01*
X30533333Y-14304474D02*
X30492857Y-14344951D01*
X30492857Y-14344951D02*
X30411905Y-14385427D01*
X30411905Y-14385427D02*
X30169048Y-14385427D01*
X30169048Y-14385427D02*
X30088095Y-14344951D01*
X30088095Y-14344951D02*
X30047619Y-14304474D01*
X31100000Y-13535427D02*
X31180953Y-13535427D01*
X31180953Y-13535427D02*
X31261905Y-13575903D01*
X31261905Y-13575903D02*
X31302381Y-13616379D01*
X31302381Y-13616379D02*
X31342857Y-13697331D01*
X31342857Y-13697331D02*
X31383334Y-13859236D01*
X31383334Y-13859236D02*
X31383334Y-14061617D01*
X31383334Y-14061617D02*
X31342857Y-14223522D01*
X31342857Y-14223522D02*
X31302381Y-14304474D01*
X31302381Y-14304474D02*
X31261905Y-14344951D01*
X31261905Y-14344951D02*
X31180953Y-14385427D01*
X31180953Y-14385427D02*
X31100000Y-14385427D01*
X31100000Y-14385427D02*
X31019048Y-14344951D01*
X31019048Y-14344951D02*
X30978572Y-14304474D01*
X30978572Y-14304474D02*
X30938095Y-14223522D01*
X30938095Y-14223522D02*
X30897619Y-14061617D01*
X30897619Y-14061617D02*
X30897619Y-13859236D01*
X30897619Y-13859236D02*
X30938095Y-13697331D01*
X30938095Y-13697331D02*
X30978572Y-13616379D01*
X30978572Y-13616379D02*
X31019048Y-13575903D01*
X31019048Y-13575903D02*
X31100000Y-13535427D01*
X31626191Y-13535427D02*
X32111905Y-13535427D01*
X31869048Y-14385427D02*
X31869048Y-13535427D01*
X33002381Y-13494951D02*
X32273810Y-14587808D01*
X33690476Y-14385427D02*
X33285714Y-14385427D01*
X33285714Y-14385427D02*
X33285714Y-13535427D01*
X33933333Y-14142570D02*
X34338095Y-14142570D01*
X33852381Y-14385427D02*
X34135714Y-13535427D01*
X34135714Y-13535427D02*
X34419048Y-14385427D01*
X34864285Y-13980665D02*
X34864285Y-14385427D01*
X34580952Y-13535427D02*
X34864285Y-13980665D01*
X34864285Y-13980665D02*
X35147619Y-13535427D01*
X35430951Y-13940189D02*
X35714285Y-13940189D01*
X35835713Y-14385427D02*
X35430951Y-14385427D01*
X35430951Y-14385427D02*
X35430951Y-13535427D01*
X35430951Y-13535427D02*
X35835713Y-13535427D01*
X36685714Y-14385427D02*
X36402380Y-13980665D01*
X36199999Y-14385427D02*
X36199999Y-13535427D01*
X36199999Y-13535427D02*
X36523809Y-13535427D01*
X36523809Y-13535427D02*
X36604761Y-13575903D01*
X36604761Y-13575903D02*
X36645238Y-13616379D01*
X36645238Y-13616379D02*
X36685714Y-13697331D01*
X36685714Y-13697331D02*
X36685714Y-13818760D01*
X36685714Y-13818760D02*
X36645238Y-13899712D01*
X36645238Y-13899712D02*
X36604761Y-13940189D01*
X36604761Y-13940189D02*
X36523809Y-13980665D01*
X36523809Y-13980665D02*
X36199999Y-13980665D01*
D13*
X32928570Y-48168584D02*
X33404760Y-48168584D01*
X32833332Y-48454299D02*
X33166665Y-47454299D01*
X33166665Y-47454299D02*
X33499998Y-48454299D01*
X33833332Y-48454299D02*
X33833332Y-47454299D01*
X35023808Y-48406680D02*
X35166665Y-48454299D01*
X35166665Y-48454299D02*
X35404760Y-48454299D01*
X35404760Y-48454299D02*
X35499998Y-48406680D01*
X35499998Y-48406680D02*
X35547617Y-48359060D01*
X35547617Y-48359060D02*
X35595236Y-48263822D01*
X35595236Y-48263822D02*
X35595236Y-48168584D01*
X35595236Y-48168584D02*
X35547617Y-48073346D01*
X35547617Y-48073346D02*
X35499998Y-48025727D01*
X35499998Y-48025727D02*
X35404760Y-47978108D01*
X35404760Y-47978108D02*
X35214284Y-47930489D01*
X35214284Y-47930489D02*
X35119046Y-47882870D01*
X35119046Y-47882870D02*
X35071427Y-47835251D01*
X35071427Y-47835251D02*
X35023808Y-47740013D01*
X35023808Y-47740013D02*
X35023808Y-47644775D01*
X35023808Y-47644775D02*
X35071427Y-47549537D01*
X35071427Y-47549537D02*
X35119046Y-47501918D01*
X35119046Y-47501918D02*
X35214284Y-47454299D01*
X35214284Y-47454299D02*
X35452379Y-47454299D01*
X35452379Y-47454299D02*
X35595236Y-47501918D01*
X36023808Y-47930489D02*
X36357141Y-47930489D01*
X36499998Y-48454299D02*
X36023808Y-48454299D01*
X36023808Y-48454299D02*
X36023808Y-47454299D01*
X36023808Y-47454299D02*
X36499998Y-47454299D01*
X37499998Y-48359060D02*
X37452379Y-48406680D01*
X37452379Y-48406680D02*
X37309522Y-48454299D01*
X37309522Y-48454299D02*
X37214284Y-48454299D01*
X37214284Y-48454299D02*
X37071427Y-48406680D01*
X37071427Y-48406680D02*
X36976189Y-48311441D01*
X36976189Y-48311441D02*
X36928570Y-48216203D01*
X36928570Y-48216203D02*
X36880951Y-48025727D01*
X36880951Y-48025727D02*
X36880951Y-47882870D01*
X36880951Y-47882870D02*
X36928570Y-47692394D01*
X36928570Y-47692394D02*
X36976189Y-47597156D01*
X36976189Y-47597156D02*
X37071427Y-47501918D01*
X37071427Y-47501918D02*
X37214284Y-47454299D01*
X37214284Y-47454299D02*
X37309522Y-47454299D01*
X37309522Y-47454299D02*
X37452379Y-47501918D01*
X37452379Y-47501918D02*
X37499998Y-47549537D01*
X37928570Y-47454299D02*
X37928570Y-48263822D01*
X37928570Y-48263822D02*
X37976189Y-48359060D01*
X37976189Y-48359060D02*
X38023808Y-48406680D01*
X38023808Y-48406680D02*
X38119046Y-48454299D01*
X38119046Y-48454299D02*
X38309522Y-48454299D01*
X38309522Y-48454299D02*
X38404760Y-48406680D01*
X38404760Y-48406680D02*
X38452379Y-48359060D01*
X38452379Y-48359060D02*
X38499998Y-48263822D01*
X38499998Y-48263822D02*
X38499998Y-47454299D01*
X39547617Y-48454299D02*
X39214284Y-47978108D01*
X38976189Y-48454299D02*
X38976189Y-47454299D01*
X38976189Y-47454299D02*
X39357141Y-47454299D01*
X39357141Y-47454299D02*
X39452379Y-47501918D01*
X39452379Y-47501918D02*
X39499998Y-47549537D01*
X39499998Y-47549537D02*
X39547617Y-47644775D01*
X39547617Y-47644775D02*
X39547617Y-47787632D01*
X39547617Y-47787632D02*
X39499998Y-47882870D01*
X39499998Y-47882870D02*
X39452379Y-47930489D01*
X39452379Y-47930489D02*
X39357141Y-47978108D01*
X39357141Y-47978108D02*
X38976189Y-47978108D01*
X39976189Y-48454299D02*
X39976189Y-47454299D01*
X40309522Y-47454299D02*
X40880950Y-47454299D01*
X40595236Y-48454299D02*
X40595236Y-47454299D01*
X41404760Y-47978108D02*
X41404760Y-48454299D01*
X41071427Y-47454299D02*
X41404760Y-47978108D01*
X41404760Y-47978108D02*
X41738093Y-47454299D01*
X43166665Y-47930489D02*
X43309522Y-47978108D01*
X43309522Y-47978108D02*
X43357141Y-48025727D01*
X43357141Y-48025727D02*
X43404760Y-48120965D01*
X43404760Y-48120965D02*
X43404760Y-48263822D01*
X43404760Y-48263822D02*
X43357141Y-48359060D01*
X43357141Y-48359060D02*
X43309522Y-48406680D01*
X43309522Y-48406680D02*
X43214284Y-48454299D01*
X43214284Y-48454299D02*
X42833332Y-48454299D01*
X42833332Y-48454299D02*
X42833332Y-47454299D01*
X42833332Y-47454299D02*
X43166665Y-47454299D01*
X43166665Y-47454299D02*
X43261903Y-47501918D01*
X43261903Y-47501918D02*
X43309522Y-47549537D01*
X43309522Y-47549537D02*
X43357141Y-47644775D01*
X43357141Y-47644775D02*
X43357141Y-47740013D01*
X43357141Y-47740013D02*
X43309522Y-47835251D01*
X43309522Y-47835251D02*
X43261903Y-47882870D01*
X43261903Y-47882870D02*
X43166665Y-47930489D01*
X43166665Y-47930489D02*
X42833332Y-47930489D01*
X44023808Y-47454299D02*
X44214284Y-47454299D01*
X44214284Y-47454299D02*
X44309522Y-47501918D01*
X44309522Y-47501918D02*
X44404760Y-47597156D01*
X44404760Y-47597156D02*
X44452379Y-47787632D01*
X44452379Y-47787632D02*
X44452379Y-48120965D01*
X44452379Y-48120965D02*
X44404760Y-48311441D01*
X44404760Y-48311441D02*
X44309522Y-48406680D01*
X44309522Y-48406680D02*
X44214284Y-48454299D01*
X44214284Y-48454299D02*
X44023808Y-48454299D01*
X44023808Y-48454299D02*
X43928570Y-48406680D01*
X43928570Y-48406680D02*
X43833332Y-48311441D01*
X43833332Y-48311441D02*
X43785713Y-48120965D01*
X43785713Y-48120965D02*
X43785713Y-47787632D01*
X43785713Y-47787632D02*
X43833332Y-47597156D01*
X43833332Y-47597156D02*
X43928570Y-47501918D01*
X43928570Y-47501918D02*
X44023808Y-47454299D01*
X45071427Y-47454299D02*
X45261903Y-47454299D01*
X45261903Y-47454299D02*
X45357141Y-47501918D01*
X45357141Y-47501918D02*
X45452379Y-47597156D01*
X45452379Y-47597156D02*
X45499998Y-47787632D01*
X45499998Y-47787632D02*
X45499998Y-48120965D01*
X45499998Y-48120965D02*
X45452379Y-48311441D01*
X45452379Y-48311441D02*
X45357141Y-48406680D01*
X45357141Y-48406680D02*
X45261903Y-48454299D01*
X45261903Y-48454299D02*
X45071427Y-48454299D01*
X45071427Y-48454299D02*
X44976189Y-48406680D01*
X44976189Y-48406680D02*
X44880951Y-48311441D01*
X44880951Y-48311441D02*
X44833332Y-48120965D01*
X44833332Y-48120965D02*
X44833332Y-47787632D01*
X44833332Y-47787632D02*
X44880951Y-47597156D01*
X44880951Y-47597156D02*
X44976189Y-47501918D01*
X44976189Y-47501918D02*
X45071427Y-47454299D01*
X45785713Y-47454299D02*
X46357141Y-47454299D01*
X46071427Y-48454299D02*
X46071427Y-47454299D01*
X47261903Y-48359060D02*
X47214284Y-48406680D01*
X47214284Y-48406680D02*
X47071427Y-48454299D01*
X47071427Y-48454299D02*
X46976189Y-48454299D01*
X46976189Y-48454299D02*
X46833332Y-48406680D01*
X46833332Y-48406680D02*
X46738094Y-48311441D01*
X46738094Y-48311441D02*
X46690475Y-48216203D01*
X46690475Y-48216203D02*
X46642856Y-48025727D01*
X46642856Y-48025727D02*
X46642856Y-47882870D01*
X46642856Y-47882870D02*
X46690475Y-47692394D01*
X46690475Y-47692394D02*
X46738094Y-47597156D01*
X46738094Y-47597156D02*
X46833332Y-47501918D01*
X46833332Y-47501918D02*
X46976189Y-47454299D01*
X46976189Y-47454299D02*
X47071427Y-47454299D01*
X47071427Y-47454299D02*
X47214284Y-47501918D01*
X47214284Y-47501918D02*
X47261903Y-47549537D01*
X47642856Y-48168584D02*
X48119046Y-48168584D01*
X47547618Y-48454299D02*
X47880951Y-47454299D01*
X47880951Y-47454299D02*
X48214284Y-48454299D01*
X48547618Y-48454299D02*
X48547618Y-47454299D01*
X48547618Y-47454299D02*
X48880951Y-48168584D01*
X48880951Y-48168584D02*
X49214284Y-47454299D01*
X49214284Y-47454299D02*
X49214284Y-48454299D01*
X49690475Y-48454299D02*
X49690475Y-47454299D01*
X49690475Y-47454299D02*
X50071427Y-47454299D01*
X50071427Y-47454299D02*
X50166665Y-47501918D01*
X50166665Y-47501918D02*
X50214284Y-47549537D01*
X50214284Y-47549537D02*
X50261903Y-47644775D01*
X50261903Y-47644775D02*
X50261903Y-47787632D01*
X50261903Y-47787632D02*
X50214284Y-47882870D01*
X50214284Y-47882870D02*
X50166665Y-47930489D01*
X50166665Y-47930489D02*
X50071427Y-47978108D01*
X50071427Y-47978108D02*
X49690475Y-47978108D01*
X51595237Y-48025727D02*
X51547618Y-48073346D01*
X51547618Y-48073346D02*
X51595237Y-48120965D01*
X51595237Y-48120965D02*
X51642856Y-48073346D01*
X51642856Y-48073346D02*
X51595237Y-48025727D01*
X51595237Y-48025727D02*
X51595237Y-48120965D01*
X53452380Y-48454299D02*
X52976190Y-48454299D01*
X52976190Y-48454299D02*
X52976190Y-47454299D01*
X53738095Y-48168584D02*
X54214285Y-48168584D01*
X53642857Y-48454299D02*
X53976190Y-47454299D01*
X53976190Y-47454299D02*
X54309523Y-48454299D01*
X54595238Y-48406680D02*
X54738095Y-48454299D01*
X54738095Y-48454299D02*
X54976190Y-48454299D01*
X54976190Y-48454299D02*
X55071428Y-48406680D01*
X55071428Y-48406680D02*
X55119047Y-48359060D01*
X55119047Y-48359060D02*
X55166666Y-48263822D01*
X55166666Y-48263822D02*
X55166666Y-48168584D01*
X55166666Y-48168584D02*
X55119047Y-48073346D01*
X55119047Y-48073346D02*
X55071428Y-48025727D01*
X55071428Y-48025727D02*
X54976190Y-47978108D01*
X54976190Y-47978108D02*
X54785714Y-47930489D01*
X54785714Y-47930489D02*
X54690476Y-47882870D01*
X54690476Y-47882870D02*
X54642857Y-47835251D01*
X54642857Y-47835251D02*
X54595238Y-47740013D01*
X54595238Y-47740013D02*
X54595238Y-47644775D01*
X54595238Y-47644775D02*
X54642857Y-47549537D01*
X54642857Y-47549537D02*
X54690476Y-47501918D01*
X54690476Y-47501918D02*
X54785714Y-47454299D01*
X54785714Y-47454299D02*
X55023809Y-47454299D01*
X55023809Y-47454299D02*
X55166666Y-47501918D01*
X56214286Y-47454299D02*
X56547619Y-48454299D01*
X56547619Y-48454299D02*
X56880952Y-47454299D01*
X57214286Y-47930489D02*
X57547619Y-47930489D01*
X57690476Y-48454299D02*
X57214286Y-48454299D01*
X57214286Y-48454299D02*
X57214286Y-47454299D01*
X57214286Y-47454299D02*
X57690476Y-47454299D01*
X58642857Y-47501918D02*
X58547619Y-47454299D01*
X58547619Y-47454299D02*
X58404762Y-47454299D01*
X58404762Y-47454299D02*
X58261905Y-47501918D01*
X58261905Y-47501918D02*
X58166667Y-47597156D01*
X58166667Y-47597156D02*
X58119048Y-47692394D01*
X58119048Y-47692394D02*
X58071429Y-47882870D01*
X58071429Y-47882870D02*
X58071429Y-48025727D01*
X58071429Y-48025727D02*
X58119048Y-48216203D01*
X58119048Y-48216203D02*
X58166667Y-48311441D01*
X58166667Y-48311441D02*
X58261905Y-48406680D01*
X58261905Y-48406680D02*
X58404762Y-48454299D01*
X58404762Y-48454299D02*
X58500000Y-48454299D01*
X58500000Y-48454299D02*
X58642857Y-48406680D01*
X58642857Y-48406680D02*
X58690476Y-48359060D01*
X58690476Y-48359060D02*
X58690476Y-48025727D01*
X58690476Y-48025727D02*
X58500000Y-48025727D01*
X59071429Y-48168584D02*
X59547619Y-48168584D01*
X58976191Y-48454299D02*
X59309524Y-47454299D01*
X59309524Y-47454299D02*
X59642857Y-48454299D01*
X59928572Y-48406680D02*
X60071429Y-48454299D01*
X60071429Y-48454299D02*
X60309524Y-48454299D01*
X60309524Y-48454299D02*
X60404762Y-48406680D01*
X60404762Y-48406680D02*
X60452381Y-48359060D01*
X60452381Y-48359060D02*
X60500000Y-48263822D01*
X60500000Y-48263822D02*
X60500000Y-48168584D01*
X60500000Y-48168584D02*
X60452381Y-48073346D01*
X60452381Y-48073346D02*
X60404762Y-48025727D01*
X60404762Y-48025727D02*
X60309524Y-47978108D01*
X60309524Y-47978108D02*
X60119048Y-47930489D01*
X60119048Y-47930489D02*
X60023810Y-47882870D01*
X60023810Y-47882870D02*
X59976191Y-47835251D01*
X59976191Y-47835251D02*
X59928572Y-47740013D01*
X59928572Y-47740013D02*
X59928572Y-47644775D01*
X59928572Y-47644775D02*
X59976191Y-47549537D01*
X59976191Y-47549537D02*
X60023810Y-47501918D01*
X60023810Y-47501918D02*
X60119048Y-47454299D01*
X60119048Y-47454299D02*
X60357143Y-47454299D01*
X60357143Y-47454299D02*
X60500000Y-47501918D01*
X61642858Y-47549537D02*
X61690477Y-47501918D01*
X61690477Y-47501918D02*
X61785715Y-47454299D01*
X61785715Y-47454299D02*
X62023810Y-47454299D01*
X62023810Y-47454299D02*
X62119048Y-47501918D01*
X62119048Y-47501918D02*
X62166667Y-47549537D01*
X62166667Y-47549537D02*
X62214286Y-47644775D01*
X62214286Y-47644775D02*
X62214286Y-47740013D01*
X62214286Y-47740013D02*
X62166667Y-47882870D01*
X62166667Y-47882870D02*
X61595239Y-48454299D01*
X61595239Y-48454299D02*
X62214286Y-48454299D01*
X62833334Y-47454299D02*
X62928572Y-47454299D01*
X62928572Y-47454299D02*
X63023810Y-47501918D01*
X63023810Y-47501918D02*
X63071429Y-47549537D01*
X63071429Y-47549537D02*
X63119048Y-47644775D01*
X63119048Y-47644775D02*
X63166667Y-47835251D01*
X63166667Y-47835251D02*
X63166667Y-48073346D01*
X63166667Y-48073346D02*
X63119048Y-48263822D01*
X63119048Y-48263822D02*
X63071429Y-48359060D01*
X63071429Y-48359060D02*
X63023810Y-48406680D01*
X63023810Y-48406680D02*
X62928572Y-48454299D01*
X62928572Y-48454299D02*
X62833334Y-48454299D01*
X62833334Y-48454299D02*
X62738096Y-48406680D01*
X62738096Y-48406680D02*
X62690477Y-48359060D01*
X62690477Y-48359060D02*
X62642858Y-48263822D01*
X62642858Y-48263822D02*
X62595239Y-48073346D01*
X62595239Y-48073346D02*
X62595239Y-47835251D01*
X62595239Y-47835251D02*
X62642858Y-47644775D01*
X62642858Y-47644775D02*
X62690477Y-47549537D01*
X62690477Y-47549537D02*
X62738096Y-47501918D01*
X62738096Y-47501918D02*
X62833334Y-47454299D01*
X63547620Y-47549537D02*
X63595239Y-47501918D01*
X63595239Y-47501918D02*
X63690477Y-47454299D01*
X63690477Y-47454299D02*
X63928572Y-47454299D01*
X63928572Y-47454299D02*
X64023810Y-47501918D01*
X64023810Y-47501918D02*
X64071429Y-47549537D01*
X64071429Y-47549537D02*
X64119048Y-47644775D01*
X64119048Y-47644775D02*
X64119048Y-47740013D01*
X64119048Y-47740013D02*
X64071429Y-47882870D01*
X64071429Y-47882870D02*
X63500001Y-48454299D01*
X63500001Y-48454299D02*
X64119048Y-48454299D01*
X64976191Y-47454299D02*
X64785715Y-47454299D01*
X64785715Y-47454299D02*
X64690477Y-47501918D01*
X64690477Y-47501918D02*
X64642858Y-47549537D01*
X64642858Y-47549537D02*
X64547620Y-47692394D01*
X64547620Y-47692394D02*
X64500001Y-47882870D01*
X64500001Y-47882870D02*
X64500001Y-48263822D01*
X64500001Y-48263822D02*
X64547620Y-48359060D01*
X64547620Y-48359060D02*
X64595239Y-48406680D01*
X64595239Y-48406680D02*
X64690477Y-48454299D01*
X64690477Y-48454299D02*
X64880953Y-48454299D01*
X64880953Y-48454299D02*
X64976191Y-48406680D01*
X64976191Y-48406680D02*
X65023810Y-48359060D01*
X65023810Y-48359060D02*
X65071429Y-48263822D01*
X65071429Y-48263822D02*
X65071429Y-48025727D01*
X65071429Y-48025727D02*
X65023810Y-47930489D01*
X65023810Y-47930489D02*
X64976191Y-47882870D01*
X64976191Y-47882870D02*
X64880953Y-47835251D01*
X64880953Y-47835251D02*
X64690477Y-47835251D01*
X64690477Y-47835251D02*
X64595239Y-47882870D01*
X64595239Y-47882870D02*
X64547620Y-47930489D01*
X64547620Y-47930489D02*
X64500001Y-48025727D01*
D14*
X7595238Y-9800095D02*
X7595238Y-7181047D01*
X7595238Y-7181047D02*
X7357143Y-6704857D01*
X7357143Y-6704857D02*
X6880952Y-6466761D01*
X6880952Y-6466761D02*
X5928571Y-6466761D01*
X5928571Y-6466761D02*
X5452381Y-6704857D01*
X7595238Y-9562000D02*
X7119047Y-9800095D01*
X7119047Y-9800095D02*
X5928571Y-9800095D01*
X5928571Y-9800095D02*
X5452381Y-9562000D01*
X5452381Y-9562000D02*
X5214285Y-9085809D01*
X5214285Y-9085809D02*
X5214285Y-8609619D01*
X5214285Y-8609619D02*
X5452381Y-8133428D01*
X5452381Y-8133428D02*
X5928571Y-7895333D01*
X5928571Y-7895333D02*
X7119047Y-7895333D01*
X7119047Y-7895333D02*
X7595238Y-7657238D01*
X9976191Y-9800095D02*
X9976191Y-6466761D01*
X9976191Y-4800095D02*
X9738095Y-5038190D01*
X9738095Y-5038190D02*
X9976191Y-5276285D01*
X9976191Y-5276285D02*
X10214286Y-5038190D01*
X10214286Y-5038190D02*
X9976191Y-4800095D01*
X9976191Y-4800095D02*
X9976191Y-5276285D01*
X12119047Y-9562000D02*
X12595238Y-9800095D01*
X12595238Y-9800095D02*
X13547619Y-9800095D01*
X13547619Y-9800095D02*
X14023809Y-9562000D01*
X14023809Y-9562000D02*
X14261905Y-9085809D01*
X14261905Y-9085809D02*
X14261905Y-8847714D01*
X14261905Y-8847714D02*
X14023809Y-8371523D01*
X14023809Y-8371523D02*
X13547619Y-8133428D01*
X13547619Y-8133428D02*
X12833333Y-8133428D01*
X12833333Y-8133428D02*
X12357143Y-7895333D01*
X12357143Y-7895333D02*
X12119047Y-7419142D01*
X12119047Y-7419142D02*
X12119047Y-7181047D01*
X12119047Y-7181047D02*
X12357143Y-6704857D01*
X12357143Y-6704857D02*
X12833333Y-6466761D01*
X12833333Y-6466761D02*
X13547619Y-6466761D01*
X13547619Y-6466761D02*
X14023809Y-6704857D01*
X16404762Y-9800095D02*
X16404762Y-4800095D01*
X16404762Y-6704857D02*
X16880952Y-6466761D01*
X16880952Y-6466761D02*
X17833333Y-6466761D01*
X17833333Y-6466761D02*
X18309524Y-6704857D01*
X18309524Y-6704857D02*
X18547619Y-6942952D01*
X18547619Y-6942952D02*
X18785714Y-7419142D01*
X18785714Y-7419142D02*
X18785714Y-8847714D01*
X18785714Y-8847714D02*
X18547619Y-9323904D01*
X18547619Y-9323904D02*
X18309524Y-9562000D01*
X18309524Y-9562000D02*
X17833333Y-9800095D01*
X17833333Y-9800095D02*
X16880952Y-9800095D01*
X16880952Y-9800095D02*
X16404762Y-9562000D01*
X20928572Y-9323904D02*
X21166667Y-9562000D01*
X21166667Y-9562000D02*
X20928572Y-9800095D01*
X20928572Y-9800095D02*
X20690476Y-9562000D01*
X20690476Y-9562000D02*
X20928572Y-9323904D01*
X20928572Y-9323904D02*
X20928572Y-9800095D01*
X25452381Y-9800095D02*
X25452381Y-4800095D01*
X25452381Y-9562000D02*
X24976190Y-9800095D01*
X24976190Y-9800095D02*
X24023809Y-9800095D01*
X24023809Y-9800095D02*
X23547619Y-9562000D01*
X23547619Y-9562000D02*
X23309524Y-9323904D01*
X23309524Y-9323904D02*
X23071428Y-8847714D01*
X23071428Y-8847714D02*
X23071428Y-7419142D01*
X23071428Y-7419142D02*
X23309524Y-6942952D01*
X23309524Y-6942952D02*
X23547619Y-6704857D01*
X23547619Y-6704857D02*
X24023809Y-6466761D01*
X24023809Y-6466761D02*
X24976190Y-6466761D01*
X24976190Y-6466761D02*
X25452381Y-6704857D01*
X29738096Y-9562000D02*
X29261905Y-9800095D01*
X29261905Y-9800095D02*
X28309524Y-9800095D01*
X28309524Y-9800095D02*
X27833334Y-9562000D01*
X27833334Y-9562000D02*
X27595238Y-9085809D01*
X27595238Y-9085809D02*
X27595238Y-7181047D01*
X27595238Y-7181047D02*
X27833334Y-6704857D01*
X27833334Y-6704857D02*
X28309524Y-6466761D01*
X28309524Y-6466761D02*
X29261905Y-6466761D01*
X29261905Y-6466761D02*
X29738096Y-6704857D01*
X29738096Y-6704857D02*
X29976191Y-7181047D01*
X29976191Y-7181047D02*
X29976191Y-7657238D01*
X29976191Y-7657238D02*
X27595238Y-8133428D01*
X31642857Y-6466761D02*
X32833333Y-9800095D01*
X32833333Y-9800095D02*
X34023810Y-6466761D01*
D12*
X3283333Y-93767295D02*
X3283333Y-94338723D01*
X3283333Y-94338723D02*
X3245238Y-94453009D01*
X3245238Y-94453009D02*
X3169047Y-94529200D01*
X3169047Y-94529200D02*
X3054762Y-94567295D01*
X3054762Y-94567295D02*
X2978571Y-94567295D01*
X4083333Y-94567295D02*
X3626190Y-94567295D01*
X3854762Y-94567295D02*
X3854762Y-93767295D01*
X3854762Y-93767295D02*
X3778571Y-93881580D01*
X3778571Y-93881580D02*
X3702381Y-93957771D01*
X3702381Y-93957771D02*
X3626190Y-93995866D01*
D15*
X3264285Y-101968304D02*
X3114285Y-101968304D01*
X3114285Y-102204018D02*
X3114285Y-101754018D01*
X3114285Y-101754018D02*
X3328571Y-101754018D01*
X3714285Y-102204018D02*
X3499999Y-102204018D01*
X3499999Y-102204018D02*
X3499999Y-101754018D01*
X3864285Y-101968304D02*
X4014285Y-101968304D01*
X4078571Y-102204018D02*
X3864285Y-102204018D01*
X3864285Y-102204018D02*
X3864285Y-101754018D01*
X3864285Y-101754018D02*
X4078571Y-101754018D01*
X4228571Y-101754018D02*
X4528571Y-102204018D01*
X4528571Y-101754018D02*
X4228571Y-102204018D01*
X5042856Y-101968304D02*
X5192856Y-101968304D01*
X5257142Y-102204018D02*
X5042856Y-102204018D01*
X5042856Y-102204018D02*
X5042856Y-101754018D01*
X5042856Y-101754018D02*
X5257142Y-101754018D01*
X5449999Y-102204018D02*
X5449999Y-101754018D01*
X5449999Y-101754018D02*
X5707142Y-102204018D01*
X5707142Y-102204018D02*
X5707142Y-101754018D01*
X5857143Y-101754018D02*
X6114286Y-101754018D01*
X5985714Y-102204018D02*
X5985714Y-101754018D01*
X6521428Y-102204018D02*
X6371428Y-101989732D01*
X6264285Y-102204018D02*
X6264285Y-101754018D01*
X6264285Y-101754018D02*
X6435714Y-101754018D01*
X6435714Y-101754018D02*
X6478571Y-101775447D01*
X6478571Y-101775447D02*
X6500000Y-101796875D01*
X6500000Y-101796875D02*
X6521428Y-101839732D01*
X6521428Y-101839732D02*
X6521428Y-101904018D01*
X6521428Y-101904018D02*
X6500000Y-101946875D01*
X6500000Y-101946875D02*
X6478571Y-101968304D01*
X6478571Y-101968304D02*
X6435714Y-101989732D01*
X6435714Y-101989732D02*
X6264285Y-101989732D01*
X6800000Y-101989732D02*
X6800000Y-102204018D01*
X6650000Y-101754018D02*
X6800000Y-101989732D01*
X6800000Y-101989732D02*
X6950000Y-101754018D01*
D12*
X8233333Y-24062295D02*
X8233333Y-24633723D01*
X8233333Y-24633723D02*
X8195238Y-24748009D01*
X8195238Y-24748009D02*
X8119047Y-24824200D01*
X8119047Y-24824200D02*
X8004762Y-24862295D01*
X8004762Y-24862295D02*
X7928571Y-24862295D01*
X8576190Y-24138485D02*
X8614286Y-24100390D01*
X8614286Y-24100390D02*
X8690476Y-24062295D01*
X8690476Y-24062295D02*
X8880952Y-24062295D01*
X8880952Y-24062295D02*
X8957143Y-24100390D01*
X8957143Y-24100390D02*
X8995238Y-24138485D01*
X8995238Y-24138485D02*
X9033333Y-24214676D01*
X9033333Y-24214676D02*
X9033333Y-24290866D01*
X9033333Y-24290866D02*
X8995238Y-24405152D01*
X8995238Y-24405152D02*
X8538095Y-24862295D01*
X8538095Y-24862295D02*
X9033333Y-24862295D01*
X6880952Y-26633723D02*
X7261905Y-26633723D01*
X6804762Y-26862295D02*
X7071429Y-26062295D01*
X7071429Y-26062295D02*
X7338095Y-26862295D01*
X7604762Y-26062295D02*
X7604762Y-26709914D01*
X7604762Y-26709914D02*
X7642857Y-26786104D01*
X7642857Y-26786104D02*
X7680952Y-26824200D01*
X7680952Y-26824200D02*
X7757143Y-26862295D01*
X7757143Y-26862295D02*
X7909524Y-26862295D01*
X7909524Y-26862295D02*
X7985714Y-26824200D01*
X7985714Y-26824200D02*
X8023809Y-26786104D01*
X8023809Y-26786104D02*
X8061905Y-26709914D01*
X8061905Y-26709914D02*
X8061905Y-26062295D01*
X8442857Y-26862295D02*
X8442857Y-26062295D01*
X8442857Y-26062295D02*
X8633333Y-26062295D01*
X8633333Y-26062295D02*
X8747619Y-26100390D01*
X8747619Y-26100390D02*
X8823809Y-26176580D01*
X8823809Y-26176580D02*
X8861904Y-26252771D01*
X8861904Y-26252771D02*
X8900000Y-26405152D01*
X8900000Y-26405152D02*
X8900000Y-26519438D01*
X8900000Y-26519438D02*
X8861904Y-26671819D01*
X8861904Y-26671819D02*
X8823809Y-26748009D01*
X8823809Y-26748009D02*
X8747619Y-26824200D01*
X8747619Y-26824200D02*
X8633333Y-26862295D01*
X8633333Y-26862295D02*
X8442857Y-26862295D01*
X9242857Y-26862295D02*
X9242857Y-26062295D01*
X9776190Y-26062295D02*
X9928571Y-26062295D01*
X9928571Y-26062295D02*
X10004761Y-26100390D01*
X10004761Y-26100390D02*
X10080952Y-26176580D01*
X10080952Y-26176580D02*
X10119047Y-26328961D01*
X10119047Y-26328961D02*
X10119047Y-26595628D01*
X10119047Y-26595628D02*
X10080952Y-26748009D01*
X10080952Y-26748009D02*
X10004761Y-26824200D01*
X10004761Y-26824200D02*
X9928571Y-26862295D01*
X9928571Y-26862295D02*
X9776190Y-26862295D01*
X9776190Y-26862295D02*
X9699999Y-26824200D01*
X9699999Y-26824200D02*
X9623809Y-26748009D01*
X9623809Y-26748009D02*
X9585713Y-26595628D01*
X9585713Y-26595628D02*
X9585713Y-26328961D01*
X9585713Y-26328961D02*
X9623809Y-26176580D01*
X9623809Y-26176580D02*
X9699999Y-26100390D01*
X9699999Y-26100390D02*
X9776190Y-26062295D01*
%TO.C,J1*%
X4500000Y-87205000D02*
X8300000Y-87205000D01*
X8300000Y-101205000D01*
X4500000Y-101205000D01*
X4500000Y-87205000D01*
D14*
X4500000Y-100455000D02*
X3950000Y-100455000D01*
%TD*%
M02*
