<svg xmlns:xlink="http://www.w3.org/1999/xlink" xmlns="http://www.w3.org/2000/svg" width="100" height="34" viewBox="0 0 100 34" fill="none">
  <path d="M63.0772 5.72632C61.1884 5.72632 59.3421 5.72632 57.4587 5.72632C57.4587 5.48 57.4587 5.24394 57.4587 5.00788C57.4534 4.45366 57.2411 4.24839 56.6734 4.24839C51.543 4.24839 46.4179 4.24839 41.2875 4.24839C41.1549 4.24839 41.0223 4.25866 40.8949 4.28432C40.6615 4.32537 40.5395 4.47419 40.5395 4.69998C40.5342 5.2542 40.5289 5.81356 40.5395 6.36778C40.5448 6.5987 40.8313 6.81424 41.1496 6.83989C41.2451 6.85016 41.3459 6.84503 41.4414 6.84503C46.5612 6.84503 51.681 6.84503 56.8008 6.84503C57.7876 6.84503 58.7532 6.97845 59.6764 7.33767C60.6313 7.71228 61.4749 8.24598 62.1434 9.02086C62.7429 9.71364 63.0719 10.509 63.0825 11.4174C63.0878 12.0691 63.0931 12.7157 63.0825 13.3674C63.0613 14.6452 62.4617 15.6407 61.4643 16.4361C60.2069 17.4317 58.7532 17.9449 57.1403 17.95C51.6651 17.9654 46.1951 17.9808 40.7198 17.9397C38.8205 17.9243 37.1705 17.2213 35.9025 15.8101C35.2446 15.0814 34.9369 14.2141 34.9369 13.2442C34.9369 12.9774 34.9422 12.7157 34.9369 12.4488C34.9316 12.2949 34.9846 12.2384 35.1491 12.2384C36.8734 12.2436 38.5977 12.2436 40.3219 12.2384C40.5023 12.2384 40.5501 12.3051 40.5448 12.4642C40.5342 12.6695 40.5342 12.8748 40.5448 13.08C40.566 13.5213 40.7676 13.7112 41.2292 13.7112C46.4286 13.7112 51.6279 13.7112 56.8273 13.7112C57.326 13.7112 57.4693 13.5675 57.4693 13.08C57.4693 12.6028 57.4746 12.1204 57.4693 11.6432C57.464 11.2685 57.326 11.1351 56.944 11.1146C56.8538 11.1095 56.7689 11.1146 56.6788 11.1146C51.4794 11.1146 46.28 11.1197 41.0806 11.1095C39.3457 11.1043 37.7753 10.6271 36.4489 9.50324C35.4356 8.64112 34.8997 7.57373 34.9369 6.25488C34.9581 5.60829 34.9316 4.95657 34.9687 4.30484C35.0324 3.28877 35.5205 2.45744 36.2685 1.77492C37.5631 0.594635 39.1282 0.0250181 40.8896 0.0198864C46.3118 0.00449132 51.7287 -0.000640367 57.1509 0.0198864C58.9707 0.0301497 60.5783 0.635688 61.8781 1.89808C62.6686 2.6627 63.0878 3.59154 63.0825 4.67945C63.0772 5.01815 63.0772 5.36197 63.0772 5.72632Z" fill="#004987"/>
  <path d="M66.7112 6.77316C67.3532 6.8604 68.0004 6.9425 68.6424 7.03487C70.2606 7.26067 71.8787 7.46594 73.4863 7.72765C75.7571 8.092 78.0278 8.47174 80.2879 8.89767C84.0442 9.60071 87.7422 10.5193 91.2756 11.9664C91.7531 12.1614 92.2253 12.3821 92.6922 12.6028C92.7718 12.6438 92.8673 12.7567 92.8673 12.8388C92.8779 14.5169 92.8726 16.1898 92.8726 17.8679C92.8726 17.8833 92.8673 17.8986 92.8566 17.9397C90.9997 17.9397 89.1428 17.9397 87.2487 17.9397C87.2487 15.6818 87.2487 13.4238 87.2487 11.1402C81.5984 11.1402 75.9799 11.1402 70.3349 11.1402C70.3349 13.4033 70.3349 15.6664 70.3349 17.9448C68.4567 17.9448 66.6051 17.9448 64.7217 17.9448C64.7217 17.8217 64.7217 17.7139 64.7217 17.6061C64.7217 13.3571 64.7323 9.10294 64.7163 4.85391C64.711 3.50941 65.2469 2.43688 66.2815 1.57476C67.5283 0.543293 68.9926 0.030125 70.616 0.0249933C76.0701 0.0044666 81.5241 -0.00579677 86.9835 0.030125C88.9783 0.0455201 90.7079 0.763956 92.0078 2.28293C92.5808 2.95005 92.8673 3.74033 92.8726 4.60246C92.8885 6.68079 92.8779 8.75912 92.8779 10.8375C92.8779 10.8836 92.8726 10.935 92.8673 10.9914C92.2147 10.7656 91.5833 10.5295 90.9414 10.3243C88.4902 9.54427 85.986 8.96439 83.4447 8.52819C81.4499 8.18437 79.4391 7.8816 77.4336 7.61475C75.8526 7.40435 74.2556 7.26067 72.664 7.12724C70.7434 6.97329 68.8228 6.8604 66.9022 6.7321C66.8438 6.72697 66.7802 6.7321 66.7218 6.7321C66.7165 6.74237 66.7165 6.75776 66.7112 6.77316ZM70.3349 6.82447C75.9905 6.82447 81.609 6.82447 87.2381 6.82447C87.2381 6.17788 87.2381 5.55182 87.2381 4.93088C87.2381 4.37153 87.1214 4.2535 86.5431 4.2535C81.3756 4.2535 76.2027 4.2535 71.0352 4.2535C70.8972 4.2535 70.7328 4.24837 70.6213 4.30995C70.4993 4.37666 70.3508 4.52035 70.3455 4.63838C70.3189 5.36708 70.3349 6.09064 70.3349 6.82447Z" fill="#004987"/>
  <path d="M33.1539 6.80916C31.2652 6.80916 29.4135 6.80916 27.5301 6.80916C27.5301 6.21901 27.5301 5.64939 27.5301 5.07978C27.5301 4.96175 27.5301 4.83859 27.5301 4.72056C27.5248 4.47424 27.3975 4.32029 27.1428 4.2741C27.0208 4.25358 26.8987 4.25358 26.7714 4.25358C21.641 4.25358 16.5159 4.25358 11.3855 4.25358C11.3218 4.25358 11.2635 4.25358 11.1998 4.25358C10.7488 4.2741 10.6003 4.41779 10.6003 4.85398C10.6003 6.82968 10.6003 8.80538 10.6003 10.7811C10.6003 11.5611 10.6003 12.336 10.6003 13.116C10.6003 13.5471 10.7648 13.7061 11.2104 13.7061C16.4522 13.7061 21.6941 13.7061 26.9412 13.7061C27.3762 13.7061 27.5248 13.5522 27.5301 13.1314C27.5301 12.4797 27.5301 11.8331 27.5301 11.1557C29.4029 11.1557 31.2599 11.1557 33.1274 11.1557C33.138 11.1916 33.1486 11.2224 33.1486 11.2583C33.1486 12.0691 33.1857 12.8851 33.1274 13.6959C33.0425 14.8659 32.4058 15.7639 31.4827 16.4824C30.2465 17.4369 28.8246 17.9449 27.2489 17.95C21.7577 17.9654 16.2665 17.9808 10.7754 17.9398C8.92906 17.9244 7.31619 17.2419 6.04818 15.8974C5.34255 15.1533 5.003 14.2604 5.003 13.2545C4.9977 10.4065 4.9977 7.55838 5.003 4.7103C5.00831 3.3504 5.64497 2.28814 6.72198 1.44655C7.95285 0.492053 9.37472 0.019938 10.9398 0.0148063C16.378 -0.00058875 21.8161 -0.0108521 27.2542 0.019938C29.1217 0.0302014 30.7611 0.671662 32.0663 2.0059C32.7931 2.74999 33.1645 3.64291 33.1592 4.67951C33.1486 5.38255 33.1539 6.08046 33.1539 6.80916Z" fill="#CC0033"/>
  <path d="M99.5893 19.8184C99.706 20.2853 99.8386 20.7523 99.9341 21.2244C100.215 22.6305 99.5628 23.7082 98.6131 24.6781C97.5467 25.766 96.2309 26.4895 94.8515 27.1156C91.9865 28.4139 88.9836 29.3171 85.9223 30.0612C82.8292 30.8156 79.699 31.38 76.5423 31.7906C74.436 32.0626 72.3191 32.2935 70.1969 32.468C67.9633 32.6527 65.7191 32.7707 63.4801 32.8939C59.761 33.0992 56.0419 33.0427 52.3227 33.0273C50.4127 33.017 48.5081 32.9401 46.6034 32.8631C44.5979 32.781 42.5977 32.6886 40.5976 32.5603C38.3587 32.4166 36.1198 32.2627 33.8914 32.042C31.1697 31.7803 28.448 31.4673 25.7369 31.1389C21.9647 30.6821 18.2137 30.0663 14.484 29.3376C9.88943 28.4345 5.34262 27.3671 0.901933 25.8943C0.636658 25.807 0.371384 25.7095 0.10611 25.6172C0.0901933 25.612 0.0795823 25.5966 0 25.5453C0.456272 25.6531 0.848878 25.7557 1.24148 25.8378C4.56802 26.5409 7.89987 27.2747 11.2476 27.9162C13.6351 28.3729 16.0438 28.7372 18.4525 29.0862C20.5747 29.3941 22.7022 29.6404 24.835 29.8765C26.9306 30.1074 29.0316 30.3075 31.1326 30.4769C33.0585 30.6308 34.9897 30.7488 36.9209 30.8515C39.0006 30.9592 41.0857 31.0414 43.1654 31.1235C44.391 31.1696 45.6219 31.1953 46.8474 31.2261C48.4285 31.262 50.0095 31.3082 51.5905 31.3287C53.3042 31.3493 55.0232 31.3954 56.7316 31.3441C59.2623 31.2723 61.7983 31.1491 64.329 31.0054C66.17 30.9028 68.011 30.7642 69.8467 30.5795C72.1652 30.3486 74.4784 30.0715 76.7863 29.779C80.2243 29.3376 83.6357 28.7424 87.0047 27.9264C89.6468 27.2901 92.2359 26.5049 94.6764 25.3041C96.0717 24.6165 97.3822 23.8159 98.4168 22.6562C98.9685 22.0404 99.3877 21.3476 99.4938 20.5214C99.5203 20.2956 99.4991 20.0647 99.4991 19.8338C99.5309 19.8286 99.5574 19.8235 99.5893 19.8184Z" fill="#004987"/>
  <path d="M23.0845 20.0236C23.4187 20.0236 23.737 20.0133 24.0501 20.0338C24.1243 20.039 24.2198 20.1365 24.2676 20.2134C25.0369 21.5117 25.7956 22.8101 26.5596 24.1135C26.602 24.1854 26.6445 24.2572 26.7506 24.3239C26.7506 22.8973 26.7506 21.4707 26.7506 20.039C27.0318 20.039 27.2705 20.039 27.5305 20.039C27.5305 21.7889 27.5305 23.5336 27.5305 25.2938C27.2068 25.2938 26.8991 25.3092 26.5914 25.2835C26.5012 25.2733 26.3898 25.1655 26.3367 25.0783C25.5674 23.78 24.8088 22.4816 24.0448 21.1782C24.0023 21.1063 23.9546 21.0396 23.8644 20.9781C23.8644 22.4047 23.8644 23.8364 23.8644 25.2784C23.5885 25.2784 23.3497 25.2784 23.0845 25.2784C23.0845 23.5336 23.0845 21.7991 23.0845 20.0236Z" fill="#004987"/>
  <path d="M66.78 22.7123C66.7747 21.8246 66.9922 21.0805 67.6607 20.5365C68.5414 19.8181 69.5653 19.7513 70.5999 20.1106C71.5867 20.4493 72.0642 21.2087 72.1916 22.194C72.2658 22.7688 72.2287 23.3384 71.9953 23.8772C71.6133 24.7701 70.897 25.2628 69.9155 25.3654C68.8385 25.4783 67.8941 25.2371 67.2415 24.3237C66.8861 23.8259 66.7747 23.2512 66.78 22.7123ZM71.4647 22.6302C71.3798 22.2813 71.3321 21.8964 71.1941 21.5423C70.9289 20.8803 70.393 20.516 69.6555 20.4698C68.8597 20.4236 68.2284 20.711 67.8729 21.4191C67.4856 22.1889 67.4856 22.9946 67.8198 23.7797C68.1329 24.5187 68.7642 24.8625 69.6396 24.842C70.3665 24.8215 70.9978 24.3801 71.2472 23.6668C71.348 23.3487 71.3851 23.0048 71.4647 22.6302Z" fill="#004987"/>
  <path d="M78.4258 25.2677C78.4258 23.5229 78.4258 21.7935 78.4258 20.0231C78.7017 20.0231 78.9722 20.0129 79.2428 20.0231C79.8689 20.0488 80.5055 20.018 81.1104 20.136C82.0494 20.3105 82.4951 21.3009 82.0866 22.1425C81.9221 22.4812 81.625 22.6608 81.2801 22.7942C82.1821 23.4152 82.4208 24.4312 83.015 25.2882C82.7232 25.2882 82.5004 25.2985 82.2723 25.2831C82.198 25.278 82.1078 25.201 82.0706 25.1343C81.8213 24.7032 81.5772 24.267 81.3491 23.8257C81.0626 23.2715 80.6169 22.9944 79.9697 23.0303C79.7256 23.0457 79.4763 23.0303 79.2057 23.0303C79.2057 23.7846 79.2057 24.5185 79.2057 25.2677C78.9404 25.2677 78.6964 25.2677 78.4258 25.2677ZM79.2057 22.512C79.7203 22.4812 80.219 22.4915 80.6965 22.4196C81.1422 22.3529 81.3756 22.0091 81.3809 21.5729C81.3862 21.07 81.1793 20.721 80.7337 20.644C80.235 20.5619 79.7256 20.5722 79.2004 20.5414C79.2057 21.2188 79.2057 21.8295 79.2057 22.512Z" fill="#004987"/>
  <path d="M36.7832 23.1432C36.7832 22.9379 36.7832 22.7788 36.7832 22.6044C37.4782 22.6044 38.1626 22.6044 38.8736 22.6044C38.8736 23.3228 38.8789 24.031 38.8683 24.7391C38.8683 24.7956 38.7993 24.8777 38.7356 24.9085C37.5578 25.4884 36.3375 25.6064 35.112 25.0778C34.2472 24.7032 33.8387 23.9745 33.7485 23.0816C33.6954 22.553 33.7166 22.0193 33.9182 21.5164C34.2631 20.6492 34.9422 20.1668 35.8654 19.9975C36.7248 19.8384 37.5684 19.9256 38.3802 20.2592C38.6401 20.3618 38.7622 20.5004 38.7197 20.7723C38.7038 20.8801 38.7144 20.993 38.7144 21.1624C38.5924 21.0803 38.5022 21.0238 38.412 20.9674C37.6798 20.5004 36.8787 20.3669 36.0298 20.5466C35.2605 20.7056 34.799 21.1778 34.6239 21.9167C34.5072 22.4145 34.5072 22.9123 34.6239 23.4152C34.8043 24.2003 35.3295 24.6827 36.1519 24.811C36.7355 24.9034 37.3138 24.8777 37.8761 24.6776C38.03 24.6262 38.099 24.5493 38.0937 24.3799C38.0831 23.9797 38.0884 23.5794 38.0884 23.1535C37.6427 23.1432 37.2236 23.1432 36.7832 23.1432Z" fill="#004987"/>
  <path d="M45.165 25.2883C45.356 24.8419 45.5311 24.4262 45.7062 24.0106C46.2421 22.7584 46.7832 21.5063 47.3138 20.249C47.3827 20.0797 47.4676 20.0181 47.6586 20.0232C48.3165 20.0335 48.3165 20.0232 48.5659 20.6185C49.1972 22.1016 49.8286 23.5846 50.4599 25.0677C50.4864 25.1293 50.5077 25.1908 50.5501 25.2883C50.2954 25.2883 50.0673 25.2986 49.8445 25.2832C49.7861 25.2781 49.7065 25.1908 49.68 25.1241C49.5368 24.7854 49.4041 24.4416 49.2821 24.0927C49.229 23.949 49.1548 23.8977 48.9956 23.8977C48.2422 23.9079 47.4941 23.9028 46.7408 23.8977C46.5816 23.8977 46.502 23.9438 46.4543 24.0875C46.3322 24.4365 46.1837 24.7752 46.0617 25.119C46.0139 25.2422 45.9502 25.2935 45.8123 25.2883C45.6107 25.2781 45.4091 25.2883 45.165 25.2883ZM47.8974 20.7827C47.8761 20.7776 47.8549 20.7776 47.8337 20.7725C47.4835 21.6243 47.1334 22.4762 46.7779 23.3383C47.526 23.3383 48.221 23.3383 48.9532 23.3383C48.5924 22.4659 48.2422 21.6243 47.8974 20.7827Z" fill="#004987"/>
  <path d="M92.8522 20.0439C92.8522 20.2133 92.8522 20.3724 92.8522 20.5622C91.8759 20.5622 90.9103 20.5622 89.9288 20.5622C89.9288 21.1113 89.9288 21.6296 89.9288 22.1736C90.8573 22.1736 91.7751 22.1736 92.7089 22.1736C92.7089 22.3635 92.7089 22.5277 92.7089 22.7227C91.7804 22.7227 90.8679 22.7227 89.9341 22.7227C89.9341 23.4001 89.9341 24.0569 89.9341 24.7343C90.9263 24.7343 91.9131 24.7343 92.9158 24.7343C92.9158 24.9242 92.9158 25.0935 92.9158 25.2731C91.6637 25.2731 90.4116 25.2731 89.1489 25.2731C89.1489 23.5284 89.1489 21.799 89.1489 20.0439C90.3692 20.0439 91.5948 20.0439 92.8522 20.0439Z" fill="#004987"/>
  <path d="M9.63443 20.8239C9.19938 20.711 8.79086 20.5519 8.37173 20.5058C8.00565 20.4647 7.61304 20.5109 7.25227 20.593C6.84375 20.6854 6.64214 21.0189 6.65275 21.3987C6.66336 21.7476 6.86497 21.9632 7.1886 22.0504C7.61304 22.1633 8.04809 22.23 8.47784 22.3378C8.7325 22.3994 8.98716 22.4866 9.22061 22.5944C9.76707 22.8458 9.99521 23.3077 9.9899 23.867C9.9846 24.452 9.72463 24.9087 9.14633 25.1499C8.33459 25.4886 7.49102 25.4476 6.65275 25.2731C6.47236 25.2372 6.29728 25.1705 6.1169 25.1345C5.90468 25.0935 5.82509 24.9806 5.85162 24.7753C5.86754 24.6522 5.85693 24.5239 5.85693 24.3802C6.19117 24.5033 6.48828 24.6214 6.796 24.7137C7.33716 24.8728 7.88893 24.919 8.4407 24.7599C8.90758 24.6265 9.16755 24.3289 9.17816 23.9286C9.18877 23.5335 8.97125 23.2307 8.50436 23.087C8.14359 22.9741 7.7669 22.9228 7.39552 22.8407C7.23105 22.8048 7.06658 22.7688 6.90741 22.7175C6.14342 22.4712 5.82509 22.0709 5.83571 21.3781C5.84632 20.7469 6.24953 20.244 6.95516 20.049C7.81465 19.813 8.66884 19.9361 9.51771 20.1517C9.56546 20.1619 9.62913 20.2389 9.63443 20.2902C9.63974 20.4647 9.63443 20.6494 9.63443 20.8239Z" fill="#004987"/>
  <path d="M57.6014 23.1331C57.6014 23.8669 57.6014 24.5597 57.6014 25.2678C57.3414 25.2678 57.0974 25.2678 56.8374 25.2678C56.8374 23.5333 56.8374 21.7937 56.8374 20.0233C57.4741 20.0233 58.1054 20.0181 58.7368 20.0284C58.9649 20.0335 59.1983 20.0592 59.4159 20.1105C60.2594 20.3106 60.6627 20.8495 60.6149 21.7064C60.5725 22.4608 60.0897 22.9688 59.2673 23.0817C59.0233 23.1177 58.7739 23.1228 58.5299 23.1331C58.2381 23.1382 57.9409 23.1331 57.6014 23.1331ZM57.612 22.5686C58.0683 22.5686 58.5033 22.6045 58.9278 22.5583C59.4477 22.5019 59.7554 22.1734 59.7926 21.7321C59.8403 21.1779 59.6387 20.7622 59.1559 20.6647C58.6572 20.5621 58.1372 20.5723 57.612 20.5313C57.612 21.2549 57.612 21.9015 57.612 22.5686Z" fill="#004987"/>
  <path d="M15.9849 20.0386C16.2342 20.0386 16.473 20.0386 16.7276 20.0386C16.7276 21.7782 16.7276 23.5179 16.7276 25.2729C16.4836 25.2729 16.2448 25.2729 15.9849 25.2729C15.9849 23.5333 15.9849 21.7987 15.9849 20.0386Z" fill="#004987"/>
</svg>