<svg xmlns="http://www.w3.org/2000/svg" viewBox="0 0 135.27 16"><defs><clipPath clipPathUnits="userSpaceOnUse" id="a"><path d="M0 0h102v12H0Z"/></clipPath><clipPath clipPathUnits="userSpaceOnUse" id="b"><path d="M0 0h102v12H0Z"/></clipPath><clipPath clipPathUnits="userSpaceOnUse" id="c"><path d="M0 0h102v12H0Z"/></clipPath><clipPath clipPathUnits="userSpaceOnUse" id="d"><path d="M0 0h102v12H0Z"/></clipPath><clipPath clipPathUnits="userSpaceOnUse" id="e"><path d="M0 0h102v12H0Z"/></clipPath><clipPath clipPathUnits="userSpaceOnUse" id="f"><path d="M0 0h102v12H0Z"/></clipPath><clipPath clipPathUnits="userSpaceOnUse" id="g"><path d="M0 0h102v12H0Z"/></clipPath><clipPath clipPathUnits="userSpaceOnUse" id="h"><path d="M0 0h102v12H0Z"/></clipPath><clipPath clipPathUnits="userSpaceOnUse" id="i"><path d="M0 0h102v12H0Z"/></clipPath><clipPath clipPathUnits="userSpaceOnUse" id="j"><path d="M0 0h102v12H0Z"/></clipPath><clipPath clipPathUnits="userSpaceOnUse" id="k"><path d="M0 0h102v12H0Z"/></clipPath><clipPath clipPathUnits="userSpaceOnUse" id="l"><path d="M0 0h102v12H0Z"/></clipPath><clipPath clipPathUnits="userSpaceOnUse" id="n"><path d="M0 0h102v12H0Z"/></clipPath><clipPath clipPathUnits="userSpaceOnUse" id="o"><path d="M0 0h102v12H0Z"/></clipPath><clipPath clipPathUnits="userSpaceOnUse" id="p"><path d="M0 0h102v12H0Z"/></clipPath><clipPath clipPathUnits="userSpaceOnUse" id="q"><path d="M0 0h102v12H0Z"/></clipPath><linearGradient x1="0" y1="0" x2="1" y2="0" gradientUnits="userSpaceOnUse" gradientTransform="matrix(10.63673 0 0 10.63673 0 2.286)" spreadMethod="pad" id="m"><stop style="stop-opacity:1;stop-color:#f18513;--darkreader-inline-stopcolor:#f2912a" offset="0"/><stop style="stop-opacity:1;stop-color:#e02e1d;--darkreader-inline-stopcolor:#e54435" offset="1"/></linearGradient></defs><g style="fill:#000;--darkreader-inline-fill:var(--darkreader-text-000000, #e8e6e3)"><path d="M38.645 1.316v4.446L42.836.453c.223-.285.543-.445.883-.445h2.371l-4.621 5.855 4.668 6.121h-2.539c-.352 0-.688-.175-.91-.476l-4.043-5.481v5.957h-1.247c-.648 0-1.175-.586-1.175-1.312V.008h1.242c.652 0 1.18.586 1.18 1.312z" style="fill:#000;fill-opacity:1;fill-rule:nonzero;stroke:none;--darkreader-inline-fill:var(--darkreader-text-000000, #e8e6e3);--darkreader-inline-stroke:none" transform="scale(1.33333)" clip-path="url(#a)"/></g><g style="fill:#000;--darkreader-inline-fill:var(--darkreader-text-000000, #e8e6e3)"><path d="M25.406 2.098h4.211s.953-.032 1.485.222c.425.203.668.629.668 1.34.007.563-.137.942-.415 1.152.247.211.508.5.77.887.121.188.297.481.527.903.012.027.036.05.051.074.402-.219.731-.508.969-.887.379-.605.562-1.328.551-2.16 0-.078-.075-1.172-.282-1.672-.16-.387-.359-.727-.648-1.016a2.502 2.502 0 0 0-1.117-.687c-.668-.215-1.371-.25-1.981-.25h-5.968V.84c0 .726.527 1.258 1.179 1.258z" style="fill:#000;fill-opacity:1;fill-rule:nonzero;stroke:none;--darkreader-inline-fill:var(--darkreader-text-000000, #e8e6e3);--darkreader-inline-stroke:none" transform="scale(1.33333)" clip-path="url(#b)"/></g><g style="fill:#000;--darkreader-inline-fill:var(--darkreader-text-000000, #e8e6e3)"><path d="M31.418 6.254c-.602-.902-1.195-1.102-1.566-1.125-.387-.027-3.204.004-3.204.004V4.32c0-.726-.527-1.312-1.179-1.312h-1.242v7.668c0 .722.527 1.308 1.175 1.308h1.246V7.23h2.856l2.363 4.438a.578.578 0 0 0 .508.316h2.391l-2.821-4.839c-.015-.024-.422-.731-.527-.891" style="fill:#000;fill-opacity:1;fill-rule:nonzero;stroke:none;--darkreader-inline-fill:var(--darkreader-text-000000, #e8e6e3);--darkreader-inline-stroke:none" transform="scale(1.33333)" clip-path="url(#c)"/></g><g style="fill:#000;--darkreader-inline-fill:var(--darkreader-text-000000, #e8e6e3)"><path d="M92.402 3.035a4.376 4.376 0 0 1 1.348-1.996c.535-.445 1.105-.727 1.707-.851a9.525 9.525 0 0 1 1.887-.184h2.914c.652 0 1.18.59 1.18 1.312v.782h-3.981s-.84-.004-1.281.043c0 0-1.309.105-2.266.629-.93.507-1.402.929-1.902 1.64 0 0 .242-.914.394-1.375" style="fill:#000;fill-opacity:1;fill-rule:nonzero;stroke:none;--darkreader-inline-fill:var(--darkreader-text-000000, #e8e6e3);--darkreader-inline-stroke:none" transform="scale(1.33333)" clip-path="url(#d)"/></g><g style="fill:#000;--darkreader-inline-fill:var(--darkreader-text-000000, #e8e6e3)"><path d="M0 3.004v7.672c0 .722.531 1.308 1.18 1.308h4.164c.664 0 1.297-.058 1.902-.179.606-.125 1.137-.453 1.695-.852.954-.683 1.454-2.152 1.489-2.488.164-1.535-.032-2.754-.688-3.633-.519-.691-1.254-1.121-2.023-1.383.047.11.09.223.125.344.152.578.215 1.512.215 1.695 0 0 .039.996-.016 1.528a7.541 7.541 0 0 1-.203 1.183 2.739 2.739 0 0 1-.535 1.051c-.258.301-.555.488-.891.559-.34.074-.582.082-1.18.093H2.426V3.004Z" style="fill:#000;fill-opacity:1;fill-rule:nonzero;stroke:none;--darkreader-inline-fill:var(--darkreader-text-000000, #e8e6e3);--darkreader-inline-stroke:none" transform="scale(1.33333)" clip-path="url(#e)"/></g><g style="fill:#000;--darkreader-inline-fill:var(--darkreader-text-000000, #e8e6e3)"><path d="M87.215 11.988c-1.742 0-3.051-.468-3.922-1.359-.691-.703-1.141-1.723-1.359-3.047.023.031.058.098.078.125.777 1.117 2.254 2 4.433 2.16.325.028 1.575.035 1.836.035h1.781c.649 0 1.176.586 1.176 1.313l.004.769z" style="fill:#000;fill-opacity:1;fill-rule:nonzero;stroke:none;--darkreader-inline-fill:var(--darkreader-text-000000, #e8e6e3);--darkreader-inline-stroke:none" transform="scale(1.33333)" clip-path="url(#f)"/></g><g style="fill:#000;--darkreader-inline-fill:var(--darkreader-text-000000, #e8e6e3)"><path d="M87.117 2.098c-.695 0-1.906.093-2.453 1.632-.379 1.122-.293 2-.293 2 .102 1.161.211 1.942.664 2.973-1.07-.301-1.945-.918-2.48-1.805-.59-.836-.735-1.718-.594-2.902.066-.324.144-.648.25-.965a4.315 4.315 0 0 1 1.348-1.996c.535-.445 1.105-.726 1.707-.851a9.524 9.524 0 0 1 1.886-.18h2.914c.649 0 1.18.586 1.18 1.308v.774z" style="fill:#000;fill-opacity:1;fill-rule:nonzero;stroke:none;--darkreader-inline-fill:var(--darkreader-text-000000, #e8e6e3);--darkreader-inline-stroke:none" transform="scale(1.33333)" clip-path="url(#g)"/></g><g style="fill:#000;--darkreader-inline-fill:var(--darkreader-text-000000, #e8e6e3)"><path d="M94.523 7.227c.036.39.09.671.2 1.043.105.371.293.691.539.98.258.301.554.488.89.559.336.07.68.109 1.036.109l4.124-.016v.774c0 .722-.527 1.312-1.179 1.312h-2.91a9.579 9.579 0 0 1-1.887-.183c-.606-.125-1.176-.407-1.711-.852-.641-.547-1.414-1.719-1.598-2.957-.136-1.187.125-2.246.715-3.082.664-.953 1.719-1.484 2.367-1.644-.492.773-.582 1.265-.609 1.867l5.758.004c.652 0 1.18.589 1.18 1.312v.774z" style="fill:#000;fill-opacity:1;fill-rule:nonzero;stroke:none;--darkreader-inline-fill:var(--darkreader-text-000000, #e8e6e3);--darkreader-inline-stroke:none" transform="scale(1.33333)" clip-path="url(#h)"/></g><g style="fill:#000;--darkreader-inline-fill:var(--darkreader-text-000000, #e8e6e3)"><path d="m15.832 5.227-2.105 5.941c-.18.492-.614.816-1.09.816h-1.614L15.418.012h2.902c-.351.332-.836.8-1.75 3.14-.207.582-.375 1.024-.738 2.075" style="fill:#000;fill-opacity:1;fill-rule:nonzero;stroke:none;--darkreader-inline-fill:var(--darkreader-text-000000, #e8e6e3);--darkreader-inline-stroke:none" transform="scale(1.33333)" clip-path="url(#i)"/></g><g style="fill:#000;--darkreader-inline-fill:var(--darkreader-text-000000, #e8e6e3)"><path d="M22.461 10.129 18.68.898c-.383.54-.977 1.7-1.321 2.696l1.289 3.386h-1.695c-.519 0-.98.383-1.129.938l-.414 1.211h4.047l1.07 2.855h.86c.859 0 1.429-.984 1.074-1.855z" style="fill:#000;fill-opacity:1;fill-rule:nonzero;stroke:none;--darkreader-inline-fill:var(--darkreader-text-000000, #e8e6e3);--darkreader-inline-stroke:none" transform="scale(1.33333)" clip-path="url(#j)"/></g><g style="fill:#000;--darkreader-inline-fill:var(--darkreader-text-000000, #e8e6e3)"><path d="M50.422 3.031v8.957h1.324c.649 0 1.176-.59 1.176-1.312V3.012h-2.504z" style="fill:#000;fill-opacity:1;fill-rule:nonzero;stroke:none;--darkreader-inline-fill:var(--darkreader-text-000000, #e8e6e3);--darkreader-inline-stroke:none" transform="scale(1.33333)" clip-path="url(#k)"/></g><g style="fill:#000;--darkreader-inline-fill:var(--darkreader-text-000000, #e8e6e3)"><path d="M47.891.023c-.649 0-1.176.586-1.176 1.313v.766l1.664-.004h6.898l.207.004c.649 0 1.176-.579 1.176-1.305V.023Z" style="fill:#000;fill-opacity:1;fill-rule:nonzero;stroke:none;--darkreader-inline-fill:var(--darkreader-text-000000, #e8e6e3);--darkreader-inline-stroke:none" transform="scale(1.33333)" clip-path="url(#l)"/></g><path d="M0 .012v2.086h5.227c.121.004.597.039.851.062 3.078.352 4.113 1.731 4.559 2.399-.207-1.399-.703-2.465-1.414-3.196C8.352.477 7.035.023 5.273.012Z" transform="scale(1.33333)" style="fill:url(#m);stroke:none;--darkreader-inline-stroke:none"/><g style="fill:#000;--darkreader-inline-fill:var(--darkreader-text-000000, #e8e6e3)"><path d="m74.457 5.227-2.105 5.941c-.18.492-.614.816-1.094.816h-1.61L74.043.012h2.898c-.351.332-.832.8-1.746 3.14-.207.582-.406 1.078-.738 2.075" style="fill:#000;fill-opacity:1;fill-rule:nonzero;stroke:none;--darkreader-inline-fill:var(--darkreader-text-000000, #e8e6e3);--darkreader-inline-stroke:none" transform="scale(1.33333)" clip-path="url(#n)"/></g><g style="fill:#000;--darkreader-inline-fill:var(--darkreader-text-000000, #e8e6e3)"><path d="M81.082 10.129 77.301.898c-.379.54-.973 1.7-1.317 2.696l1.289 3.386h-1.668c-.519 0-.98.383-1.128.938l-.325 1.211h3.926l1.07 2.855h.864c.855 0 1.426-.984 1.07-1.855z" style="fill:#000;fill-opacity:1;fill-rule:nonzero;stroke:none;--darkreader-inline-fill:var(--darkreader-text-000000, #e8e6e3);--darkreader-inline-stroke:none" transform="scale(1.33333)" clip-path="url(#o)"/></g><g style="fill:#000;--darkreader-inline-fill:var(--darkreader-text-000000, #e8e6e3)"><path d="m59.246 2.09 4.211.004s.957-.032 1.484.218c.43.204.668.633.668 1.344.008.563-.136.942-.414 1.153.246.211.508.496.77.886.121.184.297.481.527.903.012.027.035.047.051.074.402-.223.73-.512.969-.891.379-.605.562-1.324.55-2.16 0-.078-.074-1.168-.281-1.668-.16-.391-.359-.73-.648-1.019A2.485 2.485 0 0 0 66.016.25C65.348.035 64.645 0 64.035 0h-5.969v.836c0 .726.528 1.258 1.18 1.254z" style="fill:#000;fill-opacity:1;fill-rule:nonzero;stroke:none;--darkreader-inline-fill:var(--darkreader-text-000000, #e8e6e3);--darkreader-inline-stroke:none" transform="scale(1.33333)" clip-path="url(#p)"/></g><g style="fill:#000;--darkreader-inline-fill:var(--darkreader-text-000000, #e8e6e3)"><path d="M65.258 6.25c-.598-.906-1.196-1.102-1.567-1.125-.386-.027-3.203.004-3.203.004v-.817c0-.722-.527-1.312-1.176-1.312h-1.246v7.668c0 .727.528 1.312 1.176 1.312h1.246V7.23h2.856l2.363 4.43c.109.199.301.32.508.32h2.394l-2.824-4.839c-.015-.024-.422-.731-.527-.891" style="fill:#000;fill-opacity:1;fill-rule:nonzero;stroke:none;--darkreader-inline-fill:var(--darkreader-text-000000, #e8e6e3);--darkreader-inline-stroke:none" transform="scale(1.33333)" clip-path="url(#q)"/></g></svg>