<svg xmlns="http://www.w3.org/2000/svg" width="16" height="16" viewBox="0 0 4.233 4.233"><path d="M68.02 42.05c-4.02 0-7.03-3.65-7.03-3.65l-6.57-7.49-10.61-12.08s-5.84-7.08-13.63-7.08h-5.49l-.15 30.61h2.83c4.02 0 7.03 3.65 7.03 3.65l6.57 7.49 10.61 12.08s5.84 7.08 13.63 7.08h5.49l.15-30.61z" style="fill:#48a9c5" transform="translate(-.114 .146) scale(.04668)"/><path d="M93.11 41.92V26.06c0-6.99-4.42-10.68-7.55-12.43-.67-.4-1.39-.74-2.18-1.03-.54-.21-.88-.31-.88-.31v.02c-1.19-.35-2.52-.56-4.01-.56h-7.63v30.17h22.26z" style="fill:#eada24" transform="translate(-.114 .146) scale(.04668)"/><path d="M2.44 42.38v15.86c0 6.99 4.42 10.68 7.55 12.43.67.4 1.39.74 2.18 1.03.54.21.88.31.88.31v-.02c1.19.35 2.52.56 4.01.56h7.63V42.38Z" style="fill:#003e51" transform="translate(-.114 .146) scale(.04668)"/></svg>