<svg width="113" height="26" viewBox="0 0 113 26" fill="none" xmlns="http://www.w3.org/2000/svg"> <path d="M9.68696 24.8718L11.3719 23.9005C11.551 23.8031 11.7711 23.9288 11.7711 24.1394V24.284C11.7711 24.3909 11.7208 24.4726 11.639 24.5229L9.84727 25.5571C9.7624 25.5917 9.66181 25.5854 9.58008 25.5445L6.36432 23.6993C6.28259 23.6459 6.23229 23.5642 6.23229 23.4667V12.6281C6.23229 12.5306 6.28259 12.4489 6.36432 12.3923L9.2846 10.61C9.46377 10.5094 9.68381 10.632 9.68381 10.8457V24.8718H9.68696ZM0.133979 20.1095C0.0648224 20.0561 0.00195312 19.9775 0.00195312 19.88V12.8167C0.00195312 12.7192 0.0522485 12.6375 0.133979 12.5809L3.12655 10.9274C3.29944 10.8206 3.52892 10.962 3.52892 11.1632V21.1217L5.22953 20.1252C5.40242 20.0278 5.62875 20.1504 5.63189 20.3641V20.5244C5.63189 20.625 5.5816 20.7068 5.49987 20.7633L3.66723 21.8195C3.58236 21.8698 3.38432 21.9956 3.27744 21.9264L3.01968 21.7755L0.133979 20.1095ZM2.43499 6.50145V8.44411C2.42556 8.64844 2.20866 8.77732 2.02634 8.67044L1.9006 8.59814C1.80944 8.5447 1.76229 8.45983 1.75915 8.36238V6.29398C1.77172 6.20597 1.8283 6.11795 1.90375 6.0708L5.11008 4.20987C5.19181 4.16586 5.2924 4.16272 5.37413 4.20987L14.7605 9.6292C14.8422 9.67635 14.8925 9.76122 14.8988 9.86181L14.9837 13.2819C14.9805 13.4862 14.7636 13.6182 14.5782 13.5114L2.43499 6.50145ZM11.3341 0.610606C11.4127 0.579171 11.5165 0.56031 11.5982 0.610606L17.7154 4.14386C17.7971 4.19101 17.8474 4.27588 17.8537 4.37647L17.7877 7.79342C17.7908 7.99774 17.555 8.12662 17.3822 8.02603L8.75964 3.04365L8.77221 5.0146C8.76907 5.21263 8.55217 5.3478 8.36356 5.24407L8.22525 5.16234C8.14038 5.11204 8.09008 5.02717 8.08379 4.92658V2.81103C8.08379 2.71358 8.07122 2.47782 8.18753 2.42124L8.44843 2.2735L11.3341 0.610606ZM21.9622 9.40601L20.2804 8.43154C20.1075 8.32466 20.1044 8.07004 20.2867 7.96631L20.4124 7.89401C20.5036 7.84057 20.6011 7.84371 20.6859 7.89086L22.4746 8.92506C22.5469 8.98164 22.5909 9.0728 22.5972 9.16082L22.6066 12.867C22.6066 12.9644 22.5563 13.0493 22.4746 13.0996L13.0882 18.5189C13.0065 18.5661 12.909 18.5661 12.8178 18.5189L9.8127 16.8812C9.63666 16.7743 9.63037 16.5228 9.81584 16.4159L21.9622 9.40287V9.40601ZM22.616 20.0592C22.6034 20.1441 22.5657 20.2415 22.484 20.2887L16.3668 23.8219C16.2851 23.8691 16.1876 23.8691 16.0965 23.8219L13.1699 22.0553C12.9907 21.9579 12.997 21.6907 13.1699 21.5869L21.7956 16.6077L20.0824 15.6364C19.9126 15.5326 19.9032 15.278 20.0887 15.168L20.227 15.0862C20.3119 15.036 20.4093 15.0391 20.5005 15.0831L22.3331 16.1424C22.418 16.1896 22.6286 16.2996 22.6192 16.4285V16.7271V20.0561L22.616 20.0592ZM32.7128 20.9551C31.4114 20.1441 30.5627 19.0973 30.1729 17.8116L31.644 16.1802L31.8578 16.2053C32.0904 17.6136 32.6971 18.7421 33.6779 19.5908C34.6586 20.4396 35.8186 20.8608 37.1545 20.8608C38.4905 20.8608 39.6379 20.5119 40.4834 19.8172C41.329 19.1224 41.7534 18.1951 41.7534 17.0352C41.7534 16.0356 41.4736 15.2246 40.911 14.6022C40.3483 13.9766 39.5153 13.4957 38.4088 13.1562L35.413 12.2477C33.9513 11.7856 32.8354 11.1601 32.0684 10.3742C31.3014 9.58833 30.9179 8.57299 30.9179 7.32504C30.9179 6.32542 31.1819 5.45154 31.7069 4.70339C32.2319 3.95525 32.9611 3.37371 33.8885 2.96506C34.8158 2.55641 35.8783 2.34894 37.0728 2.34894C38.5345 2.34894 39.8422 2.679 40.9927 3.33913C42.1432 3.99926 42.9133 4.86371 43.3063 5.93249L41.9703 7.53879L41.7566 7.51365C41.4894 6.31913 40.9424 5.37924 40.1125 4.69082C39.2826 4.00554 38.2705 3.65976 37.0759 3.65976C35.8091 3.65976 34.7938 3.95839 34.0268 4.55565C33.2598 5.15291 32.8763 5.95135 32.8763 6.95097C32.8763 7.79027 33.1435 8.46612 33.6779 8.98479C34.2122 9.50346 35.0138 9.92154 36.0857 10.2422L39.1632 11.2041C40.6626 11.6693 41.8069 12.342 42.6021 13.2253C43.3943 14.1086 43.7935 15.2528 43.7935 16.6643C43.7935 17.7519 43.5137 18.7107 42.9511 19.5405C42.3884 20.3704 41.5994 21.018 40.584 21.48C39.5687 21.9421 38.4182 22.1747 37.1325 22.1747C35.4916 22.1747 34.0205 21.7692 32.7191 20.9582L32.7128 20.9551ZM46.5283 21.172C45.7362 20.5024 45.337 19.6065 45.337 18.4843C45.337 16.2368 46.915 14.8096 50.071 14.2029L54.4058 13.3479V12.3577C54.4058 11.2512 54.1072 10.3993 53.51 9.80209C52.9127 9.20483 52.1237 8.9062 51.1429 8.9062C50.1087 8.9062 49.26 9.2174 48.603 9.84295C47.9429 10.4685 47.6034 11.3424 47.5877 12.4646L45.6607 11.9554C45.8022 10.7231 46.3743 9.71721 47.3739 8.93135C48.3735 8.14548 49.6404 7.75569 51.1712 7.75569C52.7021 7.75569 54.0098 8.17377 54.9308 9.01308C55.8487 9.85238 56.3076 11.028 56.3076 12.5432V20.4616L57.2444 21.6938V21.9076H54.3807V19.1256C53.9155 20.0875 53.2805 20.8388 52.4695 21.3732C51.6585 21.9076 50.7248 22.1747 49.6749 22.1747C48.3735 22.1747 47.3236 21.8415 46.5315 21.172H46.5283ZM48.1189 20.1126C48.6187 20.559 49.2977 20.7822 50.1527 20.7822C51.2404 20.7822 52.1488 20.449 52.8813 19.7794C53.6137 19.1099 54.1135 18.2423 54.3807 17.1704V14.4418L50.662 15.19C48.4678 15.6898 47.3708 16.7334 47.3708 18.3209C47.3708 19.069 47.6191 19.6663 48.1189 20.1126ZM59.7843 21.6907L60.7211 20.4867V9.25198H58.0994V8.26179L60.7211 8.04804V6.09595C60.7211 4.79455 61.0731 3.80122 61.7773 3.1128C62.4814 2.42753 63.4056 2.08175 64.5466 2.08175C65.5274 2.08175 66.3384 2.32379 66.9797 2.80474L66.659 4.73168H66.4704C66.2756 4.26959 66.0115 3.90181 65.6814 3.63462C65.3514 3.36742 64.9899 3.23225 64.5969 3.23225C64.0248 3.23225 63.5533 3.45544 63.1792 3.90181C62.8052 4.34818 62.6166 4.99888 62.6166 5.8539V7.96631L66.2284 7.85943L66.2818 9.25198H62.6166V20.4867L63.8488 21.6907V21.9044H59.7812V21.6907H59.7843ZM69.309 17.8808C69.7365 18.7641 70.3243 19.4399 71.0756 19.9146C71.8238 20.3861 72.6536 20.625 73.5621 20.625C75.7562 20.625 77.2431 19.4934 78.029 17.2269L79.126 17.5759C78.7677 18.9841 78.0698 20.1032 77.0262 20.9331C75.9826 21.763 74.7126 22.1779 73.2132 22.1779C71.9306 22.1779 70.7833 21.8667 69.7742 21.2411C68.7652 20.6156 67.9856 19.7574 67.4323 18.6604C66.8791 17.5633 66.6025 16.3279 66.6025 14.9542C66.6025 13.5805 66.8697 12.3734 67.4041 11.2764C67.9384 10.1793 68.6929 9.31799 69.6642 8.69559C70.6355 8.07004 71.764 7.75884 73.0466 7.75884C74.4737 7.75884 75.6462 8.08576 76.5641 8.73645C77.482 9.38715 78.1327 10.2359 78.5162 11.2764C78.8997 12.3169 79.0569 13.4296 78.9846 14.6084H68.6583V14.797C68.6583 15.9727 68.872 17.0038 69.2996 17.8871L69.309 17.8808ZM76.9319 13.4799C76.8784 12.1785 76.5044 11.0909 75.8097 10.217C75.115 9.34314 74.1971 8.9062 73.0529 8.9062C71.9086 8.9062 70.9625 9.33371 70.2049 10.1887C69.4473 11.0438 68.9695 12.1408 68.7746 13.4799H76.935H76.9319ZM81.0247 21.6907L81.9614 20.4867V9.89325L81.0247 8.58242V8.39382L83.8601 7.88458V10.9872C84.2341 9.97183 84.7465 9.17654 85.3972 8.60757C86.0479 8.03861 86.8118 7.75255 87.6857 7.75255C88.0786 7.75255 88.3898 7.78713 88.6224 7.85943L88.4621 9.83981C88.0692 9.73293 87.7045 9.67949 87.365 9.67949C86.4031 9.67949 85.6298 10.0504 85.0514 10.7891C84.473 11.5278 84.0738 12.3892 83.8601 13.3699V20.4867L85.0923 21.6907V21.9044H81.0247V21.6907ZM87.8208 21.719L89.2668 20.4081L96.195 2.61928H97.6945L104.704 20.383L106.15 21.719V21.9076H101.523L101.498 21.719L102.46 20.4364L100.775 16.1016H92.536L90.9046 20.4616L91.813 21.719L91.7879 21.9076H87.8271V21.719H87.8208ZM100.26 14.7625L96.5942 5.34466L93.0358 14.7625H100.26ZM112.057 21.6907V21.9044H107.562V21.6907L108.766 20.3798V4.14386L107.562 2.80789V2.61928H112.057V2.80789L110.853 4.14386V20.383L112.057 21.6938V21.6907Z" fill="#202137"/> </svg>