%TF.GenerationSoftware,KiCad,Pcbnew,10.0.4*%
%TF.CreationDate,2026-08-21T07:53:42+01:00*%
%TF.ProjectId,london26-m3,6c6f6e64-6f6e-4323-962d-6d332e6b6963,rev?*%
%TF.SameCoordinates,Original*%
%TF.FileFunction,Soldermask,Bot*%
%TF.FilePolarity,Negative*%
%FSLAX46Y46*%
G04 Gerber Fmt 4.6, Leading zero omitted, Abs format (unit mm)*
G04 Created by KiCad (PCBNEW 10.0.4) date 2026-08-21 07:53:42*
%MOMM*%
%LPD*%
G01*
G04 APERTURE LIST*
G04 Aperture macros list*
%AMRoundRect*
0 Rectangle with rounded corners*
0 $1 Rounding radius*
0 $2 $3 $4 $5 $6 $7 $8 $9 X,Y pos of 4 corners*
0 Add a 4 corners polygon primitive as box body*
4,1,4,$2,$3,$4,$5,$6,$7,$8,$9,$2,$3,0*
0 Add four circle primitives for the rounded corners*
1,1,$1+$1,$2,$3*
1,1,$1+$1,$4,$5*
1,1,$1+$1,$6,$7*
1,1,$1+$1,$8,$9*
0 Add four rect primitives between the rounded corners*
20,1,$1+$1,$2,$3,$4,$5,0*
20,1,$1+$1,$4,$5,$6,$7,0*
20,1,$1+$1,$6,$7,$8,$9,0*
20,1,$1+$1,$8,$9,$2,$3,0*%
G04 Aperture macros list end*
%ADD10R,2.600000X2.600000*%
%ADD11C,2.600000*%
%ADD12RoundRect,0.300000X-0.450000X-0.600000X0.450000X-0.600000X0.450000X0.600000X-0.450000X0.600000X0*%
%ADD13RoundRect,0.220000X-0.330000X-0.480000X0.330000X-0.480000X0.330000X0.480000X-0.330000X0.480000X0*%
%ADD14C,0.991000*%
%ADD15C,0.787000*%
%ADD16R,2.000000X2.000000*%
%ADD17C,2.000000*%
%ADD18O,2.200000X6.000000*%
%ADD19RoundRect,0.200000X-0.350000X-0.300000X0.350000X-0.300000X0.350000X0.300000X-0.350000X0.300000X0*%
%ADD20RoundRect,0.180000X-0.270000X-0.320000X0.270000X-0.320000X0.270000X0.320000X-0.270000X0.320000X0*%
%ADD21RoundRect,0.300000X-0.450000X-1.000000X0.450000X-1.000000X0.450000X1.000000X-0.450000X1.000000X0*%
%ADD22RoundRect,0.210000X-0.490000X-0.690000X0.490000X-0.690000X0.490000X0.690000X-0.490000X0.690000X0*%
G04 APERTURE END LIST*
D10*
%TO.C,J2*%
X4500000Y-22000000D03*
D11*
X4500000Y-27000000D03*
%TD*%
D12*
%TO.C,C1*%
X5500000Y-17000000D03*
X8500000Y-17000000D03*
%TD*%
D13*
%TO.C,R1*%
X6500000Y-24000000D03*
X8500000Y-24000000D03*
%TD*%
%TO.C,R2*%
X30000000Y-34000000D03*
X32000000Y-34000000D03*
%TD*%
D14*
%TO.C,J3*%
X86190000Y-130984000D03*
X86190000Y-133016000D03*
X93810000Y-132000000D03*
D15*
X92540000Y-132635000D03*
X91270000Y-132635000D03*
X90000000Y-132635000D03*
X88730000Y-132635000D03*
X87460000Y-132635000D03*
X87460000Y-131365000D03*
X88730000Y-131365000D03*
X90000000Y-131365000D03*
X91270000Y-131365000D03*
X92540000Y-131365000D03*
%TD*%
D16*
%TO.C,J4*%
X60000000Y-135500000D03*
D17*
X62540000Y-135500000D03*
X65080000Y-135500000D03*
X67620000Y-135500000D03*
X70160000Y-135500000D03*
X72700000Y-135500000D03*
X75240000Y-135500000D03*
X77780000Y-135500000D03*
%TD*%
D18*
%TO.C,MH1*%
X3500000Y-128500000D03*
X3500000Y-136500000D03*
X37000000Y-128500000D03*
X37000000Y-136500000D03*
%TD*%
D19*
%TO.C,Q1*%
X67000000Y-73950000D03*
X67000000Y-72050000D03*
X69000000Y-73000000D03*
%TD*%
D20*
%TO.C,R3*%
X58600000Y-74200000D03*
X60200000Y-74200000D03*
%TD*%
%TO.C,R4*%
X58600000Y-71600000D03*
X60200000Y-71600000D03*
%TD*%
%TO.C,R5*%
X60200000Y-97800000D03*
X61800000Y-97800000D03*
%TD*%
%TO.C,R6*%
X60200000Y-95200000D03*
X61800000Y-95200000D03*
%TD*%
%TO.C,R7*%
X60200000Y-92600000D03*
X61800000Y-92600000D03*
%TD*%
%TO.C,R8*%
X60200000Y-90000000D03*
X61800000Y-90000000D03*
%TD*%
%TO.C,R9*%
X60200000Y-87400000D03*
X61800000Y-87400000D03*
%TD*%
%TO.C,R10*%
X60200000Y-84800000D03*
X61800000Y-84800000D03*
%TD*%
%TO.C,R11*%
X67200000Y-91000000D03*
X68800000Y-91000000D03*
%TD*%
%TO.C,R12*%
X67200000Y-86000000D03*
X68800000Y-86000000D03*
%TD*%
%TO.C,R13*%
X60200000Y-82200000D03*
X61800000Y-82200000D03*
%TD*%
D12*
%TO.C,C2*%
X88500000Y-70000000D03*
X91500000Y-70000000D03*
%TD*%
%TO.C,C3*%
X76500000Y-73000000D03*
X79500000Y-73000000D03*
%TD*%
D13*
%TO.C,C4*%
X60200000Y-79400000D03*
X62200000Y-79400000D03*
%TD*%
%TO.C,C5*%
X60200000Y-108200000D03*
X62200000Y-108200000D03*
%TD*%
%TO.C,C6*%
X60200000Y-110800000D03*
X62200000Y-110800000D03*
%TD*%
%TO.C,C7*%
X60200000Y-113400000D03*
X62200000Y-113400000D03*
%TD*%
%TO.C,C8*%
X60200000Y-116000000D03*
X62200000Y-116000000D03*
%TD*%
%TO.C,C9*%
X60200000Y-118600000D03*
X62200000Y-118600000D03*
%TD*%
%TO.C,C10*%
X60200000Y-121200000D03*
X62200000Y-121200000D03*
%TD*%
%TO.C,C11*%
X60200000Y-123800000D03*
X62200000Y-123800000D03*
%TD*%
%TO.C,C12*%
X46000000Y-125000000D03*
X48000000Y-125000000D03*
%TD*%
D20*
%TO.C,C13*%
X46200000Y-121500000D03*
X47800000Y-121500000D03*
%TD*%
D13*
%TO.C,C14*%
X60200000Y-100400000D03*
X62200000Y-100400000D03*
%TD*%
%TO.C,C15*%
X60200000Y-76800000D03*
X62200000Y-76800000D03*
%TD*%
D21*
%TO.C,L2*%
X71400000Y-69500000D03*
X74600000Y-69500000D03*
%TD*%
D22*
%TO.C,D1*%
X85400000Y-73000000D03*
X82600000Y-73000000D03*
%TD*%
%TO.C,D2*%
X76400000Y-121200000D03*
X73600000Y-121200000D03*
%TD*%
%TO.C,D3*%
X76400000Y-116000000D03*
X73600000Y-116000000D03*
%TD*%
M02*
