%TF.GenerationSoftware,KiCad,Pcbnew,10.0.4*%
%TF.CreationDate,2026-08-21T07:53:42+01:00*%
%TF.ProjectId,london26-m3,6c6f6e64-6f6e-4323-962d-6d332e6b6963,rev?*%
%TF.SameCoordinates,Original*%
%TF.FileFunction,Soldermask,Top*%
%TF.FilePolarity,Negative*%
%FSLAX46Y46*%
G04 Gerber Fmt 4.6, Leading zero omitted, Abs format (unit mm)*
G04 Created by KiCad (PCBNEW 10.0.4) date 2026-08-21 07:53:42*
%MOMM*%
%LPD*%
G01*
G04 APERTURE LIST*
%ADD10C,0.000000*%
%ADD11R,2.600000X2.600000*%
%ADD12C,2.600000*%
%ADD13R,0.800000X0.300000*%
%ADD14R,0.800000X0.800000*%
%ADD15C,0.991000*%
%ADD16R,2.000000X2.000000*%
%ADD17C,2.000000*%
%ADD18O,2.200000X6.000000*%
G04 APERTURE END LIST*
D10*
G36*
X59984860Y-32288427D02*
G01*
X60311326Y-32323289D01*
X60622599Y-32380398D01*
X60917594Y-32458940D01*
X61195226Y-32558100D01*
X61327191Y-32615158D01*
X61454409Y-32677066D01*
X61576743Y-32743721D01*
X61694058Y-32815023D01*
X61806219Y-32890868D01*
X61913089Y-32971157D01*
X62014533Y-33055786D01*
X62110415Y-33144654D01*
X62200600Y-33237659D01*
X62284952Y-33334700D01*
X62363336Y-33435675D01*
X62435615Y-33540482D01*
X62501654Y-33649020D01*
X62561318Y-33761186D01*
X62614470Y-33876879D01*
X62660976Y-33995997D01*
X62700699Y-34118439D01*
X62733504Y-34244102D01*
X62759255Y-34372886D01*
X62777816Y-34504687D01*
X62789053Y-34639405D01*
X62792828Y-34776938D01*
X62790801Y-34884103D01*
X62784746Y-34988564D01*
X62774706Y-35090329D01*
X62760724Y-35189406D01*
X62742843Y-35285804D01*
X62721103Y-35379532D01*
X62695549Y-35470597D01*
X62666221Y-35559009D01*
X62633164Y-35644775D01*
X62596418Y-35727905D01*
X62556027Y-35808406D01*
X62512032Y-35886288D01*
X62464477Y-35961559D01*
X62413403Y-36034226D01*
X62358853Y-36104300D01*
X62300869Y-36171787D01*
X62239495Y-36236698D01*
X62174771Y-36299039D01*
X62106741Y-36358820D01*
X62035447Y-36416049D01*
X61960931Y-36470735D01*
X61883235Y-36522885D01*
X61802403Y-36572509D01*
X61718476Y-36619615D01*
X61541509Y-36706307D01*
X61352672Y-36783029D01*
X61152305Y-36849848D01*
X60940747Y-36906833D01*
X61186986Y-36974037D01*
X61421763Y-37053788D01*
X61644467Y-37145612D01*
X61854488Y-37249035D01*
X62051215Y-37363580D01*
X62234038Y-37488775D01*
X62402347Y-37624143D01*
X62555530Y-37769210D01*
X62626259Y-37845232D01*
X62692978Y-37923501D01*
X62755611Y-38003957D01*
X62814081Y-38086542D01*
X62868311Y-38171195D01*
X62918226Y-38257857D01*
X62963750Y-38346470D01*
X63004806Y-38436973D01*
X63041317Y-38529307D01*
X63073208Y-38623413D01*
X63100401Y-38719232D01*
X63122822Y-38816704D01*
X63140393Y-38915770D01*
X63153038Y-39016370D01*
X63160681Y-39118446D01*
X63163246Y-39221938D01*
X63159476Y-39358939D01*
X63148279Y-39492108D01*
X63129825Y-39621412D01*
X63104283Y-39746815D01*
X63071823Y-39868284D01*
X63032614Y-39985786D01*
X62986826Y-40099286D01*
X62934629Y-40208750D01*
X62876192Y-40314145D01*
X62811685Y-40415437D01*
X62741276Y-40512591D01*
X62665137Y-40605574D01*
X62583435Y-40694351D01*
X62496342Y-40778890D01*
X62404026Y-40859155D01*
X62306657Y-40935114D01*
X62204405Y-41006732D01*
X62097439Y-41073975D01*
X61985928Y-41136809D01*
X61870043Y-41195201D01*
X61749953Y-41249117D01*
X61625827Y-41298522D01*
X61497835Y-41343383D01*
X61366146Y-41383665D01*
X61230931Y-41419336D01*
X61092358Y-41450360D01*
X60950597Y-41476705D01*
X60805818Y-41498335D01*
X60658191Y-41515218D01*
X60507884Y-41527319D01*
X60355068Y-41534605D01*
X60199912Y-41537041D01*
X59957979Y-41531072D01*
X59718624Y-41513166D01*
X59482252Y-41483323D01*
X59249272Y-41441543D01*
X59020091Y-41387826D01*
X58795114Y-41322171D01*
X58574749Y-41244579D01*
X58359404Y-41155050D01*
X58149485Y-41053583D01*
X57945398Y-40940179D01*
X57747552Y-40814838D01*
X57556352Y-40677560D01*
X57372206Y-40528344D01*
X57195521Y-40367191D01*
X57026703Y-40194101D01*
X56866161Y-40009074D01*
X57884807Y-39268240D01*
X58000336Y-39393615D01*
X58121020Y-39509426D01*
X58246587Y-39615878D01*
X58376767Y-39713174D01*
X58511287Y-39801516D01*
X58649877Y-39881109D01*
X58792265Y-39952157D01*
X58938180Y-40014861D01*
X59087351Y-40069427D01*
X59239506Y-40116057D01*
X59394374Y-40154955D01*
X59551683Y-40186324D01*
X59711163Y-40210368D01*
X59872542Y-40227290D01*
X60035549Y-40237295D01*
X60199912Y-40240584D01*
X60377829Y-40236266D01*
X60546725Y-40223402D01*
X60706262Y-40202127D01*
X60856099Y-40172578D01*
X60995899Y-40134890D01*
X61125321Y-40089198D01*
X61244026Y-40035638D01*
X61351677Y-39974347D01*
X61401250Y-39940844D01*
X61447932Y-39905459D01*
X61491681Y-39868209D01*
X61532454Y-39829110D01*
X61570209Y-39788180D01*
X61604903Y-39745436D01*
X61636494Y-39700895D01*
X61664939Y-39654573D01*
X61690197Y-39606488D01*
X61712225Y-39556656D01*
X61730980Y-39505094D01*
X61746420Y-39451820D01*
X61758503Y-39396851D01*
X61767186Y-39340202D01*
X61772427Y-39281892D01*
X61774184Y-39221938D01*
X61772290Y-39153170D01*
X61766632Y-39085801D01*
X61757244Y-39019873D01*
X61744160Y-38955429D01*
X61727412Y-38892511D01*
X61707036Y-38831162D01*
X61683066Y-38771423D01*
X61655534Y-38713338D01*
X61624476Y-38656948D01*
X61589925Y-38602297D01*
X61551914Y-38549425D01*
X61510478Y-38498377D01*
X61465651Y-38449194D01*
X61417467Y-38401918D01*
X61365959Y-38356592D01*
X61311162Y-38313259D01*
X61253109Y-38271960D01*
X61191835Y-38232739D01*
X61127372Y-38195637D01*
X61059756Y-38160697D01*
X60989020Y-38127961D01*
X60915198Y-38097473D01*
X60838323Y-38069273D01*
X60758431Y-38043405D01*
X60675554Y-38019910D01*
X60589727Y-37998832D01*
X60500983Y-37980213D01*
X60409357Y-37964094D01*
X60314882Y-37950520D01*
X60217592Y-37939530D01*
X60117522Y-37931170D01*
X60014704Y-37925479D01*
X59088663Y-37925479D01*
X59088663Y-36536417D01*
X59922100Y-36536417D01*
X60015973Y-36530587D01*
X60106608Y-36521790D01*
X60194020Y-36510042D01*
X60278228Y-36495360D01*
X60359249Y-36477762D01*
X60437098Y-36457265D01*
X60511793Y-36433885D01*
X60583352Y-36407639D01*
X60651791Y-36378545D01*
X60717126Y-36346619D01*
X60779376Y-36311878D01*
X60838556Y-36274340D01*
X60894684Y-36234020D01*
X60947777Y-36190937D01*
X60997852Y-36145107D01*
X61044926Y-36096547D01*
X61089015Y-36045274D01*
X61130137Y-35991304D01*
X61168308Y-35934656D01*
X61203546Y-35875346D01*
X61235868Y-35813390D01*
X61265290Y-35748806D01*
X61291829Y-35681611D01*
X61315503Y-35611822D01*
X61336328Y-35539455D01*
X61354322Y-35464528D01*
X61369500Y-35387057D01*
X61381881Y-35307060D01*
X61391481Y-35224553D01*
X61398318Y-35139554D01*
X61403766Y-34962146D01*
X61401610Y-34876686D01*
X61395198Y-34793939D01*
X61384614Y-34713905D01*
X61369944Y-34636584D01*
X61351272Y-34561976D01*
X61328684Y-34490081D01*
X61302263Y-34420900D01*
X61272095Y-34354431D01*
X61238264Y-34290675D01*
X61200855Y-34229632D01*
X61159954Y-34171302D01*
X61115644Y-34115686D01*
X61068011Y-34062782D01*
X61017139Y-34012591D01*
X60963113Y-33965114D01*
X60906018Y-33920349D01*
X60845939Y-33878297D01*
X60782960Y-33838959D01*
X60717167Y-33802333D01*
X60648644Y-33768420D01*
X60577475Y-33737221D01*
X60503746Y-33708734D01*
X60427542Y-33682960D01*
X60348946Y-33659900D01*
X60268045Y-33639552D01*
X60184922Y-33621918D01*
X60099663Y-33606996D01*
X60012352Y-33594788D01*
X59923074Y-33585292D01*
X59831914Y-33578509D01*
X59644287Y-33573083D01*
X59472349Y-33578487D01*
X59304075Y-33594607D01*
X59139870Y-33621307D01*
X58980141Y-33658453D01*
X58825296Y-33705908D01*
X58675741Y-33763537D01*
X58531883Y-33831204D01*
X58394130Y-33908773D01*
X58262888Y-33996110D01*
X58138565Y-34093077D01*
X58021566Y-34199541D01*
X57912299Y-34315364D01*
X57811172Y-34440411D01*
X57718590Y-34574547D01*
X57634961Y-34717636D01*
X57560693Y-34869542D01*
X56588349Y-34313917D01*
X56642321Y-34194007D01*
X56699989Y-34077387D01*
X56761253Y-33964091D01*
X56826009Y-33854152D01*
X56894156Y-33747604D01*
X56965593Y-33644481D01*
X57040218Y-33544817D01*
X57117929Y-33448647D01*
X57198624Y-33356003D01*
X57282202Y-33266920D01*
X57368561Y-33181432D01*
X57457598Y-33099573D01*
X57549213Y-33021376D01*
X57643304Y-32946875D01*
X57739769Y-32876105D01*
X57838505Y-32809099D01*
X57939413Y-32745892D01*
X58042388Y-32686516D01*
X58147331Y-32631007D01*
X58254139Y-32579398D01*
X58362710Y-32531722D01*
X58472944Y-32488014D01*
X58584737Y-32448308D01*
X58697988Y-32412638D01*
X58812596Y-32381037D01*
X58928458Y-32353539D01*
X59045474Y-32330179D01*
X59163541Y-32310990D01*
X59282557Y-32296006D01*
X59402422Y-32285262D01*
X59523032Y-32278790D01*
X59644287Y-32276625D01*
X59984860Y-32288427D01*
G37*
D11*
%TO.C,J2*%
X4500000Y-22000000D03*
D12*
X4500000Y-27000000D03*
%TD*%
D13*
%TO.C,J1*%
X5000000Y-88455000D03*
X5000000Y-88955000D03*
X5000000Y-89455000D03*
X5000000Y-89955000D03*
X5000000Y-90455000D03*
X5000000Y-90955000D03*
X5000000Y-91455000D03*
X5000000Y-91955000D03*
X5000000Y-92455000D03*
X5000000Y-92955000D03*
X5000000Y-93455000D03*
X5000000Y-93955000D03*
X5000000Y-94455000D03*
X5000000Y-94955000D03*
X5000000Y-95455000D03*
X5000000Y-95955000D03*
X5000000Y-96455000D03*
X5000000Y-96955000D03*
X5000000Y-97455000D03*
X5000000Y-97955000D03*
X5000000Y-98455000D03*
X5000000Y-98955000D03*
X5000000Y-99455000D03*
X5000000Y-99955000D03*
D14*
X8300000Y-87455000D03*
X8300000Y-100955000D03*
%TD*%
D15*
%TO.C,J3*%
X86190000Y-130984000D03*
X86190000Y-133016000D03*
X93810000Y-132000000D03*
%TD*%
D16*
%TO.C,J4*%
X60000000Y-135500000D03*
D17*
X62540000Y-135500000D03*
X65080000Y-135500000D03*
X67620000Y-135500000D03*
X70160000Y-135500000D03*
X72700000Y-135500000D03*
X75240000Y-135500000D03*
X77780000Y-135500000D03*
%TD*%
D18*
%TO.C,MH1*%
X3500000Y-128500000D03*
X3500000Y-136500000D03*
X37000000Y-128500000D03*
X37000000Y-136500000D03*
%TD*%
M02*
