%TF.GenerationSoftware,KiCad,Pcbnew,10.0.4*%
%TF.CreationDate,2026-08-21T07:53:42+01:00*%
%TF.ProjectId,london26-m3,6c6f6e64-6f6e-4323-962d-6d332e6b6963,rev?*%
%TF.SameCoordinates,Original*%
%TF.FileFunction,Legend,Top*%
%TF.FilePolarity,Positive*%
%FSLAX46Y46*%
G04 Gerber Fmt 4.6, Leading zero omitted, Abs format (unit mm)*
G04 Created by KiCad (PCBNEW 10.0.4) date 2026-08-21 07:53:42*
%MOMM*%
%LPD*%
G01*
G04 APERTURE LIST*
%ADD10C,0.160000*%
%ADD11C,0.000000*%
%ADD12C,0.250000*%
%ADD13C,0.150000*%
%ADD14C,0.080000*%
G04 APERTURE END LIST*
D10*
X37857142Y-31454299D02*
X37857142Y-30454299D01*
X37857142Y-30454299D02*
X38190475Y-31168584D01*
X38190475Y-31168584D02*
X38523808Y-30454299D01*
X38523808Y-30454299D02*
X38523808Y-31454299D01*
X38904761Y-30454299D02*
X39523808Y-30454299D01*
X39523808Y-30454299D02*
X39190475Y-30835251D01*
X39190475Y-30835251D02*
X39333332Y-30835251D01*
X39333332Y-30835251D02*
X39428570Y-30882870D01*
X39428570Y-30882870D02*
X39476189Y-30930489D01*
X39476189Y-30930489D02*
X39523808Y-31025727D01*
X39523808Y-31025727D02*
X39523808Y-31263822D01*
X39523808Y-31263822D02*
X39476189Y-31359060D01*
X39476189Y-31359060D02*
X39428570Y-31406680D01*
X39428570Y-31406680D02*
X39333332Y-31454299D01*
X39333332Y-31454299D02*
X39047618Y-31454299D01*
X39047618Y-31454299D02*
X38952380Y-31406680D01*
X38952380Y-31406680D02*
X38904761Y-31359060D01*
X41047618Y-30930489D02*
X40714285Y-30930489D01*
X40714285Y-31454299D02*
X40714285Y-30454299D01*
X40714285Y-30454299D02*
X41190475Y-30454299D01*
X41571428Y-30930489D02*
X41904761Y-30930489D01*
X42047618Y-31454299D02*
X41571428Y-31454299D01*
X41571428Y-31454299D02*
X41571428Y-30454299D01*
X41571428Y-30454299D02*
X42047618Y-30454299D01*
X42952380Y-31454299D02*
X42476190Y-31454299D01*
X42476190Y-31454299D02*
X42476190Y-30454299D01*
X43761904Y-31454299D02*
X43285714Y-31454299D01*
X43285714Y-31454299D02*
X43285714Y-30454299D01*
X44285714Y-30454299D02*
X44476190Y-30454299D01*
X44476190Y-30454299D02*
X44571428Y-30501918D01*
X44571428Y-30501918D02*
X44666666Y-30597156D01*
X44666666Y-30597156D02*
X44714285Y-30787632D01*
X44714285Y-30787632D02*
X44714285Y-31120965D01*
X44714285Y-31120965D02*
X44666666Y-31311441D01*
X44666666Y-31311441D02*
X44571428Y-31406680D01*
X44571428Y-31406680D02*
X44476190Y-31454299D01*
X44476190Y-31454299D02*
X44285714Y-31454299D01*
X44285714Y-31454299D02*
X44190476Y-31406680D01*
X44190476Y-31406680D02*
X44095238Y-31311441D01*
X44095238Y-31311441D02*
X44047619Y-31120965D01*
X44047619Y-31120965D02*
X44047619Y-30787632D01*
X44047619Y-30787632D02*
X44095238Y-30597156D01*
X44095238Y-30597156D02*
X44190476Y-30501918D01*
X44190476Y-30501918D02*
X44285714Y-30454299D01*
X45047619Y-30454299D02*
X45285714Y-31454299D01*
X45285714Y-31454299D02*
X45476190Y-30740013D01*
X45476190Y-30740013D02*
X45666666Y-31454299D01*
X45666666Y-31454299D02*
X45904762Y-30454299D01*
X46238095Y-31406680D02*
X46380952Y-31454299D01*
X46380952Y-31454299D02*
X46619047Y-31454299D01*
X46619047Y-31454299D02*
X46714285Y-31406680D01*
X46714285Y-31406680D02*
X46761904Y-31359060D01*
X46761904Y-31359060D02*
X46809523Y-31263822D01*
X46809523Y-31263822D02*
X46809523Y-31168584D01*
X46809523Y-31168584D02*
X46761904Y-31073346D01*
X46761904Y-31073346D02*
X46714285Y-31025727D01*
X46714285Y-31025727D02*
X46619047Y-30978108D01*
X46619047Y-30978108D02*
X46428571Y-30930489D01*
X46428571Y-30930489D02*
X46333333Y-30882870D01*
X46333333Y-30882870D02*
X46285714Y-30835251D01*
X46285714Y-30835251D02*
X46238095Y-30740013D01*
X46238095Y-30740013D02*
X46238095Y-30644775D01*
X46238095Y-30644775D02*
X46285714Y-30549537D01*
X46285714Y-30549537D02*
X46333333Y-30501918D01*
X46333333Y-30501918D02*
X46428571Y-30454299D01*
X46428571Y-30454299D02*
X46666666Y-30454299D01*
X46666666Y-30454299D02*
X46809523Y-30501918D01*
X47238095Y-31454299D02*
X47238095Y-30454299D01*
X47238095Y-30930489D02*
X47809523Y-30930489D01*
X47809523Y-31454299D02*
X47809523Y-30454299D01*
X48285714Y-31454299D02*
X48285714Y-30454299D01*
X48761904Y-31454299D02*
X48761904Y-30454299D01*
X48761904Y-30454299D02*
X49142856Y-30454299D01*
X49142856Y-30454299D02*
X49238094Y-30501918D01*
X49238094Y-30501918D02*
X49285713Y-30549537D01*
X49285713Y-30549537D02*
X49333332Y-30644775D01*
X49333332Y-30644775D02*
X49333332Y-30787632D01*
X49333332Y-30787632D02*
X49285713Y-30882870D01*
X49285713Y-30882870D02*
X49238094Y-30930489D01*
X49238094Y-30930489D02*
X49142856Y-30978108D01*
X49142856Y-30978108D02*
X48761904Y-30978108D01*
X50666666Y-31025727D02*
X50619047Y-31073346D01*
X50619047Y-31073346D02*
X50666666Y-31120965D01*
X50666666Y-31120965D02*
X50714285Y-31073346D01*
X50714285Y-31073346D02*
X50666666Y-31025727D01*
X50666666Y-31025727D02*
X50666666Y-31120965D01*
X52523809Y-31454299D02*
X52047619Y-31454299D01*
X52047619Y-31454299D02*
X52047619Y-30454299D01*
X53047619Y-30454299D02*
X53238095Y-30454299D01*
X53238095Y-30454299D02*
X53333333Y-30501918D01*
X53333333Y-30501918D02*
X53428571Y-30597156D01*
X53428571Y-30597156D02*
X53476190Y-30787632D01*
X53476190Y-30787632D02*
X53476190Y-31120965D01*
X53476190Y-31120965D02*
X53428571Y-31311441D01*
X53428571Y-31311441D02*
X53333333Y-31406680D01*
X53333333Y-31406680D02*
X53238095Y-31454299D01*
X53238095Y-31454299D02*
X53047619Y-31454299D01*
X53047619Y-31454299D02*
X52952381Y-31406680D01*
X52952381Y-31406680D02*
X52857143Y-31311441D01*
X52857143Y-31311441D02*
X52809524Y-31120965D01*
X52809524Y-31120965D02*
X52809524Y-30787632D01*
X52809524Y-30787632D02*
X52857143Y-30597156D01*
X52857143Y-30597156D02*
X52952381Y-30501918D01*
X52952381Y-30501918D02*
X53047619Y-30454299D01*
X53904762Y-31454299D02*
X53904762Y-30454299D01*
X53904762Y-30454299D02*
X54476190Y-31454299D01*
X54476190Y-31454299D02*
X54476190Y-30454299D01*
X54952381Y-31454299D02*
X54952381Y-30454299D01*
X54952381Y-30454299D02*
X55190476Y-30454299D01*
X55190476Y-30454299D02*
X55333333Y-30501918D01*
X55333333Y-30501918D02*
X55428571Y-30597156D01*
X55428571Y-30597156D02*
X55476190Y-30692394D01*
X55476190Y-30692394D02*
X55523809Y-30882870D01*
X55523809Y-30882870D02*
X55523809Y-31025727D01*
X55523809Y-31025727D02*
X55476190Y-31216203D01*
X55476190Y-31216203D02*
X55428571Y-31311441D01*
X55428571Y-31311441D02*
X55333333Y-31406680D01*
X55333333Y-31406680D02*
X55190476Y-31454299D01*
X55190476Y-31454299D02*
X54952381Y-31454299D01*
X56142857Y-30454299D02*
X56333333Y-30454299D01*
X56333333Y-30454299D02*
X56428571Y-30501918D01*
X56428571Y-30501918D02*
X56523809Y-30597156D01*
X56523809Y-30597156D02*
X56571428Y-30787632D01*
X56571428Y-30787632D02*
X56571428Y-31120965D01*
X56571428Y-31120965D02*
X56523809Y-31311441D01*
X56523809Y-31311441D02*
X56428571Y-31406680D01*
X56428571Y-31406680D02*
X56333333Y-31454299D01*
X56333333Y-31454299D02*
X56142857Y-31454299D01*
X56142857Y-31454299D02*
X56047619Y-31406680D01*
X56047619Y-31406680D02*
X55952381Y-31311441D01*
X55952381Y-31311441D02*
X55904762Y-31120965D01*
X55904762Y-31120965D02*
X55904762Y-30787632D01*
X55904762Y-30787632D02*
X55952381Y-30597156D01*
X55952381Y-30597156D02*
X56047619Y-30501918D01*
X56047619Y-30501918D02*
X56142857Y-30454299D01*
X57000000Y-31454299D02*
X57000000Y-30454299D01*
X57000000Y-30454299D02*
X57571428Y-31454299D01*
X57571428Y-31454299D02*
X57571428Y-30454299D01*
X58761905Y-30549537D02*
X58809524Y-30501918D01*
X58809524Y-30501918D02*
X58904762Y-30454299D01*
X58904762Y-30454299D02*
X59142857Y-30454299D01*
X59142857Y-30454299D02*
X59238095Y-30501918D01*
X59238095Y-30501918D02*
X59285714Y-30549537D01*
X59285714Y-30549537D02*
X59333333Y-30644775D01*
X59333333Y-30644775D02*
X59333333Y-30740013D01*
X59333333Y-30740013D02*
X59285714Y-30882870D01*
X59285714Y-30882870D02*
X58714286Y-31454299D01*
X58714286Y-31454299D02*
X59333333Y-31454299D01*
X59952381Y-30454299D02*
X60047619Y-30454299D01*
X60047619Y-30454299D02*
X60142857Y-30501918D01*
X60142857Y-30501918D02*
X60190476Y-30549537D01*
X60190476Y-30549537D02*
X60238095Y-30644775D01*
X60238095Y-30644775D02*
X60285714Y-30835251D01*
X60285714Y-30835251D02*
X60285714Y-31073346D01*
X60285714Y-31073346D02*
X60238095Y-31263822D01*
X60238095Y-31263822D02*
X60190476Y-31359060D01*
X60190476Y-31359060D02*
X60142857Y-31406680D01*
X60142857Y-31406680D02*
X60047619Y-31454299D01*
X60047619Y-31454299D02*
X59952381Y-31454299D01*
X59952381Y-31454299D02*
X59857143Y-31406680D01*
X59857143Y-31406680D02*
X59809524Y-31359060D01*
X59809524Y-31359060D02*
X59761905Y-31263822D01*
X59761905Y-31263822D02*
X59714286Y-31073346D01*
X59714286Y-31073346D02*
X59714286Y-30835251D01*
X59714286Y-30835251D02*
X59761905Y-30644775D01*
X59761905Y-30644775D02*
X59809524Y-30549537D01*
X59809524Y-30549537D02*
X59857143Y-30501918D01*
X59857143Y-30501918D02*
X59952381Y-30454299D01*
X60666667Y-30549537D02*
X60714286Y-30501918D01*
X60714286Y-30501918D02*
X60809524Y-30454299D01*
X60809524Y-30454299D02*
X61047619Y-30454299D01*
X61047619Y-30454299D02*
X61142857Y-30501918D01*
X61142857Y-30501918D02*
X61190476Y-30549537D01*
X61190476Y-30549537D02*
X61238095Y-30644775D01*
X61238095Y-30644775D02*
X61238095Y-30740013D01*
X61238095Y-30740013D02*
X61190476Y-30882870D01*
X61190476Y-30882870D02*
X60619048Y-31454299D01*
X60619048Y-31454299D02*
X61238095Y-31454299D01*
X62095238Y-30454299D02*
X61904762Y-30454299D01*
X61904762Y-30454299D02*
X61809524Y-30501918D01*
X61809524Y-30501918D02*
X61761905Y-30549537D01*
X61761905Y-30549537D02*
X61666667Y-30692394D01*
X61666667Y-30692394D02*
X61619048Y-30882870D01*
X61619048Y-30882870D02*
X61619048Y-31263822D01*
X61619048Y-31263822D02*
X61666667Y-31359060D01*
X61666667Y-31359060D02*
X61714286Y-31406680D01*
X61714286Y-31406680D02*
X61809524Y-31454299D01*
X61809524Y-31454299D02*
X62000000Y-31454299D01*
X62000000Y-31454299D02*
X62095238Y-31406680D01*
X62095238Y-31406680D02*
X62142857Y-31359060D01*
X62142857Y-31359060D02*
X62190476Y-31263822D01*
X62190476Y-31263822D02*
X62190476Y-31025727D01*
X62190476Y-31025727D02*
X62142857Y-30930489D01*
X62142857Y-30930489D02*
X62095238Y-30882870D01*
X62095238Y-30882870D02*
X62000000Y-30835251D01*
X62000000Y-30835251D02*
X61809524Y-30835251D01*
X61809524Y-30835251D02*
X61714286Y-30882870D01*
X61714286Y-30882870D02*
X61666667Y-30930489D01*
X61666667Y-30930489D02*
X61619048Y-31025727D01*
D11*
G36*
X43855651Y-34367786D02*
G01*
X42235078Y-34367786D01*
X42235078Y-47795390D01*
X43855651Y-47795390D01*
X43855651Y-48952942D01*
X37836381Y-48952942D01*
X37836381Y-47795390D01*
X39456954Y-47795390D01*
X39456954Y-34367786D01*
X37836381Y-34367786D01*
X37836381Y-33210234D01*
X43855651Y-33210234D01*
X43855651Y-34367786D01*
G37*
G36*
X54042109Y-34367786D02*
G01*
X52421536Y-34367786D01*
X52421536Y-47795390D01*
X54042109Y-47795390D01*
X54042109Y-48952942D01*
X48022839Y-48952942D01*
X48022839Y-47795390D01*
X49643411Y-47795390D01*
X49643411Y-34367786D01*
X48022839Y-34367786D01*
X48022839Y-33210234D01*
X54042109Y-33210234D01*
X54042109Y-34367786D01*
G37*
G36*
X47300526Y-41776118D02*
G01*
X50754663Y-33210234D01*
X51958515Y-33210234D01*
X46633776Y-46406326D01*
X40614506Y-33210234D01*
X43392631Y-33210234D01*
X47300526Y-41776118D01*
G37*
D12*
X7309523Y-9837476D02*
X7309523Y-7742238D01*
X7309523Y-7742238D02*
X7119047Y-7361285D01*
X7119047Y-7361285D02*
X6738095Y-7170809D01*
X6738095Y-7170809D02*
X5976190Y-7170809D01*
X5976190Y-7170809D02*
X5595237Y-7361285D01*
X7309523Y-9647000D02*
X6928571Y-9837476D01*
X6928571Y-9837476D02*
X5976190Y-9837476D01*
X5976190Y-9837476D02*
X5595237Y-9647000D01*
X5595237Y-9647000D02*
X5404761Y-9266047D01*
X5404761Y-9266047D02*
X5404761Y-8885095D01*
X5404761Y-8885095D02*
X5595237Y-8504142D01*
X5595237Y-8504142D02*
X5976190Y-8313666D01*
X5976190Y-8313666D02*
X6928571Y-8313666D01*
X6928571Y-8313666D02*
X7309523Y-8123190D01*
X9214285Y-9837476D02*
X9214285Y-7170809D01*
X9214285Y-5837476D02*
X9023809Y-6027952D01*
X9023809Y-6027952D02*
X9214285Y-6218428D01*
X9214285Y-6218428D02*
X9404762Y-6027952D01*
X9404762Y-6027952D02*
X9214285Y-5837476D01*
X9214285Y-5837476D02*
X9214285Y-6218428D01*
X10928571Y-9647000D02*
X11309524Y-9837476D01*
X11309524Y-9837476D02*
X12071428Y-9837476D01*
X12071428Y-9837476D02*
X12452381Y-9647000D01*
X12452381Y-9647000D02*
X12642857Y-9266047D01*
X12642857Y-9266047D02*
X12642857Y-9075571D01*
X12642857Y-9075571D02*
X12452381Y-8694619D01*
X12452381Y-8694619D02*
X12071428Y-8504142D01*
X12071428Y-8504142D02*
X11500000Y-8504142D01*
X11500000Y-8504142D02*
X11119047Y-8313666D01*
X11119047Y-8313666D02*
X10928571Y-7932714D01*
X10928571Y-7932714D02*
X10928571Y-7742238D01*
X10928571Y-7742238D02*
X11119047Y-7361285D01*
X11119047Y-7361285D02*
X11500000Y-7170809D01*
X11500000Y-7170809D02*
X12071428Y-7170809D01*
X12071428Y-7170809D02*
X12452381Y-7361285D01*
X14357142Y-9837476D02*
X14357142Y-5837476D01*
X14357142Y-7361285D02*
X14738095Y-7170809D01*
X14738095Y-7170809D02*
X15500000Y-7170809D01*
X15500000Y-7170809D02*
X15880952Y-7361285D01*
X15880952Y-7361285D02*
X16071428Y-7551761D01*
X16071428Y-7551761D02*
X16261904Y-7932714D01*
X16261904Y-7932714D02*
X16261904Y-9075571D01*
X16261904Y-9075571D02*
X16071428Y-9456523D01*
X16071428Y-9456523D02*
X15880952Y-9647000D01*
X15880952Y-9647000D02*
X15500000Y-9837476D01*
X15500000Y-9837476D02*
X14738095Y-9837476D01*
X14738095Y-9837476D02*
X14357142Y-9647000D01*
X17976190Y-9456523D02*
X18166667Y-9647000D01*
X18166667Y-9647000D02*
X17976190Y-9837476D01*
X17976190Y-9837476D02*
X17785714Y-9647000D01*
X17785714Y-9647000D02*
X17976190Y-9456523D01*
X17976190Y-9456523D02*
X17976190Y-9837476D01*
X21595238Y-9837476D02*
X21595238Y-5837476D01*
X21595238Y-9647000D02*
X21214286Y-9837476D01*
X21214286Y-9837476D02*
X20452381Y-9837476D01*
X20452381Y-9837476D02*
X20071429Y-9647000D01*
X20071429Y-9647000D02*
X19880952Y-9456523D01*
X19880952Y-9456523D02*
X19690476Y-9075571D01*
X19690476Y-9075571D02*
X19690476Y-7932714D01*
X19690476Y-7932714D02*
X19880952Y-7551761D01*
X19880952Y-7551761D02*
X20071429Y-7361285D01*
X20071429Y-7361285D02*
X20452381Y-7170809D01*
X20452381Y-7170809D02*
X21214286Y-7170809D01*
X21214286Y-7170809D02*
X21595238Y-7361285D01*
X25023810Y-9647000D02*
X24642858Y-9837476D01*
X24642858Y-9837476D02*
X23880953Y-9837476D01*
X23880953Y-9837476D02*
X23500000Y-9647000D01*
X23500000Y-9647000D02*
X23309524Y-9266047D01*
X23309524Y-9266047D02*
X23309524Y-7742238D01*
X23309524Y-7742238D02*
X23500000Y-7361285D01*
X23500000Y-7361285D02*
X23880953Y-7170809D01*
X23880953Y-7170809D02*
X24642858Y-7170809D01*
X24642858Y-7170809D02*
X25023810Y-7361285D01*
X25023810Y-7361285D02*
X25214286Y-7742238D01*
X25214286Y-7742238D02*
X25214286Y-8123190D01*
X25214286Y-8123190D02*
X23309524Y-8504142D01*
X26547619Y-7170809D02*
X27500000Y-9837476D01*
X27500000Y-9837476D02*
X28452381Y-7170809D01*
X32833333Y-5647000D02*
X29404762Y-10789857D01*
X34166666Y-9837476D02*
X34166666Y-7170809D01*
X34166666Y-7551761D02*
X34357143Y-7361285D01*
X34357143Y-7361285D02*
X34738095Y-7170809D01*
X34738095Y-7170809D02*
X35309524Y-7170809D01*
X35309524Y-7170809D02*
X35690476Y-7361285D01*
X35690476Y-7361285D02*
X35880952Y-7742238D01*
X35880952Y-7742238D02*
X35880952Y-9837476D01*
X35880952Y-7742238D02*
X36071428Y-7361285D01*
X36071428Y-7361285D02*
X36452381Y-7170809D01*
X36452381Y-7170809D02*
X37023809Y-7170809D01*
X37023809Y-7170809D02*
X37404762Y-7361285D01*
X37404762Y-7361285D02*
X37595238Y-7742238D01*
X37595238Y-7742238D02*
X37595238Y-9837476D01*
X39119047Y-5837476D02*
X41595238Y-5837476D01*
X41595238Y-5837476D02*
X40261904Y-7361285D01*
X40261904Y-7361285D02*
X40833333Y-7361285D01*
X40833333Y-7361285D02*
X41214285Y-7551761D01*
X41214285Y-7551761D02*
X41404761Y-7742238D01*
X41404761Y-7742238D02*
X41595238Y-8123190D01*
X41595238Y-8123190D02*
X41595238Y-9075571D01*
X41595238Y-9075571D02*
X41404761Y-9456523D01*
X41404761Y-9456523D02*
X41214285Y-9647000D01*
X41214285Y-9647000D02*
X40833333Y-9837476D01*
X40833333Y-9837476D02*
X39690476Y-9837476D01*
X39690476Y-9837476D02*
X39309523Y-9647000D01*
X39309523Y-9647000D02*
X39119047Y-9456523D01*
D13*
X15354761Y-14385427D02*
X15354761Y-13535427D01*
X15354761Y-13535427D02*
X15678571Y-13535427D01*
X15678571Y-13535427D02*
X15759523Y-13575903D01*
X15759523Y-13575903D02*
X15800000Y-13616379D01*
X15800000Y-13616379D02*
X15840476Y-13697331D01*
X15840476Y-13697331D02*
X15840476Y-13818760D01*
X15840476Y-13818760D02*
X15800000Y-13899712D01*
X15800000Y-13899712D02*
X15759523Y-13940189D01*
X15759523Y-13940189D02*
X15678571Y-13980665D01*
X15678571Y-13980665D02*
X15354761Y-13980665D01*
X16164285Y-14142570D02*
X16569047Y-14142570D01*
X16083333Y-14385427D02*
X16366666Y-13535427D01*
X16366666Y-13535427D02*
X16650000Y-14385427D01*
X16892856Y-14344951D02*
X17014285Y-14385427D01*
X17014285Y-14385427D02*
X17216666Y-14385427D01*
X17216666Y-14385427D02*
X17297618Y-14344951D01*
X17297618Y-14344951D02*
X17338094Y-14304474D01*
X17338094Y-14304474D02*
X17378571Y-14223522D01*
X17378571Y-14223522D02*
X17378571Y-14142570D01*
X17378571Y-14142570D02*
X17338094Y-14061617D01*
X17338094Y-14061617D02*
X17297618Y-14021141D01*
X17297618Y-14021141D02*
X17216666Y-13980665D01*
X17216666Y-13980665D02*
X17054761Y-13940189D01*
X17054761Y-13940189D02*
X16973809Y-13899712D01*
X16973809Y-13899712D02*
X16933332Y-13859236D01*
X16933332Y-13859236D02*
X16892856Y-13778284D01*
X16892856Y-13778284D02*
X16892856Y-13697331D01*
X16892856Y-13697331D02*
X16933332Y-13616379D01*
X16933332Y-13616379D02*
X16973809Y-13575903D01*
X16973809Y-13575903D02*
X17054761Y-13535427D01*
X17054761Y-13535427D02*
X17257142Y-13535427D01*
X17257142Y-13535427D02*
X17378571Y-13575903D01*
X17702380Y-14344951D02*
X17823809Y-14385427D01*
X17823809Y-14385427D02*
X18026190Y-14385427D01*
X18026190Y-14385427D02*
X18107142Y-14344951D01*
X18107142Y-14344951D02*
X18147618Y-14304474D01*
X18147618Y-14304474D02*
X18188095Y-14223522D01*
X18188095Y-14223522D02*
X18188095Y-14142570D01*
X18188095Y-14142570D02*
X18147618Y-14061617D01*
X18147618Y-14061617D02*
X18107142Y-14021141D01*
X18107142Y-14021141D02*
X18026190Y-13980665D01*
X18026190Y-13980665D02*
X17864285Y-13940189D01*
X17864285Y-13940189D02*
X17783333Y-13899712D01*
X17783333Y-13899712D02*
X17742856Y-13859236D01*
X17742856Y-13859236D02*
X17702380Y-13778284D01*
X17702380Y-13778284D02*
X17702380Y-13697331D01*
X17702380Y-13697331D02*
X17742856Y-13616379D01*
X17742856Y-13616379D02*
X17783333Y-13575903D01*
X17783333Y-13575903D02*
X17864285Y-13535427D01*
X17864285Y-13535427D02*
X18066666Y-13535427D01*
X18066666Y-13535427D02*
X18188095Y-13575903D01*
X18552380Y-14385427D02*
X18552380Y-13535427D01*
X18835714Y-13535427D02*
X19119047Y-14385427D01*
X19119047Y-14385427D02*
X19402381Y-13535427D01*
X19685713Y-13940189D02*
X19969047Y-13940189D01*
X20090475Y-14385427D02*
X19685713Y-14385427D01*
X19685713Y-14385427D02*
X19685713Y-13535427D01*
X19685713Y-13535427D02*
X20090475Y-13535427D01*
X21102380Y-13940189D02*
X21385714Y-13940189D01*
X21507142Y-14385427D02*
X21102380Y-14385427D01*
X21102380Y-14385427D02*
X21102380Y-13535427D01*
X21102380Y-13535427D02*
X21507142Y-13535427D01*
X21871428Y-14385427D02*
X21871428Y-13535427D01*
X21871428Y-13535427D02*
X22154762Y-14142570D01*
X22154762Y-14142570D02*
X22438095Y-13535427D01*
X22438095Y-13535427D02*
X22438095Y-14385427D01*
X23490476Y-14385427D02*
X23490476Y-13535427D01*
X23490476Y-13535427D02*
X23814286Y-13535427D01*
X23814286Y-13535427D02*
X23895238Y-13575903D01*
X23895238Y-13575903D02*
X23935715Y-13616379D01*
X23935715Y-13616379D02*
X23976191Y-13697331D01*
X23976191Y-13697331D02*
X23976191Y-13818760D01*
X23976191Y-13818760D02*
X23935715Y-13899712D01*
X23935715Y-13899712D02*
X23895238Y-13940189D01*
X23895238Y-13940189D02*
X23814286Y-13980665D01*
X23814286Y-13980665D02*
X23490476Y-13980665D01*
X24340476Y-14385427D02*
X24340476Y-13535427D01*
X25230953Y-14304474D02*
X25190477Y-14344951D01*
X25190477Y-14344951D02*
X25069048Y-14385427D01*
X25069048Y-14385427D02*
X24988096Y-14385427D01*
X24988096Y-14385427D02*
X24866667Y-14344951D01*
X24866667Y-14344951D02*
X24785715Y-14263998D01*
X24785715Y-14263998D02*
X24745238Y-14183046D01*
X24745238Y-14183046D02*
X24704762Y-14021141D01*
X24704762Y-14021141D02*
X24704762Y-13899712D01*
X24704762Y-13899712D02*
X24745238Y-13737808D01*
X24745238Y-13737808D02*
X24785715Y-13656855D01*
X24785715Y-13656855D02*
X24866667Y-13575903D01*
X24866667Y-13575903D02*
X24988096Y-13535427D01*
X24988096Y-13535427D02*
X25069048Y-13535427D01*
X25069048Y-13535427D02*
X25190477Y-13575903D01*
X25190477Y-13575903D02*
X25230953Y-13616379D01*
X25595238Y-14385427D02*
X25595238Y-13535427D01*
X26080953Y-14385427D02*
X25716667Y-13899712D01*
X26080953Y-13535427D02*
X25595238Y-14021141D01*
X26445238Y-13535427D02*
X26445238Y-14223522D01*
X26445238Y-14223522D02*
X26485715Y-14304474D01*
X26485715Y-14304474D02*
X26526191Y-14344951D01*
X26526191Y-14344951D02*
X26607143Y-14385427D01*
X26607143Y-14385427D02*
X26769048Y-14385427D01*
X26769048Y-14385427D02*
X26850000Y-14344951D01*
X26850000Y-14344951D02*
X26890477Y-14304474D01*
X26890477Y-14304474D02*
X26930953Y-14223522D01*
X26930953Y-14223522D02*
X26930953Y-13535427D01*
X27335714Y-14385427D02*
X27335714Y-13535427D01*
X27335714Y-13535427D02*
X27659524Y-13535427D01*
X27659524Y-13535427D02*
X27740476Y-13575903D01*
X27740476Y-13575903D02*
X27780953Y-13616379D01*
X27780953Y-13616379D02*
X27821429Y-13697331D01*
X27821429Y-13697331D02*
X27821429Y-13818760D01*
X27821429Y-13818760D02*
X27780953Y-13899712D01*
X27780953Y-13899712D02*
X27740476Y-13940189D01*
X27740476Y-13940189D02*
X27659524Y-13980665D01*
X27659524Y-13980665D02*
X27335714Y-13980665D01*
X28954762Y-14021141D02*
X28914286Y-14061617D01*
X28914286Y-14061617D02*
X28954762Y-14102093D01*
X28954762Y-14102093D02*
X28995238Y-14061617D01*
X28995238Y-14061617D02*
X28954762Y-14021141D01*
X28954762Y-14021141D02*
X28954762Y-14102093D01*
X30047619Y-13535427D02*
X30573810Y-13535427D01*
X30573810Y-13535427D02*
X30290476Y-13859236D01*
X30290476Y-13859236D02*
X30411905Y-13859236D01*
X30411905Y-13859236D02*
X30492857Y-13899712D01*
X30492857Y-13899712D02*
X30533333Y-13940189D01*
X30533333Y-13940189D02*
X30573810Y-14021141D01*
X30573810Y-14021141D02*
X30573810Y-14223522D01*
X30573810Y-14223522D02*
X30533333Y-14304474D01*
X30533333Y-14304474D02*
X30492857Y-14344951D01*
X30492857Y-14344951D02*
X30411905Y-14385427D01*
X30411905Y-14385427D02*
X30169048Y-14385427D01*
X30169048Y-14385427D02*
X30088095Y-14344951D01*
X30088095Y-14344951D02*
X30047619Y-14304474D01*
X31100000Y-13535427D02*
X31180953Y-13535427D01*
X31180953Y-13535427D02*
X31261905Y-13575903D01*
X31261905Y-13575903D02*
X31302381Y-13616379D01*
X31302381Y-13616379D02*
X31342857Y-13697331D01*
X31342857Y-13697331D02*
X31383334Y-13859236D01*
X31383334Y-13859236D02*
X31383334Y-14061617D01*
X31383334Y-14061617D02*
X31342857Y-14223522D01*
X31342857Y-14223522D02*
X31302381Y-14304474D01*
X31302381Y-14304474D02*
X31261905Y-14344951D01*
X31261905Y-14344951D02*
X31180953Y-14385427D01*
X31180953Y-14385427D02*
X31100000Y-14385427D01*
X31100000Y-14385427D02*
X31019048Y-14344951D01*
X31019048Y-14344951D02*
X30978572Y-14304474D01*
X30978572Y-14304474D02*
X30938095Y-14223522D01*
X30938095Y-14223522D02*
X30897619Y-14061617D01*
X30897619Y-14061617D02*
X30897619Y-13859236D01*
X30897619Y-13859236D02*
X30938095Y-13697331D01*
X30938095Y-13697331D02*
X30978572Y-13616379D01*
X30978572Y-13616379D02*
X31019048Y-13575903D01*
X31019048Y-13575903D02*
X31100000Y-13535427D01*
X31626191Y-13535427D02*
X32111905Y-13535427D01*
X31869048Y-14385427D02*
X31869048Y-13535427D01*
X33002381Y-13494951D02*
X32273810Y-14587808D01*
X33690476Y-14385427D02*
X33285714Y-14385427D01*
X33285714Y-14385427D02*
X33285714Y-13535427D01*
X33933333Y-14142570D02*
X34338095Y-14142570D01*
X33852381Y-14385427D02*
X34135714Y-13535427D01*
X34135714Y-13535427D02*
X34419048Y-14385427D01*
X34864285Y-13980665D02*
X34864285Y-14385427D01*
X34580952Y-13535427D02*
X34864285Y-13980665D01*
X34864285Y-13980665D02*
X35147619Y-13535427D01*
X35430951Y-13940189D02*
X35714285Y-13940189D01*
X35835713Y-14385427D02*
X35430951Y-14385427D01*
X35430951Y-14385427D02*
X35430951Y-13535427D01*
X35430951Y-13535427D02*
X35835713Y-13535427D01*
X36685714Y-14385427D02*
X36402380Y-13980665D01*
X36199999Y-14385427D02*
X36199999Y-13535427D01*
X36199999Y-13535427D02*
X36523809Y-13535427D01*
X36523809Y-13535427D02*
X36604761Y-13575903D01*
X36604761Y-13575903D02*
X36645238Y-13616379D01*
X36645238Y-13616379D02*
X36685714Y-13697331D01*
X36685714Y-13697331D02*
X36685714Y-13818760D01*
X36685714Y-13818760D02*
X36645238Y-13899712D01*
X36645238Y-13899712D02*
X36604761Y-13940189D01*
X36604761Y-13940189D02*
X36523809Y-13980665D01*
X36523809Y-13980665D02*
X36199999Y-13980665D01*
X4233333Y-17562295D02*
X4233333Y-18133723D01*
X4233333Y-18133723D02*
X4195238Y-18248009D01*
X4195238Y-18248009D02*
X4119047Y-18324200D01*
X4119047Y-18324200D02*
X4004762Y-18362295D01*
X4004762Y-18362295D02*
X3928571Y-18362295D01*
X4576190Y-17638485D02*
X4614286Y-17600390D01*
X4614286Y-17600390D02*
X4690476Y-17562295D01*
X4690476Y-17562295D02*
X4880952Y-17562295D01*
X4880952Y-17562295D02*
X4957143Y-17600390D01*
X4957143Y-17600390D02*
X4995238Y-17638485D01*
X4995238Y-17638485D02*
X5033333Y-17714676D01*
X5033333Y-17714676D02*
X5033333Y-17790866D01*
X5033333Y-17790866D02*
X4995238Y-17905152D01*
X4995238Y-17905152D02*
X4538095Y-18362295D01*
X4538095Y-18362295D02*
X5033333Y-18362295D01*
X2880952Y-19633723D02*
X3261905Y-19633723D01*
X2804762Y-19862295D02*
X3071429Y-19062295D01*
X3071429Y-19062295D02*
X3338095Y-19862295D01*
X3604762Y-19062295D02*
X3604762Y-19709914D01*
X3604762Y-19709914D02*
X3642857Y-19786104D01*
X3642857Y-19786104D02*
X3680952Y-19824200D01*
X3680952Y-19824200D02*
X3757143Y-19862295D01*
X3757143Y-19862295D02*
X3909524Y-19862295D01*
X3909524Y-19862295D02*
X3985714Y-19824200D01*
X3985714Y-19824200D02*
X4023809Y-19786104D01*
X4023809Y-19786104D02*
X4061905Y-19709914D01*
X4061905Y-19709914D02*
X4061905Y-19062295D01*
X4442857Y-19862295D02*
X4442857Y-19062295D01*
X4442857Y-19062295D02*
X4633333Y-19062295D01*
X4633333Y-19062295D02*
X4747619Y-19100390D01*
X4747619Y-19100390D02*
X4823809Y-19176580D01*
X4823809Y-19176580D02*
X4861904Y-19252771D01*
X4861904Y-19252771D02*
X4900000Y-19405152D01*
X4900000Y-19405152D02*
X4900000Y-19519438D01*
X4900000Y-19519438D02*
X4861904Y-19671819D01*
X4861904Y-19671819D02*
X4823809Y-19748009D01*
X4823809Y-19748009D02*
X4747619Y-19824200D01*
X4747619Y-19824200D02*
X4633333Y-19862295D01*
X4633333Y-19862295D02*
X4442857Y-19862295D01*
X5242857Y-19862295D02*
X5242857Y-19062295D01*
X5776190Y-19062295D02*
X5928571Y-19062295D01*
X5928571Y-19062295D02*
X6004761Y-19100390D01*
X6004761Y-19100390D02*
X6080952Y-19176580D01*
X6080952Y-19176580D02*
X6119047Y-19328961D01*
X6119047Y-19328961D02*
X6119047Y-19595628D01*
X6119047Y-19595628D02*
X6080952Y-19748009D01*
X6080952Y-19748009D02*
X6004761Y-19824200D01*
X6004761Y-19824200D02*
X5928571Y-19862295D01*
X5928571Y-19862295D02*
X5776190Y-19862295D01*
X5776190Y-19862295D02*
X5699999Y-19824200D01*
X5699999Y-19824200D02*
X5623809Y-19748009D01*
X5623809Y-19748009D02*
X5585713Y-19595628D01*
X5585713Y-19595628D02*
X5585713Y-19328961D01*
X5585713Y-19328961D02*
X5623809Y-19176580D01*
X5623809Y-19176580D02*
X5699999Y-19100390D01*
X5699999Y-19100390D02*
X5776190Y-19062295D01*
X3283333Y-93767295D02*
X3283333Y-94338723D01*
X3283333Y-94338723D02*
X3245238Y-94453009D01*
X3245238Y-94453009D02*
X3169047Y-94529200D01*
X3169047Y-94529200D02*
X3054762Y-94567295D01*
X3054762Y-94567295D02*
X2978571Y-94567295D01*
X4083333Y-94567295D02*
X3626190Y-94567295D01*
X3854762Y-94567295D02*
X3854762Y-93767295D01*
X3854762Y-93767295D02*
X3778571Y-93881580D01*
X3778571Y-93881580D02*
X3702381Y-93957771D01*
X3702381Y-93957771D02*
X3626190Y-93995866D01*
D14*
X3264285Y-101968304D02*
X3114285Y-101968304D01*
X3114285Y-102204018D02*
X3114285Y-101754018D01*
X3114285Y-101754018D02*
X3328571Y-101754018D01*
X3714285Y-102204018D02*
X3499999Y-102204018D01*
X3499999Y-102204018D02*
X3499999Y-101754018D01*
X3864285Y-101968304D02*
X4014285Y-101968304D01*
X4078571Y-102204018D02*
X3864285Y-102204018D01*
X3864285Y-102204018D02*
X3864285Y-101754018D01*
X3864285Y-101754018D02*
X4078571Y-101754018D01*
X4228571Y-101754018D02*
X4528571Y-102204018D01*
X4528571Y-101754018D02*
X4228571Y-102204018D01*
X5042856Y-101968304D02*
X5192856Y-101968304D01*
X5257142Y-102204018D02*
X5042856Y-102204018D01*
X5042856Y-102204018D02*
X5042856Y-101754018D01*
X5042856Y-101754018D02*
X5257142Y-101754018D01*
X5449999Y-102204018D02*
X5449999Y-101754018D01*
X5449999Y-101754018D02*
X5707142Y-102204018D01*
X5707142Y-102204018D02*
X5707142Y-101754018D01*
X5857143Y-101754018D02*
X6114286Y-101754018D01*
X5985714Y-102204018D02*
X5985714Y-101754018D01*
X6521428Y-102204018D02*
X6371428Y-101989732D01*
X6264285Y-102204018D02*
X6264285Y-101754018D01*
X6264285Y-101754018D02*
X6435714Y-101754018D01*
X6435714Y-101754018D02*
X6478571Y-101775447D01*
X6478571Y-101775447D02*
X6500000Y-101796875D01*
X6500000Y-101796875D02*
X6521428Y-101839732D01*
X6521428Y-101839732D02*
X6521428Y-101904018D01*
X6521428Y-101904018D02*
X6500000Y-101946875D01*
X6500000Y-101946875D02*
X6478571Y-101968304D01*
X6478571Y-101968304D02*
X6435714Y-101989732D01*
X6435714Y-101989732D02*
X6264285Y-101989732D01*
X6800000Y-101989732D02*
X6800000Y-102204018D01*
X6650000Y-101754018D02*
X6800000Y-101989732D01*
X6800000Y-101989732D02*
X6950000Y-101754018D01*
%TO.C,J1*%
D12*
X4500000Y-100455000D02*
X3950000Y-100455000D01*
D13*
X4500000Y-87205000D02*
X8300000Y-87205000D01*
X8300000Y-101205000D01*
X4500000Y-101205000D01*
X4500000Y-87205000D01*
%TD*%
M02*
