%TF.GenerationSoftware,KiCad,Pcbnew,10.0.4*%
%TF.CreationDate,2026-08-13T11:56:20-07:00*%
%TF.ProjectId,vegas26-badge,76656761-7332-4362-9d62-616467652e6b,rev?*%
%TF.SameCoordinates,Original*%
%TF.FileFunction,Soldermask,Top*%
%TF.FilePolarity,Negative*%
%FSLAX46Y46*%
G04 Gerber Fmt 4.6, Leading zero omitted, Abs format (unit mm)*
G04 Created by KiCad (PCBNEW 10.0.4) date 2026-08-13 11:56:20*
%MOMM*%
%LPD*%
G01*
G04 APERTURE LIST*
G04 Aperture macros list*
%AMRoundRect*
0 Rectangle with rounded corners*
0 $1 Rounding radius*
0 $2 $3 $4 $5 $6 $7 $8 $9 X,Y pos of 4 corners*
0 Add a 4 corners polygon primitive as box body*
4,1,4,$2,$3,$4,$5,$6,$7,$8,$9,$2,$3,0*
0 Add four circle primitives for the rounded corners*
1,1,$1+$1,$2,$3*
1,1,$1+$1,$4,$5*
1,1,$1+$1,$6,$7*
1,1,$1+$1,$8,$9*
0 Add four rect primitives between the rounded corners*
20,1,$1+$1,$2,$3,$4,$5,0*
20,1,$1+$1,$4,$5,$6,$7,0*
20,1,$1+$1,$6,$7,$8,$9,0*
20,1,$1+$1,$8,$9,$2,$3,0*%
G04 Aperture macros list end*
%ADD10R,2.600000X2.600000*%
%ADD11C,2.600000*%
%ADD12R,0.800000X0.300000*%
%ADD13R,0.800000X0.800000*%
%ADD14RoundRect,0.076120X-1.826880X-1.826880X1.826880X-1.826880X1.826880X1.826880X-1.826880X1.826880X0*%
%ADD15C,0.991000*%
%ADD16R,2.000000X2.000000*%
%ADD17C,2.000000*%
%ADD18O,2.200000X6.000000*%
G04 APERTURE END LIST*
D10*
%TO.C,J2*%
X4500000Y-22000000D03*
D11*
X4500000Y-27000000D03*
%TD*%
D12*
%TO.C,J1*%
X5000000Y-88455000D03*
X5000000Y-88955000D03*
X5000000Y-89455000D03*
X5000000Y-89955000D03*
X5000000Y-90455000D03*
X5000000Y-90955000D03*
X5000000Y-91455000D03*
X5000000Y-91955000D03*
X5000000Y-92455000D03*
X5000000Y-92955000D03*
X5000000Y-93455000D03*
X5000000Y-93955000D03*
X5000000Y-94455000D03*
X5000000Y-94955000D03*
X5000000Y-95455000D03*
X5000000Y-95955000D03*
X5000000Y-96455000D03*
X5000000Y-96955000D03*
X5000000Y-97455000D03*
X5000000Y-97955000D03*
X5000000Y-98455000D03*
X5000000Y-98955000D03*
X5000000Y-99455000D03*
X5000000Y-99955000D03*
D13*
X8300000Y-87455000D03*
X8300000Y-100955000D03*
%TD*%
D14*
%TO.C,*%
X72270000Y-44320000D03*
%TD*%
D15*
%TO.C,J3*%
X86190000Y-130984000D03*
X86190000Y-133016000D03*
X93810000Y-132000000D03*
%TD*%
D16*
%TO.C,J4*%
X60000000Y-135500000D03*
D17*
X62540000Y-135500000D03*
X65080000Y-135500000D03*
X67620000Y-135500000D03*
X70160000Y-135500000D03*
X72700000Y-135500000D03*
X75240000Y-135500000D03*
X77780000Y-135500000D03*
%TD*%
D18*
%TO.C,MH1*%
X3500000Y-128500000D03*
X3500000Y-136500000D03*
X37000000Y-128500000D03*
X37000000Y-136500000D03*
%TD*%
M02*
